SplineFontDB: 1.0
FontName: DejaVuSerif-Bold
FullName: DejaVu Serif Bold
FamilyName: DejaVu Serif
Weight: Bold
Copyright: Copyright (c) 2003 by Bitstream, Inc. All Rights Reserved.\nDejaVu changes are in public domain\n
Version: 1.4
ItalicAngle: 0
UnderlinePosition: -217
UnderlineWidth: 240
Ascent: 1556
Descent: 492
Order2: 1
NeedsXUIDChange: 1
FSType: 4
PfmFamily: 17
TTFWeight: 700
TTFWidth: 5
Panose: 2 6 8 3 5 6 5 2 2 4
LineGap: 410
VLineGap: 0
OS2TypoAscent: 1556
OS2TypoDescent: -492
OS2TypoLinegap: 0
OS2WinAscent: 1923
OS2WinAOffset: 1
OS2WinDescent: 483
OS2WinDOffset: 1
HheadAscent: 0
HheadAOffset: 1
HheadDescent: 0
HheadDOffset: 1
ScriptLang: 2
 1 latn 1 dflt 
 1 DFLT 1 dflt 
TtfTable: prep 1407
\,q1GjNmf-c:\8arWC@O"3D#Ta>*k<]*$'b"3(*=`0LMBrWC"9"2MZA"i,Ng^IJC?0E]":"2#!D
]D_oDrWB_1"1SjD[L*,E'a(fi"1&=:ZTnZ!Yo3eN)?[4I)?m>d"0WUFY+H.,Xu?HbT+(t++Tnf)
"02e3Wi6R6W\O[U&Hf"_"K3pTVj\Y1Vu?dqV%Ns/*<W,N"/M\B"f/a4UN@L[UFQG@F<(OZ]*"b"
)?li6"/$P7T+(moS\#&srWA^]>m6e2".arFS=:f.S6Z5e5QmRF*X/#Z".GVi"e$J7R^iC55lUtT
&HeC/".2=VQQ60o$NlZ["-a5sP8OIcO^nWYrWA:)*<hR9"-AQO"csE#Nsc&N5Qm+,%0_b+"-!`l
N/J#HN%tKn$3Q/+",Vh^"c<3\LiaX@Lj]A[$Nl)(",(b:"b\W5K7Xa?KDkt)E=W5)'*Ec7%0_:]
"+La^Im=-cF<(O6rW@Rr*sI)l"+20mH[<:-Hi=+nH!LT"]*!A0"F55<"aOAUGsDLW,m/?M"*Sc,
"a4Y`F`\W-Fnu2^*<UB^"*/Al"`jSEE=W.kJ-9h0/d64n")fdoDZ0`TrW?sJ")CO3C'k&VrW?d?
"(sk%Ag%7fI04$Z"$hiUCBJ%X"(?T[@/^77('@hM%g?8<"'Z?>=]c[J=Y0_X*<T@u"',d3<)X\=
<0dVb)?WkU"&Vl1"]6QJ:_"$?:_j./%M/e>(B[E,*!K)c"&2>r"\fs=9gAhT%ibaH0`t&Y&-Y]^
"%l,o"\O1F8IYbm7g]DjI02tH"%G]g"\(6L777Of71B>f\Gs?0rrb^u"%,Bl"[eRX65Tej5Rmr`
I02_m#mER("$hA>5<UG!5J%"]4XgOu>m!5#*!JJS"$AX^"[!D"4$!uX3uA&\3=5pN&d(-$"#r4M
"ZUo42`:sG2\-!LJ-7b:"#`CI2)H-R23n>$.gZA9(]uQ#*<e6b"#;;7"Z$&Z0b+:>$k!4m*Wn&@
.0V@`""k`("YLhu/M%J;/X?Ji.gZA1&HaRL"=jc\.OGE).NJU?%0J%E"=PW0"XoZ=-RK*&-P6G.
5QiD>"!o3A"XUb_,SM=),Uig?'-RN(rW=>f$3_W>"!Jcm"X+3T+b0\<#Ql27"<S:#"Wo2r5dVRE
/Hm1V"!&Ne*.7o.'a#@0!uWir(_\%r)#aUR(+BD'CBG=c+U&W1!u1tH"Vi'\'Gpoc%M/dW+Ti>h

StartChar: .notdef
Encoding: 0 -1 0
Width: 1229
Flags: W
Fore
102 -362 m 1,0,-1
 102 1444 l 1,1,-1
 1126 1444 l 1,2,-1
 1126 -362 l 1,3,-1
 102 -362 l 1,0,-1
217 -248 m 1,4,-1
 1012 -248 l 1,5,-1
 1012 1329 l 1,6,-1
 217 1329 l 1,7,-1
 217 -248 l 1,4,-1
EndSplineSet
EndChar
StartChar: exclam
Encoding: 33 33 4
Width: 899
Flags: W
Fore
260 162 m 0,0,1
 260 240 260 240 315.5 296 c 128,-1,2
 371 352 371 352 449 352 c 0,3,4
 527 352 527 352 583 296 c 128,-1,5
 639 240 639 240 639 162 c 0,6,7
 639 83 639 83 583 27 c 128,-1,8
 527 -29 527 -29 449 -29 c 0,9,10
 371 -29 371 -29 315.5 27 c 128,-1,11
 260 83 260 83 260 162 c 0,0,1
262 1493 m 1,12,-1
 637 1493 l 1,13,-1
 518 651 l 1,14,-1
 518 461 l 1,15,-1
 379 461 l 1,16,-1
 379 651 l 1,17,-1
 262 1493 l 1,12,-1
EndSplineSet
EndChar
StartChar: quotedbl
Encoding: 34 34 5
Width: 1067
Flags: W
Fore
432 1493 m 1,0,-1
 432 938 l 1,1,-1
 195 938 l 1,2,-1
 195 1493 l 1,3,-1
 432 1493 l 1,0,-1
872 1493 m 1,4,-1
 872 938 l 1,5,-1
 635 938 l 1,6,-1
 635 1493 l 1,7,-1
 872 1493 l 1,4,-1
EndSplineSet
EndChar
StartChar: numbersign
Encoding: 35 35 6
Width: 1716
Flags: W
Fore
1024 872 m 1,0,-1
 760 872 l 1,1,-1
 690 598 l 1,2,-1
 954 598 l 1,3,-1
 1024 872 l 1,0,-1
911 1470 m 1,4,-1
 815 1085 l 1,5,-1
 1079 1085 l 1,6,-1
 1176 1470 l 1,7,-1
 1397 1470 l 1,8,-1
 1300 1085 l 1,9,-1
 1577 1085 l 1,10,-1
 1577 872 l 1,11,-1
 1247 872 l 1,12,-1
 1178 598 l 1,13,-1
 1462 598 l 1,14,-1
 1462 383 l 1,15,-1
 1126 383 l 1,16,-1
 1030 0 l 1,17,-1
 809 0 l 1,18,-1
 905 383 l 1,19,-1
 641 383 l 1,20,-1
 545 0 l 1,21,-1
 322 0 l 1,22,-1
 418 383 l 1,23,-1
 139 383 l 1,24,-1
 139 598 l 1,25,-1
 467 598 l 1,26,-1
 537 872 l 1,27,-1
 254 872 l 1,28,-1
 254 1085 l 1,29,-1
 592 1085 l 1,30,-1
 688 1470 l 1,31,-1
 911 1470 l 1,4,-1
EndSplineSet
EndChar
StartChar: dollar
Encoding: 36 36 7
Width: 1425
Flags: W
Fore
195 59 m 1,0,-1
 195 350 l 1,1,-1
 315 350 l 1,2,3
 332 216 332 216 410.5 150 c 128,-1,4
 489 84 489 84 633 84 c 2,5,-1
 647 84 l 1,6,-1
 647 489 l 1,7,8
 398 544 398 544 290 639 c 128,-1,9
 182 734 182 734 182 897 c 0,10,11
 182 1077 182 1077 304.5 1180.5 c 128,-1,12
 427 1284 427 1284 647 1290 c 1,13,-1
 647 1559 l 1,14,-1
 768 1559 l 1,15,-1
 768 1290 l 1,16,17
 880 1284 880 1284 982.5 1262.5 c 128,-1,18
 1085 1241 1085 1241 1182 1202 c 1,19,-1
 1182 930 l 1,20,-1
 1061 930 l 1,21,22
 1045 1046 1045 1046 968.5 1110.5 c 128,-1,23
 892 1175 892 1175 768 1177 c 1,24,-1
 768 805 l 1,25,26
 1037 746 1037 746 1146 646.5 c 128,-1,27
 1255 547 1255 547 1255 367 c 0,28,29
 1255 182 1255 182 1128.5 79.5 c 128,-1,30
 1002 -23 1002 -23 768 -29 c 1,31,-1
 768 -299 l 1,32,-1
 647 -299 l 1,33,-1
 647 -29 l 1,34,35
 537 -27 537 -27 424 -5 c 128,-1,36
 311 17 311 17 195 59 c 1,0,-1
647 1178 m 1,37,38
 562 1167 562 1167 512.5 1125 c 128,-1,39
 463 1083 463 1083 463 1022 c 0,40,41
 463 952 463 952 505.5 909 c 128,-1,42
 548 866 548 866 647 838 c 1,43,-1
 647 1178 l 1,37,38
768 84 m 1,44,45
 869 95 869 95 921 138.5 c 128,-1,46
 973 182 973 182 973 256 c 0,47,48
 973 330 973 330 924.5 378 c 128,-1,49
 876 426 876 426 768 457 c 1,50,-1
 768 84 l 1,44,45
EndSplineSet
EndChar
StartChar: percent
Encoding: 37 37 8
Width: 1946
Flags: W
Fore
442 1419 m 0,0,1
 378 1419 378 1419 350 1349.5 c 128,-1,2
 322 1280 322 1280 322 1114 c 0,3,4
 322 947 322 947 350 877 c 128,-1,5
 378 807 378 807 442 807 c 0,6,7
 507 807 507 807 535 877 c 128,-1,8
 563 947 563 947 563 1114 c 0,9,10
 563 1280 563 1280 535 1349.5 c 128,-1,11
 507 1419 507 1419 442 1419 c 0,0,1
442 1520 m 0,12,13
 633 1520 633 1520 734.5 1415.5 c 128,-1,14
 836 1311 836 1311 836 1114 c 0,15,16
 836 917 836 917 734.5 812 c 128,-1,17
 633 707 633 707 442 707 c 0,18,19
 252 707 252 707 150.5 812 c 128,-1,20
 49 917 49 917 49 1114 c 0,21,22
 49 1311 49 1311 150.5 1415.5 c 128,-1,23
 252 1520 252 1520 442 1520 c 0,12,13
1354 1520 m 1,24,-1
 1526 1520 l 1,25,-1
 592 -29 l 1,26,-1
 420 -29 l 1,27,-1
 1354 1520 l 1,24,-1
1503 784 m 0,28,29
 1694 784 1694 784 1795 679.5 c 128,-1,30
 1896 575 1896 575 1896 379 c 0,31,32
 1896 182 1896 182 1795 76.5 c 128,-1,33
 1694 -29 1694 -29 1503 -29 c 0,34,35
 1313 -29 1313 -29 1211.5 76.5 c 128,-1,36
 1110 182 1110 182 1110 379 c 0,37,38
 1110 575 1110 575 1211.5 679.5 c 128,-1,39
 1313 784 1313 784 1503 784 c 0,28,29
1503 684 m 0,40,41
 1438 684 1438 684 1410 614.5 c 128,-1,42
 1382 545 1382 545 1382 379 c 0,43,44
 1382 212 1382 212 1410.5 142 c 128,-1,45
 1439 72 1439 72 1503 72 c 0,46,47
 1568 72 1568 72 1596 142 c 128,-1,48
 1624 212 1624 212 1624 379 c 0,49,50
 1624 545 1624 545 1596 614.5 c 128,-1,51
 1568 684 1568 684 1503 684 c 0,40,41
EndSplineSet
EndChar
StartChar: ampersand
Encoding: 38 38 9
Width: 1849
Flags: W
Fore
1812 0 m 1,0,-1
 1333 0 l 1,1,-1
 1206 131 l 1,2,3
 1106 51 1106 51 985 11 c 128,-1,4
 864 -29 864 -29 721 -29 c 0,5,6
 421 -29 421 -29 251.5 99 c 128,-1,7
 82 227 82 227 82 451 c 0,8,9
 82 614 82 614 168.5 729.5 c 128,-1,10
 255 845 255 845 440 928 c 1,11,12
 389 995 389 995 363.5 1056 c 128,-1,13
 338 1117 338 1117 338 1174 c 0,14,15
 338 1338 338 1338 475.5 1429 c 128,-1,16
 613 1520 613 1520 862 1520 c 0,17,18
 936 1520 936 1520 1034.5 1508 c 128,-1,19
 1133 1496 1133 1496 1257 1473 c 1,20,-1
 1257 1161 l 1,21,-1
 1128 1161 l 1,22,23
 1110 1285 1110 1285 1052 1342 c 128,-1,24
 994 1399 994 1399 887 1399 c 0,25,26
 786 1399 786 1399 728 1351 c 128,-1,27
 670 1303 670 1303 670 1221 c 0,28,29
 670 1129 670 1129 849 947 c 0,30,31
 869 927 869 927 879 918 c 1,32,-1
 1339 436 l 1,33,34
 1399 504 1399 504 1433 593 c 128,-1,35
 1467 682 1467 682 1476 795 c 1,36,-1
 1294 795 l 1,37,-1
 1294 915 l 1,38,-1
 1794 915 l 1,39,-1
 1794 795 l 1,40,-1
 1618 795 l 1,41,42
 1601 649 1601 649 1555.5 536 c 128,-1,43
 1510 423 1510 423 1436 336 c 1,44,-1
 1642 121 l 1,45,-1
 1812 121 l 1,46,-1
 1812 0 l 1,0,-1
1112 229 m 1,47,-1
 547 817 l 1,48,49
 492 750 492 750 464 674.5 c 128,-1,50
 436 599 436 599 436 516 c 0,51,52
 436 347 436 347 542.5 238 c 128,-1,53
 649 129 649 129 813 129 c 0,54,55
 891 129 891 129 964.5 153.5 c 128,-1,56
 1038 178 1038 178 1112 229 c 1,47,-1
EndSplineSet
EndChar
StartChar: quotesingle
Encoding: 39 39 10
Width: 627
Flags: W
Fore
432 1493 m 1,0,-1
 432 938 l 1,1,-1
 195 938 l 1,2,-1
 195 1493 l 1,3,-1
 432 1493 l 1,0,-1
EndSplineSet
EndChar
StartChar: parenleft
Encoding: 40 40 11
Width: 969
Flags: W
Fore
862 -319 m 1,0,1
 525 -194 525 -194 359 39 c 128,-1,2
 193 272 193 272 193 618 c 0,3,4
 193 964 193 964 357 1194 c 128,-1,5
 521 1424 521 1424 862 1556 c 1,6,-1
 862 1436 l 1,7,8
 704 1340 704 1340 634.5 1151.5 c 128,-1,9
 565 963 565 963 565 618 c 0,10,11
 565 274 565 274 634.5 85.5 c 128,-1,12
 704 -103 704 -103 862 -199 c 1,13,-1
 862 -319 l 1,0,1
EndSplineSet
EndChar
StartChar: parenright
Encoding: 41 41 12
Width: 969
Flags: W
Fore
104 -319 m 1,0,-1
 104 -199 l 1,1,2
 262 -103 262 -103 331.5 85.5 c 128,-1,3
 401 274 401 274 401 618 c 0,4,5
 401 963 401 963 331.5 1151.5 c 128,-1,6
 262 1340 262 1340 104 1436 c 1,7,-1
 104 1556 l 1,8,9
 445 1424 445 1424 609.5 1194 c 128,-1,10
 774 964 774 964 774 618 c 0,11,12
 774 272 774 272 607.5 39 c 128,-1,13
 441 -194 441 -194 104 -319 c 1,0,-1
EndSplineSet
EndChar
StartChar: asterisk
Encoding: 42 42 13
Width: 1071
Flags: W
Fore
1026 1212 m 1,0,-1
 666 1044 l 1,1,-1
 1026 874 l 1,2,-1
 928 719 l 1,3,-1
 600 958 l 1,4,-1
 627 569 l 1,5,-1
 444 569 l 1,6,-1
 471 958 l 1,7,-1
 143 719 l 1,8,-1
 45 874 l 1,9,-1
 406 1044 l 1,10,-1
 45 1212 l 1,11,-1
 143 1370 l 1,12,-1
 471 1128 l 1,13,-1
 444 1520 l 1,14,-1
 627 1520 l 1,15,-1
 600 1128 l 1,16,-1
 928 1370 l 1,17,-1
 1026 1212 l 1,0,-1
EndSplineSet
EndChar
StartChar: plus
Encoding: 43 43 14
Width: 1716
Flags: W
Fore
973 1284 m 1,0,-1
 973 758 l 1,1,-1
 1499 758 l 1,2,-1
 1499 528 l 1,3,-1
 973 528 l 1,4,-1
 973 2 l 1,5,-1
 743 2 l 1,6,-1
 743 528 l 1,7,-1
 217 528 l 1,8,-1
 217 758 l 1,9,-1
 743 758 l 1,10,-1
 743 1284 l 1,11,-1
 973 1284 l 1,0,-1
EndSplineSet
EndChar
StartChar: comma
Encoding: 44 44 15
Width: 713
Flags: W
Fore
27 -197 m 1,0,1
 131 -113 131 -113 180 -9 c 128,-1,2
 229 95 229 95 229 233 c 2,3,-1
 229 319 l 1,4,-1
 514 319 l 1,5,-1
 514 311 l 2,6,7
 514 90 514 90 421.5 -69.5 c 128,-1,8
 329 -229 329 -229 137 -338 c 1,9,-1
 27 -197 l 1,0,1
EndSplineSet
EndChar
StartChar: hyphen
Encoding: 45 45 16
Width: 850
Flags: W
Fore
111 684 m 1,0,-1
 739 684 l 1,1,-1
 739 414 l 1,2,-1
 111 414 l 1,3,-1
 111 684 l 1,0,-1
EndSplineSet
KernsSLIF: 356 -339 0 0 221 -225 0 0 376 -225 0 0 89 -225 0 0 88 -149 0 0 87 -112 0 0 86 -149 0 0 84 -339 0 0
EndChar
StartChar: period
Encoding: 46 46 17
Width: 713
Flags: W
Fore
166 162 m 0,0,1
 166 240 166 240 222 296 c 128,-1,2
 278 352 278 352 356 352 c 0,3,4
 435 352 435 352 491 296 c 128,-1,5
 547 240 547 240 547 162 c 0,6,7
 547 83 547 83 491 27 c 128,-1,8
 435 -29 435 -29 356 -29 c 0,9,10
 278 -29 278 -29 222 27 c 128,-1,11
 166 83 166 83 166 162 c 0,0,1
EndSplineSet
EndChar
StartChar: slash
Encoding: 47 47 18
Width: 748
Flags: W
Fore
526 1493 m 1,0,-1
 748 1493 l 1,1,-1
 221 -190 l 1,2,-1
 0 -190 l 1,3,-1
 526 1493 l 1,0,-1
EndSplineSet
EndChar
StartChar: zero
Encoding: 48 48 19
Width: 1425
Flags: W
Fore
713 88 m 0,0,1
 833 88 833 88 877.5 197 c 128,-1,2
 922 306 922 306 922 745 c 0,3,4
 922 1181 922 1181 877.5 1292 c 128,-1,5
 833 1403 833 1403 713 1403 c 0,6,7
 593 1403 593 1403 548.5 1294 c 128,-1,8
 504 1185 504 1185 504 745 c 0,9,10
 504 306 504 306 548.5 197 c 128,-1,11
 593 88 593 88 713 88 c 0,0,1
713 -29 m 0,12,13
 414 -29 414 -29 255 170.5 c 128,-1,14
 96 370 96 370 96 745 c 0,15,16
 96 1120 96 1120 255 1320 c 128,-1,17
 414 1520 414 1520 713 1520 c 0,18,19
 1011 1520 1011 1520 1170 1320 c 128,-1,20
 1329 1120 1329 1120 1329 745 c 0,21,22
 1329 370 1329 370 1170 170.5 c 128,-1,23
 1011 -29 1011 -29 713 -29 c 0,12,13
EndSplineSet
EndChar
StartChar: one
Encoding: 49 49 20
Width: 1425
Flags: W
Fore
281 0 m 1,0,-1
 281 121 l 1,1,-1
 561 121 l 1,2,-1
 561 1329 l 1,3,-1
 250 1145 l 1,4,-1
 250 1294 l 1,5,-1
 625 1520 l 1,6,-1
 940 1520 l 1,7,-1
 940 121 l 1,8,-1
 1221 121 l 1,9,-1
 1221 0 l 1,10,-1
 281 0 l 1,0,-1
EndSplineSet
EndChar
StartChar: two
Encoding: 50 50 21
Width: 1425
Flags: W
Fore
270 1124 m 1,0,-1
 150 1124 l 1,1,-1
 150 1446 l 1,2,3
 272 1483 272 1483 391.5 1501.5 c 128,-1,4
 511 1520 511 1520 633 1520 c 0,5,6
 918 1520 918 1520 1077.5 1403.5 c 128,-1,7
 1237 1287 1237 1287 1237 1079 c 0,8,9
 1237 931 1237 931 1149 813.5 c 128,-1,10
 1061 696 1061 696 813 535 c 1,11,-1
 397 262 l 1,12,-1
 1104 262 l 1,13,-1
 1104 438 l 1,14,-1
 1241 438 l 1,15,-1
 1241 0 l 1,16,-1
 137 0 l 1,17,-1
 137 244 l 1,18,-1
 358 397 l 2,19,20
 641 592 641 592 735 729 c 128,-1,21
 829 866 829 866 829 1049 c 0,22,23
 829 1222 829 1222 757.5 1312.5 c 128,-1,24
 686 1403 686 1403 549 1403 c 0,25,26
 431 1403 431 1403 360 1331.5 c 128,-1,27
 289 1260 289 1260 270 1124 c 1,0,-1
EndSplineSet
EndChar
StartChar: three
Encoding: 51 51 22
Width: 1425
Flags: W
Fore
176 1450 m 1,0,1
 308 1485 308 1485 432 1502.5 c 128,-1,2
 556 1520 556 1520 674 1520 c 0,3,4
 944 1520 944 1520 1088.5 1423.5 c 128,-1,5
 1233 1327 1233 1327 1233 1147 c 0,6,7
 1233 1012 1233 1012 1150 928 c 128,-1,8
 1067 844 1067 844 907 815 c 1,9,10
 1102 784 1102 784 1198 682 c 128,-1,11
 1294 580 1294 580 1294 403 c 0,12,13
 1294 194 1294 194 1128.5 82.5 c 128,-1,14
 963 -29 963 -29 649 -29 c 0,15,16
 531 -29 531 -29 405.5 -9 c 128,-1,17
 280 11 280 11 143 51 c 1,18,-1
 143 379 l 1,19,-1
 264 379 l 1,20,21
 275 237 275 237 353 162.5 c 128,-1,22
 431 88 431 88 569 88 c 0,23,24
 721 88 721 88 804 172.5 c 128,-1,25
 887 257 887 257 887 412 c 0,26,27
 887 574 887 574 800.5 662 c 128,-1,28
 714 750 714 750 555 750 c 2,29,-1
 489 750 l 1,30,-1
 489 870 l 1,31,-1
 541 870 l 2,32,33
 688 870 688 870 762 938 c 128,-1,34
 836 1006 836 1006 836 1141 c 0,35,36
 836 1268 836 1268 766.5 1335.5 c 128,-1,37
 697 1403 697 1403 567 1403 c 0,38,39
 449 1403 449 1403 380 1338.5 c 128,-1,40
 311 1274 311 1274 297 1151 c 1,41,-1
 176 1151 l 1,42,-1
 176 1450 l 1,0,1
EndSplineSet
EndChar
StartChar: four
Encoding: 52 52 23
Width: 1425
Flags: W
Fore
1307 0 m 1,0,-1
 485 0 l 1,1,-1
 485 121 l 1,2,-1
 707 121 l 1,3,-1
 707 393 l 1,4,-1
 84 393 l 1,5,-1
 84 508 l 1,6,-1
 709 1520 l 1,7,-1
 1085 1520 l 1,8,-1
 1085 522 l 1,9,-1
 1341 522 l 1,10,-1
 1341 393 l 1,11,-1
 1085 393 l 1,12,-1
 1085 121 l 1,13,-1
 1307 121 l 1,14,-1
 1307 0 l 1,0,-1
707 522 m 1,15,-1
 707 1247 l 1,16,-1
 262 522 l 1,17,-1
 707 522 l 1,15,-1
EndSplineSet
EndChar
StartChar: five
Encoding: 53 53 24
Width: 1425
Flags: W
Fore
1155 1493 m 1,0,-1
 1155 1231 l 1,1,-1
 356 1231 l 1,2,-1
 356 903 l 1,3,4
 422 954 422 954 503 980 c 128,-1,5
 584 1006 584 1006 674 1006 c 0,6,7
 950 1006 950 1006 1110 866.5 c 128,-1,8
 1270 727 1270 727 1270 487 c 0,9,10
 1270 243 1270 243 1110 107 c 128,-1,11
 950 -29 950 -29 662 -29 c 0,12,13
 540 -29 540 -29 419.5 -9 c 128,-1,14
 299 11 299 11 168 53 c 1,15,-1
 168 379 l 1,16,-1
 288 379 l 1,17,18
 294 232 294 232 364.5 160 c 128,-1,19
 435 88 435 88 573 88 c 0,20,21
 720 88 720 88 791 186.5 c 128,-1,22
 862 285 862 285 862 487 c 0,23,24
 862 686 862 686 792.5 784.5 c 128,-1,25
 723 883 723 883 582 883 c 0,26,27
 506 883 506 883 446.5 851.5 c 128,-1,28
 387 820 387 820 336 754 c 1,29,-1
 236 754 l 1,30,-1
 236 1493 l 1,31,-1
 1155 1493 l 1,0,-1
EndSplineSet
EndChar
StartChar: six
Encoding: 54 54 25
Width: 1425
Flags: W
Fore
504 885 m 1,0,1
 569 937 569 937 649.5 963 c 128,-1,2
 730 989 730 989 825 989 c 0,3,4
 1054 989 1054 989 1184.5 855 c 128,-1,5
 1315 721 1315 721 1315 487 c 0,6,7
 1315 240 1315 240 1168 105.5 c 128,-1,8
 1021 -29 1021 -29 750 -29 c 0,9,10
 444 -29 444 -29 286.5 155.5 c 128,-1,11
 129 340 129 340 129 698 c 0,12,13
 129 1105 129 1105 304 1312.5 c 128,-1,14
 479 1520 479 1520 823 1520 c 0,15,16
 913 1520 913 1520 1016 1505 c 128,-1,17
 1119 1490 1119 1490 1237 1460 c 1,18,-1
 1237 1196 l 1,19,-1
 1116 1196 l 1,20,21
 1091 1298 1091 1298 1021.5 1350.5 c 128,-1,22
 952 1403 952 1403 842 1403 c 0,23,24
 664 1403 664 1403 584.5 1281 c 128,-1,25
 505 1159 505 1159 504 885 c 1,0,1
727 88 m 0,26,27
 830 88 830 88 874 175.5 c 128,-1,28
 918 263 918 263 918 479 c 0,29,30
 918 695 918 695 874 782.5 c 128,-1,31
 830 870 830 870 727 870 c 0,32,33
 624 870 624 870 580.5 782.5 c 128,-1,34
 537 695 537 695 537 479 c 0,35,36
 537 263 537 263 580.5 175.5 c 128,-1,37
 624 88 624 88 727 88 c 0,26,27
EndSplineSet
EndChar
StartChar: seven
Encoding: 55 55 26
Width: 1425
Flags: W
Fore
1255 1239 m 1,0,-1
 639 0 l 1,1,-1
 436 0 l 1,2,-1
 1036 1210 l 1,3,-1
 299 1210 l 1,4,-1
 299 1008 l 1,5,-1
 162 1008 l 1,6,-1
 162 1493 l 1,7,-1
 1255 1493 l 1,8,-1
 1255 1239 l 1,0,-1
EndSplineSet
EndChar
StartChar: eight
Encoding: 56 56 27
Width: 1425
Flags: W
Fore
952 795 m 1,0,1
 1130 766 1130 766 1222.5 664 c 128,-1,2
 1315 562 1315 562 1315 397 c 0,3,4
 1315 191 1315 191 1159.5 81 c 128,-1,5
 1004 -29 1004 -29 711 -29 c 0,6,7
 418 -29 418 -29 262 81 c 128,-1,8
 106 191 106 191 106 397 c 0,9,10
 106 562 106 562 199 664 c 128,-1,11
 292 766 292 766 469 795 c 1,12,13
 312 831 312 831 234 915.5 c 128,-1,14
 156 1000 156 1000 156 1130 c 0,15,16
 156 1320 156 1320 298 1420 c 128,-1,17
 440 1520 440 1520 711 1520 c 0,18,19
 981 1520 981 1520 1123.5 1420 c 128,-1,20
 1266 1320 1266 1320 1266 1130 c 0,21,22
 1266 1000 1266 1000 1187.5 915.5 c 128,-1,23
 1109 831 1109 831 952 795 c 1,0,1
879 1126 m 0,24,25
 879 1284 879 1284 841 1343.5 c 128,-1,26
 803 1403 803 1403 711 1403 c 0,27,28
 618 1403 618 1403 580.5 1343.5 c 128,-1,29
 543 1284 543 1284 543 1126 c 0,30,31
 543 969 543 969 580.5 910.5 c 128,-1,32
 618 852 618 852 711 852 c 0,33,34
 804 852 804 852 841.5 910.5 c 128,-1,35
 879 969 879 969 879 1126 c 0,24,25
918 414 m 0,36,37
 918 597 918 597 871.5 666 c 128,-1,38
 825 735 825 735 711 735 c 0,39,40
 596 735 596 735 550 666 c 128,-1,41
 504 597 504 597 504 414 c 0,42,43
 504 229 504 229 550.5 158.5 c 128,-1,44
 597 88 597 88 711 88 c 0,45,46
 824 88 824 88 871 158.5 c 128,-1,47
 918 229 918 229 918 414 c 0,36,37
EndSplineSet
EndChar
StartChar: nine
Encoding: 57 57 28
Width: 1425
Flags: W
Fore
698 1403 m 0,0,1
 595 1403 595 1403 551.5 1315.5 c 128,-1,2
 508 1228 508 1228 508 1012 c 0,3,4
 508 796 508 796 551.5 708.5 c 128,-1,5
 595 621 595 621 698 621 c 0,6,7
 801 621 801 621 845 708.5 c 128,-1,8
 889 796 889 796 889 1012 c 0,9,10
 889 1228 889 1228 845 1315.5 c 128,-1,11
 801 1403 801 1403 698 1403 c 0,0,1
921 608 m 1,12,13
 855 555 855 555 774.5 528.5 c 128,-1,14
 694 502 694 502 600 502 c 0,15,16
 372 502 372 502 241.5 635.5 c 128,-1,17
 111 769 111 769 111 1004 c 0,18,19
 111 1252 111 1252 257 1386 c 128,-1,20
 403 1520 403 1520 674 1520 c 0,21,22
 980 1520 980 1520 1138 1335 c 128,-1,23
 1296 1150 1296 1150 1296 793 c 0,24,25
 1296 386 1296 386 1121 178.5 c 128,-1,26
 946 -29 946 -29 602 -29 c 0,27,28
 512 -29 512 -29 409 -14 c 128,-1,29
 306 1 306 1 188 31 c 1,30,-1
 188 295 l 1,31,-1
 309 295 l 1,32,33
 334 193 334 193 403.5 140.5 c 128,-1,34
 473 88 473 88 584 88 c 0,35,36
 760 88 760 88 840 210.5 c 128,-1,37
 920 333 920 333 921 608 c 1,12,13
EndSplineSet
EndChar
StartChar: colon
Encoding: 58 58 29
Width: 756
Flags: W
Fore
188 813 m 0,0,1
 188 892 188 892 243.5 948 c 128,-1,2
 299 1004 299 1004 377 1004 c 0,3,4
 455 1004 455 1004 511 947.5 c 128,-1,5
 567 891 567 891 567 813 c 0,6,7
 567 735 567 735 511.5 680 c 128,-1,8
 456 625 456 625 377 625 c 0,9,10
 298 625 298 625 243 680 c 128,-1,11
 188 735 188 735 188 813 c 0,0,1
188 162 m 0,12,13
 188 240 188 240 243.5 296 c 128,-1,14
 299 352 299 352 377 352 c 0,15,16
 455 352 455 352 511 296 c 128,-1,17
 567 240 567 240 567 162 c 0,18,19
 567 83 567 83 511 27 c 128,-1,20
 455 -29 455 -29 377 -29 c 0,21,22
 299 -29 299 -29 243.5 27 c 128,-1,23
 188 83 188 83 188 162 c 0,12,13
EndSplineSet
EndChar
StartChar: semicolon
Encoding: 59 59 30
Width: 756
Flags: W
Fore
188 813 m 0,0,1
 188 892 188 892 243.5 948 c 128,-1,2
 299 1004 299 1004 377 1004 c 0,3,4
 455 1004 455 1004 511 947.5 c 128,-1,5
 567 891 567 891 567 813 c 0,6,7
 567 735 567 735 511.5 680 c 128,-1,8
 456 625 456 625 377 625 c 0,9,10
 298 625 298 625 243 680 c 128,-1,11
 188 735 188 735 188 813 c 0,0,1
53 -188 m 1,12,13
 158 -105 158 -105 207 -1.5 c 128,-1,14
 256 102 256 102 256 240 c 2,15,-1
 256 328 l 1,16,-1
 541 328 l 1,17,18
 541 103 541 103 448 -59 c 128,-1,19
 355 -221 355 -221 164 -330 c 1,20,-1
 53 -188 l 1,12,13
EndSplineSet
EndChar
StartChar: less
Encoding: 60 60 31
Width: 1716
Flags: W
Fore
1499 979 m 1,0,-1
 520 641 l 1,1,-1
 1499 305 l 1,2,-1
 1499 66 l 1,3,-1
 217 530 l 1,4,-1
 217 756 l 1,5,-1
 1499 1219 l 1,6,-1
 1499 979 l 1,0,-1
EndSplineSet
EndChar
StartChar: equal
Encoding: 61 61 32
Width: 1716
Flags: W
Fore
217 528 m 1,0,-1
 1499 528 l 1,1,-1
 1499 301 l 1,2,-1
 217 301 l 1,3,-1
 217 528 l 1,0,-1
217 983 m 1,4,-1
 1499 983 l 1,5,-1
 1499 756 l 1,6,-1
 217 756 l 1,7,-1
 217 983 l 1,4,-1
EndSplineSet
EndChar
StartChar: greater
Encoding: 62 62 33
Width: 1716
Flags: W
Fore
217 979 m 1,0,-1
 217 1219 l 1,1,-1
 1499 756 l 1,2,-1
 1499 530 l 1,3,-1
 217 66 l 1,4,-1
 217 305 l 1,5,-1
 1196 641 l 1,6,-1
 217 979 l 1,0,-1
EndSplineSet
EndChar
StartChar: question
Encoding: 63 63 34
Width: 1200
Flags: W
Fore
342 162 m 0,0,1
 342 240 342 240 398 296 c 128,-1,2
 454 352 454 352 532 352 c 0,3,4
 611 352 611 352 667 296 c 128,-1,5
 723 240 723 240 723 162 c 0,6,7
 723 83 723 83 667 27 c 128,-1,8
 611 -29 611 -29 532 -29 c 0,9,10
 454 -29 454 -29 398 27 c 128,-1,11
 342 83 342 83 342 162 c 0,0,1
133 1452 m 1,12,13
 257 1486 257 1486 369 1503 c 128,-1,14
 481 1520 481 1520 586 1520 c 0,15,16
 838 1520 838 1520 973 1409.5 c 128,-1,17
 1108 1299 1108 1299 1108 1094 c 0,18,19
 1108 892 1108 892 977.5 775.5 c 128,-1,20
 847 659 847 659 602 641 c 1,21,-1
 602 436 l 1,22,-1
 463 436 l 1,23,-1
 463 735 l 1,24,25
 603 778 603 778 668 870 c 128,-1,26
 733 962 733 962 733 1116 c 0,27,28
 733 1260 733 1260 672 1333.5 c 128,-1,29
 611 1407 611 1407 492 1407 c 0,30,31
 382 1407 382 1407 322.5 1341 c 128,-1,32
 263 1275 263 1275 254 1145 c 1,33,-1
 133 1145 l 1,34,-1
 133 1452 l 1,12,13
EndSplineSet
EndChar
StartChar: at
Encoding: 64 64 35
Width: 2048
Flags: W
Fore
1272 504 m 2,0,-1
 1272 580 l 2,1,2
 1272 709 1272 709 1210 787.5 c 128,-1,3
 1148 866 1148 866 1047 866 c 0,4,5
 948 866 948 866 887.5 778.5 c 128,-1,6
 827 691 827 691 827 543 c 0,7,8
 827 395 827 395 887.5 307 c 128,-1,9
 948 219 948 219 1047 219 c 0,10,11
 1148 219 1148 219 1210 296.5 c 128,-1,12
 1272 374 1272 374 1272 504 c 2,0,-1
1272 240 m 1,13,14
 1228 168 1228 168 1156.5 130 c 128,-1,15
 1085 92 1085 92 995 92 c 0,16,17
 804 92 804 92 695 212 c 128,-1,18
 586 332 586 332 586 543 c 0,19,20
 586 754 586 754 695 873.5 c 128,-1,21
 804 993 804 993 995 993 c 0,22,23
 1085 993 1085 993 1156.5 955 c 128,-1,24
 1228 917 1228 917 1272 846 c 1,25,-1
 1272 971 l 1,26,-1
 1491 971 l 1,27,-1
 1491 229 l 1,28,29
 1634 268 1634 268 1712 385 c 128,-1,30
 1790 502 1790 502 1790 678 c 0,31,32
 1790 821 1790 821 1735 938 c 128,-1,33
 1680 1055 1680 1055 1567 1151 c 0,34,35
 1475 1229 1475 1229 1351 1271 c 128,-1,36
 1227 1313 1227 1313 1087 1313 c 0,37,38
 957 1313 957 1313 844 1278 c 128,-1,39
 731 1243 731 1243 637 1174 c 0,40,41
 495 1068 495 1068 418.5 904 c 128,-1,42
 342 740 342 740 342 543 c 0,43,44
 342 388 342 388 390.5 250.5 c 128,-1,45
 439 113 439 113 528 12 c 0,46,47
 635 -107 635 -107 774.5 -168 c 128,-1,48
 914 -229 914 -229 1077 -229 c 0,49,50
 1199 -229 1199 -229 1313 -195 c 128,-1,51
 1427 -161 1427 -161 1530 -94 c 1,52,-1
 1587 -188 l 1,53,54
 1459 -272 1459 -272 1320.5 -314 c 128,-1,55
 1182 -356 1182 -356 1038 -356 c 0,56,57
 844 -356 844 -356 682 -293 c 128,-1,58
 520 -230 520 -230 393 -104 c 0,59,60
 267 20 267 20 201 185.5 c 128,-1,61
 135 351 135 351 135 543 c 0,62,63
 135 735 135 735 201 900 c 128,-1,64
 267 1065 267 1065 393 1190 c 0,65,66
 521 1316 521 1316 684.5 1378 c 128,-1,67
 848 1440 848 1440 1053 1440 c 0,68,69
 1231 1440 1231 1440 1377 1391.5 c 128,-1,70
 1523 1343 1523 1343 1638 1245 c 1,71,72
 1771 1134 1771 1134 1837 992 c 128,-1,73
 1903 850 1903 850 1903 676 c 0,74,75
 1903 400 1903 400 1745 246 c 128,-1,76
 1587 92 1587 92 1303 92 c 2,77,-1
 1272 92 l 1,78,-1
 1272 240 l 1,13,14
EndSplineSet
EndChar
StartChar: A
Encoding: 65 65 36
Width: 1589
Flags: W
Fore
-16 0 m 1,0,-1
 -16 121 l 1,1,-1
 106 121 l 1,2,-1
 668 1493 l 1,3,-1
 907 1493 l 1,4,-1
 1470 121 l 1,5,-1
 1612 121 l 1,6,-1
 1612 0 l 1,7,-1
 913 0 l 1,8,-1
 913 121 l 1,9,-1
 1059 121 l 1,10,-1
 936 426 l 1,11,-1
 375 426 l 1,12,-1
 250 121 l 1,13,-1
 428 121 l 1,14,-1
 428 0 l 1,15,-1
 -16 0 l 1,0,-1
424 547 m 1,16,-1
 887 547 l 1,17,-1
 657 1118 l 1,18,-1
 424 547 l 1,16,-1
EndSplineSet
KernsSLIF: 357 -36 0 0 356 -112 0 0 253 -83 0 0 221 -102 0 0 64258 -36 0 0 64257 -36 0 0 376 -102 0 0 255 -83 0 0 8217 -243 0 0 8221 -243 0 0 121 -83 0 0 119 -83 0 0 118 -83 0 0 116 -36 0 0 102 -36 0 0 89 -102 0 0 87 -102 0 0 86 -149 0 0 84 -112 0 0
EndChar
StartChar: B
Encoding: 66 66 37
Width: 1731
Flags: W
Fore
96 0 m 1,0,-1
 96 121 l 1,1,-1
 287 121 l 1,2,-1
 287 1372 l 1,3,-1
 96 1372 l 1,4,-1
 96 1493 l 1,5,-1
 981 1493 l 2,6,7
 1254 1493 1254 1493 1391 1401 c 128,-1,8
 1528 1309 1528 1309 1528 1124 c 0,9,10
 1528 991 1528 991 1433.5 913 c 128,-1,11
 1339 835 1339 835 1153 815 c 1,12,13
 1378 794 1378 794 1498 695 c 128,-1,14
 1618 596 1618 596 1618 432 c 0,15,16
 1618 210 1618 210 1450.5 105 c 128,-1,17
 1283 0 1283 0 926 0 c 2,18,-1
 96 0 l 1,0,-1
672 870 m 1,19,-1
 803 870 l 2,20,21
 975 870 975 870 1058 932.5 c 128,-1,22
 1141 995 1141 995 1141 1124 c 0,23,24
 1141 1254 1141 1254 1060.5 1313 c 128,-1,25
 980 1372 980 1372 803 1372 c 2,26,-1
 672 1372 l 1,27,-1
 672 870 l 1,19,-1
672 121 m 1,28,-1
 815 121 l 2,29,30
 1006 121 1006 121 1098 197 c 128,-1,31
 1190 273 1190 273 1190 432 c 0,32,33
 1190 592 1190 592 1097 671 c 128,-1,34
 1004 750 1004 750 815 750 c 2,35,-1
 672 750 l 1,36,-1
 672 121 l 1,28,-1
EndSplineSet
KernsSLIF: 268 38 0 0 262 38 0 0 286 38 0 0 221 -36 0 0 210 38 0 0 212 38 0 0 211 38 0 0 376 -36 0 0 338 38 0 0 213 38 0 0 216 38 0 0 214 38 0 0 199 38 0 0 89 -36 0 0 79 38 0 0 71 38 0 0 67 38 0 0 45 38 0 0
EndChar
StartChar: C
Encoding: 67 67 38
Width: 1630
Flags: W
Fore
1526 426 m 1,0,1
 1467 195 1467 195 1314 83 c 128,-1,2
 1161 -29 1161 -29 903 -29 c 0,3,4
 525 -29 525 -29 305.5 179.5 c 128,-1,5
 86 388 86 388 86 745 c 0,6,7
 86 1103 86 1103 305.5 1311.5 c 128,-1,8
 525 1520 525 1520 903 1520 c 0,9,10
 1036 1520 1036 1520 1180 1488 c 128,-1,11
 1324 1456 1324 1456 1485 1391 c 1,12,-1
 1485 1024 l 1,13,-1
 1358 1024 l 1,14,15
 1319 1212 1319 1212 1216 1305.5 c 128,-1,16
 1113 1399 1113 1399 944 1399 c 0,17,18
 726 1399 726 1399 620 1238.5 c 128,-1,19
 514 1078 514 1078 514 745 c 0,20,21
 514 412 514 412 620 252 c 128,-1,22
 726 92 726 92 946 92 c 0,23,24
 1095 92 1095 92 1189.5 175 c 128,-1,25
 1284 258 1284 258 1327 426 c 1,26,-1
 1526 426 l 1,0,1
EndSplineSet
KernsSLIF: 46 -36 0 0 44 -36 0 0
EndChar
StartChar: D
Encoding: 68 68 39
Width: 1776
Flags: W
Fore
672 121 m 1,0,-1
 811 121 l 2,1,2
 1045 121 1045 121 1153.5 271 c 128,-1,3
 1262 421 1262 421 1262 748 c 0,4,5
 1262 1073 1262 1073 1154 1222.5 c 128,-1,6
 1046 1372 1046 1372 811 1372 c 2,7,-1
 672 1372 l 1,8,-1
 672 121 l 1,0,-1
96 0 m 1,9,-1
 96 121 l 1,10,-1
 287 121 l 1,11,-1
 287 1372 l 1,12,-1
 96 1372 l 1,13,-1
 96 1493 l 1,14,-1
 862 1493 l 2,15,16
 1264 1493 1264 1493 1477 1301 c 128,-1,17
 1690 1109 1690 1109 1690 748 c 0,18,19
 1690 385 1690 385 1476.5 192.5 c 128,-1,20
 1263 0 1263 0 862 0 c 2,21,-1
 96 0 l 1,9,-1
EndSplineSet
KernsSLIF: 86 -36 0 0 46 -73 0 0 45 38 0 0 44 -73 0 0
EndChar
StartChar: E
Encoding: 69 69 40
Width: 1561
Flags: W
Fore
96 0 m 1,0,-1
 96 121 l 1,1,-1
 287 121 l 1,2,-1
 287 1372 l 1,3,-1
 96 1372 l 1,4,-1
 96 1493 l 1,5,-1
 1438 1493 l 1,6,-1
 1438 1141 l 1,7,-1
 1300 1141 l 1,8,-1
 1300 1356 l 1,9,-1
 672 1356 l 1,10,-1
 672 877 l 1,11,-1
 1063 877 l 1,12,-1
 1063 1067 l 1,13,-1
 1200 1067 l 1,14,-1
 1200 551 l 1,15,-1
 1063 551 l 1,16,-1
 1063 741 l 1,17,-1
 672 741 l 1,18,-1
 672 137 l 1,19,-1
 1319 137 l 1,20,-1
 1319 352 l 1,21,-1
 1456 352 l 1,22,-1
 1456 0 l 1,23,-1
 96 0 l 1,0,-1
EndSplineSet
KernsSLIF: 45 38 0 0
EndChar
StartChar: F
Encoding: 70 70 41
Width: 1454
Flags: W
Fore
96 0 m 1,0,-1
 96 121 l 1,1,-1
 287 121 l 1,2,-1
 287 1372 l 1,3,-1
 96 1372 l 1,4,-1
 96 1493 l 1,5,-1
 1427 1493 l 1,6,-1
 1427 1141 l 1,7,-1
 1290 1141 l 1,8,-1
 1290 1356 l 1,9,-1
 674 1356 l 1,10,-1
 674 877 l 1,11,-1
 1053 877 l 1,12,-1
 1053 1067 l 1,13,-1
 1190 1067 l 1,14,-1
 1190 551 l 1,15,-1
 1053 551 l 1,16,-1
 1053 741 l 1,17,-1
 674 741 l 1,18,-1
 674 121 l 1,19,-1
 909 121 l 1,20,-1
 909 0 l 1,21,-1
 96 0 l 1,0,-1
EndSplineSet
KernsSLIF: 252 -36 0 0 229 -112 0 0 230 -112 0 0 59 -73 0 0 242 -112 0 0 45 -92 0 0 46 -206 0 0 367 -36 0 0 245 -112 0 0 235 -112 0 0 249 -36 0 0 44 -206 0 0 224 -112 0 0 195 -120 0 0 234 -112 0 0 341 -36 0 0 232 -112 0 0 196 -120 0 0 193 -120 0 0 251 -36 0 0 227 -112 0 0 194 -120 0 0 248 -112 0 0 244 -112 0 0 65 -120 0 0 97 -112 0 0 228 -112 0 0 246 -112 0 0 250 -36 0 0 225 -112 0 0 345 -36 0 0 226 -112 0 0 233 -112 0 0 283 -112 0 0 101 -112 0 0 339 -112 0 0 111 -112 0 0 114 -36 0 0 117 -36 0 0 192 -120 0 0 58 -73 0 0 243 -112 0 0
EndChar
StartChar: G
Encoding: 71 71 42
Width: 1749
Flags: W
Fore
1409 1024 m 1,0,1
 1364 1222 1364 1222 1259 1310.5 c 128,-1,2
 1154 1399 1154 1399 963 1399 c 0,3,4
 731 1399 731 1399 622.5 1241.5 c 128,-1,5
 514 1084 514 1084 514 745 c 0,6,7
 514 409 514 409 618 250.5 c 128,-1,8
 722 92 722 92 942 92 c 0,9,10
 1026 92 1026 92 1098 111 c 128,-1,11
 1170 130 1170 130 1229 168 c 1,12,-1
 1229 578 l 1,13,-1
 1049 578 l 1,14,-1
 1049 698 l 1,15,-1
 1587 698 l 1,16,-1
 1587 125 l 1,17,18
 1419 47 1419 47 1251.5 9 c 128,-1,19
 1084 -29 1084 -29 909 -29 c 0,20,21
 525 -29 525 -29 305.5 178 c 128,-1,22
 86 385 86 385 86 745 c 0,23,24
 86 1106 86 1106 305.5 1313 c 128,-1,25
 525 1520 525 1520 909 1520 c 0,26,27
 1069 1520 1069 1520 1224 1488 c 128,-1,28
 1379 1456 1379 1456 1536 1391 c 1,29,-1
 1536 1024 l 1,30,-1
 1409 1024 l 1,0,1
EndSplineSet
KernsSLIF: 46 -73 0 0 45 38 0 0 44 -73 0 0
EndChar
StartChar: H
Encoding: 72 72 43
Width: 1935
Flags: W
Fore
96 0 m 1,0,-1
 96 121 l 1,1,-1
 287 121 l 1,2,-1
 287 1372 l 1,3,-1
 96 1372 l 1,4,-1
 96 1493 l 1,5,-1
 864 1493 l 1,6,-1
 864 1372 l 1,7,-1
 672 1372 l 1,8,-1
 672 870 l 1,9,-1
 1266 870 l 1,10,-1
 1266 1372 l 1,11,-1
 1075 1372 l 1,12,-1
 1075 1493 l 1,13,-1
 1843 1493 l 1,14,-1
 1843 1372 l 1,15,-1
 1651 1372 l 1,16,-1
 1651 121 l 1,17,-1
 1843 121 l 1,18,-1
 1843 0 l 1,19,-1
 1075 0 l 1,20,-1
 1075 121 l 1,21,-1
 1266 121 l 1,22,-1
 1266 733 l 1,23,-1
 672 733 l 1,24,-1
 672 121 l 1,25,-1
 864 121 l 1,26,-1
 864 0 l 1,27,-1
 96 0 l 1,0,-1
EndSplineSet
EndChar
StartChar: I
Encoding: 73 73 44
Width: 958
Flags: W
Fore
96 0 m 1,0,-1
 96 121 l 1,1,-1
 287 121 l 1,2,-1
 287 1372 l 1,3,-1
 96 1372 l 1,4,-1
 96 1493 l 1,5,-1
 864 1493 l 1,6,-1
 864 1372 l 1,7,-1
 672 1372 l 1,8,-1
 672 121 l 1,9,-1
 864 121 l 1,10,-1
 864 0 l 1,11,-1
 96 0 l 1,0,-1
EndSplineSet
EndChar
StartChar: J
Encoding: 74 74 45
Width: 969
Flags: W
Fore
-150 -358 m 1,0,-1
 -150 -123 l 1,1,-1
 -20 -123 l 1,2,3
 -14 -217 -14 -217 24.5 -261 c 128,-1,4
 63 -305 63 -305 139 -305 c 0,5,6
 236 -305 236 -305 274.5 -230.5 c 128,-1,7
 313 -156 313 -156 313 49 c 2,8,-1
 313 1372 l 1,9,-1
 96 1372 l 1,10,-1
 96 1493 l 1,11,-1
 891 1493 l 1,12,-1
 891 1372 l 1,13,-1
 700 1372 l 1,14,-1
 700 41 l 2,15,16
 700 -202 700 -202 577.5 -314 c 128,-1,17
 455 -426 455 -426 188 -426 c 0,18,19
 105 -426 105 -426 21 -409 c 128,-1,20
 -63 -392 -63 -392 -150 -358 c 1,0,-1
EndSplineSet
KernsSLIF: 59 -83 0 0 58 -83 0 0 46 -159 0 0 44 -83 0 0
EndChar
StartChar: K
Encoding: 75 75 46
Width: 1780
Flags: W
Fore
96 0 m 1,0,-1
 96 121 l 1,1,-1
 287 121 l 1,2,-1
 287 1372 l 1,3,-1
 96 1372 l 1,4,-1
 96 1493 l 1,5,-1
 864 1493 l 1,6,-1
 864 1372 l 1,7,-1
 672 1372 l 1,8,-1
 672 827 l 1,9,-1
 1305 1372 l 1,10,-1
 1145 1372 l 1,11,-1
 1145 1493 l 1,12,-1
 1702 1493 l 1,13,-1
 1702 1372 l 1,14,-1
 1503 1372 l 1,15,-1
 967 911 l 1,16,-1
 1696 121 l 1,17,-1
 1843 121 l 1,18,-1
 1843 0 l 1,19,-1
 1337 0 l 1,20,-1
 672 725 l 1,21,-1
 672 121 l 1,22,-1
 864 121 l 1,23,-1
 864 0 l 1,24,-1
 96 0 l 1,0,-1
EndSplineSet
KernsSLIF: 367 -45 0 0 366 -73 0 0 283 -45 0 0 268 -55 0 0 262 -55 0 0 253 -92 0 0 221 -55 0 0 217 -73 0 0 219 -73 0 0 218 -73 0 0 210 -55 0 0 212 -55 0 0 211 -55 0 0 193 -83 0 0 194 -83 0 0 376 -55 0 0 255 -92 0 0 339 -45 0 0 338 -55 0 0 213 -55 0 0 195 -83 0 0 192 -83 0 0 248 -36 0 0 216 -55 0 0 252 -45 0 0 251 -45 0 0 249 -45 0 0 250 -45 0 0 245 -45 0 0 246 -45 0 0 244 -45 0 0 242 -45 0 0 243 -45 0 0 235 -45 0 0 234 -45 0 0 232 -45 0 0 233 -45 0 0 220 -73 0 0 214 -55 0 0 199 -55 0 0 196 -83 0 0 121 -92 0 0 117 -45 0 0 111 -45 0 0 101 -45 0 0 89 -55 0 0 87 -73 0 0 85 -73 0 0 79 -55 0 0 67 -55 0 0 65 -83 0 0 45 -149 0 0
EndChar
StartChar: L
Encoding: 76 76 47
Width: 1440
Flags: W
Fore
96 0 m 1,0,-1
 96 121 l 1,1,-1
 287 121 l 1,2,-1
 287 1372 l 1,3,-1
 96 1372 l 1,4,-1
 96 1493 l 1,5,-1
 864 1493 l 1,6,-1
 864 1372 l 1,7,-1
 672 1372 l 1,8,-1
 672 137 l 1,9,-1
 1260 137 l 1,10,-1
 1260 373 l 1,11,-1
 1395 373 l 1,12,-1
 1395 0 l 1,13,-1
 96 0 l 1,0,-1
EndSplineSet
KernsSLIF: 366 -112 0 0 356 -167 0 0 253 -73 0 0 221 -131 0 0 217 -112 0 0 219 -112 0 0 218 -112 0 0 376 -131 0 0 255 -73 0 0 8217 -491 0 0 8216 -491 0 0 8221 -491 0 0 8220 -491 0 0 220 -112 0 0 121 -73 0 0 89 -131 0 0 87 -139 0 0 86 -243 0 0 85 -112 0 0 84 -167 0 0
EndChar
StartChar: M
Encoding: 77 77 48
Width: 2267
Flags: W
Fore
86 0 m 1,0,-1
 86 121 l 1,1,-1
 276 121 l 1,2,-1
 276 1372 l 1,3,-1
 86 1372 l 1,4,-1
 86 1493 l 1,5,-1
 702 1493 l 1,6,-1
 1128 535 l 1,7,-1
 1556 1493 l 1,8,-1
 2171 1493 l 1,9,-1
 2171 1372 l 1,10,-1
 1980 1372 l 1,11,-1
 1980 121 l 1,12,-1
 2171 121 l 1,13,-1
 2171 0 l 1,14,-1
 1403 0 l 1,15,-1
 1403 121 l 1,16,-1
 1593 121 l 1,17,-1
 1593 1260 l 1,18,-1
 1130 219 l 1,19,-1
 877 219 l 1,20,-1
 416 1260 l 1,21,-1
 416 121 l 1,22,-1
 606 121 l 1,23,-1
 606 0 l 1,24,-1
 86 0 l 1,0,-1
EndSplineSet
EndChar
StartChar: N
Encoding: 78 78 49
Width: 1872
Flags: W
Fore
90 0 m 1,0,-1
 90 121 l 1,1,-1
 281 121 l 1,2,-1
 281 1372 l 1,3,-1
 90 1372 l 1,4,-1
 90 1493 l 1,5,-1
 557 1493 l 1,6,-1
 1458 436 l 1,7,-1
 1458 1372 l 1,8,-1
 1268 1372 l 1,9,-1
 1268 1493 l 1,10,-1
 1790 1493 l 1,11,-1
 1790 1372 l 1,12,-1
 1599 1372 l 1,13,-1
 1599 0 l 1,14,-1
 1337 0 l 1,15,-1
 422 1079 l 1,16,-1
 422 121 l 1,17,-1
 612 121 l 1,18,-1
 612 0 l 1,19,-1
 90 0 l 1,0,-1
EndSplineSet
KernsSLIF: 59 -73 0 0 58 -73 0 0 46 -131 0 0 44 -131 0 0
EndChar
StartChar: O
Encoding: 79 79 50
Width: 1784
Flags: W
Fore
891 92 m 0,0,1
 1082 92 1082 92 1175 253 c 128,-1,2
 1268 414 1268 414 1268 745 c 0,3,4
 1268 1077 1268 1077 1175 1238 c 128,-1,5
 1082 1399 1082 1399 891 1399 c 0,6,7
 701 1399 701 1399 607.5 1236.5 c 128,-1,8
 514 1074 514 1074 514 745 c 0,9,10
 514 417 514 417 607.5 254.5 c 128,-1,11
 701 92 701 92 891 92 c 0,0,1
891 -29 m 0,12,13
 514 -29 514 -29 300 177 c 128,-1,14
 86 383 86 383 86 745 c 0,15,16
 86 1107 86 1107 300.5 1313.5 c 128,-1,17
 515 1520 515 1520 891 1520 c 0,18,19
 1268 1520 1268 1520 1482 1314 c 128,-1,20
 1696 1108 1696 1108 1696 745 c 0,21,22
 1696 383 1696 383 1481.5 177 c 128,-1,23
 1267 -29 1267 -29 891 -29 c 0,12,13
EndSplineSet
KernsSLIF: 88 -36 0 0 86 -36 0 0 46 -120 0 0 45 75 0 0 44 -120 0 0
EndChar
StartChar: P
Encoding: 80 80 51
Width: 1540
Flags: W
Fore
96 0 m 1,0,-1
 96 121 l 1,1,-1
 287 121 l 1,2,-1
 287 1372 l 1,3,-1
 96 1372 l 1,4,-1
 96 1493 l 1,5,-1
 946 1493 l 2,6,7
 1195 1493 1195 1493 1342 1374.5 c 128,-1,8
 1489 1256 1489 1256 1489 1057 c 0,9,10
 1489 857 1489 857 1341.5 737.5 c 128,-1,11
 1194 618 1194 618 946 618 c 2,12,-1
 672 618 l 1,13,-1
 672 121 l 1,14,-1
 913 121 l 1,15,-1
 913 0 l 1,16,-1
 96 0 l 1,0,-1
672 739 m 1,17,-1
 784 739 l 2,18,19
 914 739 914 739 991.5 825.5 c 128,-1,20
 1069 912 1069 912 1069 1057 c 0,21,22
 1069 1201 1069 1201 992 1286.5 c 128,-1,23
 915 1372 915 1372 784 1372 c 2,24,-1
 672 1372 l 1,25,-1
 672 739 l 1,17,-1
EndSplineSet
KernsSLIF: 283 -55 0 0 193 -149 0 0 194 -149 0 0 8222 -264 0 0 8218 -264 0 0 339 -55 0 0 195 -149 0 0 192 -149 0 0 248 -55 0 0 230 -55 0 0 245 -55 0 0 246 -55 0 0 244 -55 0 0 242 -55 0 0 243 -55 0 0 235 -55 0 0 234 -55 0 0 232 -55 0 0 233 -55 0 0 229 -55 0 0 227 -55 0 0 228 -55 0 0 226 -55 0 0 224 -55 0 0 225 -55 0 0 196 -149 0 0 111 -55 0 0 101 -55 0 0 97 -55 0 0 65 -149 0 0 59 -73 0 0 58 -73 0 0 46 -339 0 0 45 -112 0 0 44 -264 0 0
EndChar
StartChar: Q
Encoding: 81 81 52
Width: 1784
Flags: W
Fore
885 -29 m 1,0,1
 507 -23 507 -23 296.5 181 c 128,-1,2
 86 385 86 385 86 745 c 0,3,4
 86 1107 86 1107 300.5 1313.5 c 128,-1,5
 515 1520 515 1520 891 1520 c 0,6,7
 1268 1520 1268 1520 1482 1314 c 128,-1,8
 1696 1108 1696 1108 1696 745 c 0,9,10
 1696 427 1696 427 1531.5 229 c 128,-1,11
 1367 31 1367 31 1063 -16 c 1,12,13
 1116 -73 1116 -73 1192 -98 c 128,-1,14
 1268 -123 1268 -123 1389 -123 c 2,15,-1
 1440 -123 l 1,16,-1
 1440 -369 l 1,17,-1
 1411 -369 l 2,18,19
 1221 -369 1221 -369 1094 -287 c 128,-1,20
 967 -205 967 -205 885 -29 c 1,0,1
891 92 m 0,21,22
 1082 92 1082 92 1175 253 c 128,-1,23
 1268 414 1268 414 1268 745 c 0,24,25
 1268 1077 1268 1077 1175 1238 c 128,-1,26
 1082 1399 1082 1399 891 1399 c 0,27,28
 701 1399 701 1399 607.5 1236.5 c 128,-1,29
 514 1074 514 1074 514 745 c 0,30,31
 514 417 514 417 607.5 254.5 c 128,-1,32
 701 92 701 92 891 92 c 0,21,22
EndSplineSet
KernsSLIF: 46 -102 0 0 45 75 0 0 44 -102 0 0
EndChar
StartChar: R
Encoding: 82 82 53
Width: 1702
Flags: W
Fore
1087 729 m 1,0,1
 1176 716 1176 716 1237 670 c 128,-1,2
 1298 624 1298 624 1343 537 c 2,3,-1
 1561 121 l 1,4,-1
 1714 121 l 1,5,-1
 1714 0 l 1,6,-1
 1223 0 l 1,7,-1
 985 451 l 1,8,9
 916 591 916 591 867.5 629.5 c 128,-1,10
 819 668 819 668 733 668 c 2,11,-1
 672 668 l 1,12,-1
 672 121 l 1,13,-1
 864 121 l 1,14,-1
 864 0 l 1,15,-1
 96 0 l 1,16,-1
 96 121 l 1,17,-1
 287 121 l 1,18,-1
 287 1372 l 1,19,-1
 96 1372 l 1,20,-1
 96 1493 l 1,21,-1
 948 1493 l 2,22,23
 1208 1493 1208 1493 1349.5 1388.5 c 128,-1,24
 1491 1284 1491 1284 1491 1092 c 0,25,26
 1491 936 1491 936 1390.5 845.5 c 128,-1,27
 1290 755 1290 755 1087 729 c 1,0,1
672 788 m 1,28,-1
 803 788 l 2,29,30
 943 788 943 788 1018.5 864 c 128,-1,31
 1094 940 1094 940 1094 1081 c 0,32,33
 1094 1222 1094 1222 1018.5 1297 c 128,-1,34
 943 1372 943 1372 803 1372 c 2,35,-1
 672 1372 l 1,36,-1
 672 788 l 1,28,-1
EndSplineSet
KernsSLIF: 356 -36 0 0 253 -36 0 0 221 -63 0 0 376 -63 0 0 255 -36 0 0 8217 -73 0 0 8221 -73 0 0 248 38 0 0 230 47 0 0 229 47 0 0 227 47 0 0 228 47 0 0 226 47 0 0 224 47 0 0 225 47 0 0 121 -36 0 0 97 47 0 0 89 -63 0 0 87 -45 0 0 86 -73 0 0 84 -36 0 0
EndChar
StartChar: S
Encoding: 83 83 54
Width: 1479
Flags: W
Fore
158 72 m 1,0,-1
 158 426 l 1,1,-1
 285 426 l 1,2,3
 314 258 314 258 422 175 c 128,-1,4
 530 92 530 92 721 92 c 0,5,6
 876 92 876 92 957 151 c 128,-1,7
 1038 210 1038 210 1038 324 c 0,8,9
 1038 414 1038 414 983 464 c 128,-1,10
 928 514 928 514 756 557 c 2,11,-1
 532 612 l 1,12,13
 313 668 313 668 224 767.5 c 128,-1,14
 135 867 135 867 135 1051 c 0,15,16
 135 1273 135 1273 282.5 1396.5 c 128,-1,17
 430 1520 430 1520 696 1520 c 0,18,19
 827 1520 827 1520 968.5 1498 c 128,-1,20
 1110 1476 1110 1476 1262 1432 c 1,21,-1
 1262 1102 l 1,22,-1
 1135 1102 l 1,23,24
 1106 1256 1106 1256 1008 1327.5 c 128,-1,25
 910 1399 910 1399 729 1399 c 0,26,27
 581 1399 581 1399 505.5 1347.5 c 128,-1,28
 430 1296 430 1296 430 1194 c 0,29,30
 430 1101 430 1101 482 1052.5 c 128,-1,31
 534 1004 534 1004 737 952 c 1,32,-1
 961 897 l 2,33,34
 1169 845 1169 845 1262.5 735 c 128,-1,35
 1356 625 1356 625 1356 432 c 0,36,37
 1356 206 1356 206 1200 88.5 c 128,-1,38
 1044 -29 1044 -29 741 -29 c 0,39,40
 595 -29 595 -29 451 -4 c 128,-1,41
 307 21 307 21 158 72 c 1,0,-1
EndSplineSet
KernsSLIF: 350 -45 0 0 352 -45 0 0 83 -45 0 0 46 -73 0 0 45 75 0 0 44 -73 0 0
EndChar
StartChar: T
Encoding: 84 84 55
Width: 1524
Flags: W
Fore
371 0 m 1,0,-1
 371 121 l 1,1,-1
 569 121 l 1,2,-1
 569 1356 l 1,3,-1
 160 1356 l 1,4,-1
 160 1120 l 1,5,-1
 23 1120 l 1,6,-1
 23 1493 l 1,7,-1
 1503 1493 l 1,8,-1
 1503 1120 l 1,9,-1
 1368 1120 l 1,10,-1
 1368 1356 l 1,11,-1
 956 1356 l 1,12,-1
 956 121 l 1,13,-1
 1155 121 l 1,14,-1
 1155 0 l 1,15,-1
 371 0 l 1,0,-1
EndSplineSet
KernsSLIF: 252 -188 0 0 229 -196 0 0 230 -159 0 0 59 -73 0 0 242 -235 0 0 255 -225 0 0 45 -339 0 0 8222 -149 0 0 367 -188 0 0 245 -235 0 0 235 -235 0 0 249 -188 0 0 44 -225 0 0 224 -196 0 0 195 -112 0 0 234 -235 0 0 231 -235 0 0 341 -149 0 0 232 -235 0 0 196 -112 0 0 193 -112 0 0 269 -235 0 0 345 -149 0 0 233 -235 0 0 251 -188 0 0 253 -225 0 0 8218 -149 0 0 227 -196 0 0 194 -112 0 0 248 -159 0 0 244 -235 0 0 353 -188 0 0 65 -112 0 0 283 -235 0 0 187 -149 0 0 351 -188 0 0 228 -196 0 0 119 -225 0 0 246 -235 0 0 250 -188 0 0 8250 -149 0 0 263 -235 0 0 225 -196 0 0 46 -264 0 0 84 -73 0 0 226 -196 0 0 101 -235 0 0 356 -73 0 0 97 -196 0 0 99 -235 0 0 171 -149 0 0 339 -159 0 0 8249 -149 0 0 111 -235 0 0 115 -188 0 0 114 -149 0 0 117 -188 0 0 192 -112 0 0 121 -225 0 0 58 -73 0 0 243 -235 0 0
EndChar
StartChar: U
Encoding: 85 85 56
Width: 1786
Flags: W
Fore
260 1372 m 1,0,-1
 70 1372 l 1,1,-1
 70 1493 l 1,2,-1
 838 1493 l 1,3,-1
 838 1372 l 1,4,-1
 647 1372 l 1,5,-1
 647 625 l 2,6,7
 647 346 647 346 734 234.5 c 128,-1,8
 821 123 821 123 1032 123 c 0,9,10
 1238 123 1238 123 1324.5 235.5 c 128,-1,11
 1411 348 1411 348 1411 625 c 2,12,-1
 1411 1372 l 1,13,-1
 1221 1372 l 1,14,-1
 1221 1493 l 1,15,-1
 1741 1493 l 1,16,-1
 1741 1372 l 1,17,-1
 1550 1372 l 1,18,-1
 1550 604 l 2,19,20
 1550 262 1550 262 1402 116.5 c 128,-1,21
 1254 -29 1254 -29 905 -29 c 0,22,23
 558 -29 558 -29 409 118 c 128,-1,24
 260 265 260 265 260 606 c 2,25,-1
 260 1372 l 1,0,-1
EndSplineSet
KernsSLIF: 193 -63 0 0 194 -63 0 0 195 -63 0 0 192 -63 0 0 196 -63 0 0 65 -63 0 0 59 -73 0 0 58 -73 0 0 46 -188 0 0 45 -36 0 0 44 -188 0 0
EndChar
StartChar: V
Encoding: 86 86 57
Width: 1589
Flags: W
Fore
1618 1493 m 1,0,-1
 1618 1372 l 1,1,-1
 1493 1372 l 1,2,-1
 930 0 l 1,3,-1
 692 0 l 1,4,-1
 129 1372 l 1,5,-1
 -12 1372 l 1,6,-1
 -12 1493 l 1,7,-1
 688 1493 l 1,8,-1
 688 1372 l 1,9,-1
 543 1372 l 1,10,-1
 946 383 l 1,11,-1
 1352 1372 l 1,12,-1
 1174 1372 l 1,13,-1
 1174 1493 l 1,14,-1
 1618 1493 l 1,0,-1
EndSplineSet
KernsSLIF: 367 -131 0 0 283 -188 0 0 253 -83 0 0 210 -36 0 0 212 -36 0 0 211 -36 0 0 193 -159 0 0 194 -159 0 0 8222 -264 0 0 8218 -264 0 0 255 -83 0 0 8217 38 0 0 8221 38 0 0 339 -188 0 0 338 -36 0 0 213 -36 0 0 195 -159 0 0 192 -159 0 0 248 -188 0 0 230 -188 0 0 216 -36 0 0 252 -131 0 0 251 -131 0 0 249 -131 0 0 250 -131 0 0 245 -188 0 0 246 -188 0 0 244 -188 0 0 242 -188 0 0 243 -188 0 0 235 -188 0 0 234 -188 0 0 232 -188 0 0 233 -188 0 0 229 -188 0 0 227 -188 0 0 228 -188 0 0 226 -188 0 0 224 -188 0 0 225 -188 0 0 214 -36 0 0 196 -159 0 0 121 -83 0 0 117 -131 0 0 111 -188 0 0 105 -36 0 0 101 -188 0 0 97 -188 0 0 79 -36 0 0 65 -159 0 0 59 -206 0 0 58 -206 0 0 46 -358 0 0 45 -149 0 0 44 -358 0 0
EndChar
StartChar: W
Encoding: 87 87 58
Width: 2300
Flags: W
Fore
1745 0 m 1,0,-1
 1487 0 l 1,1,-1
 1149 1087 l 1,2,-1
 811 0 l 1,3,-1
 553 0 l 1,4,-1
 127 1372 l 1,5,-1
 -18 1372 l 1,6,-1
 -18 1493 l 1,7,-1
 690 1493 l 1,8,-1
 690 1372 l 1,9,-1
 530 1372 l 1,10,-1
 815 455 l 1,11,-1
 1137 1493 l 1,12,-1
 1421 1493 l 1,13,-1
 1749 438 l 1,14,-1
 2040 1372 l 1,15,-1
 1862 1372 l 1,16,-1
 1862 1493 l 1,17,-1
 2324 1493 l 1,18,-1
 2324 1372 l 1,19,-1
 2171 1372 l 1,20,-1
 1745 0 l 1,0,-1
EndSplineSet
KernsSLIF: 252 -83 0 0 229 -178 0 0 230 -139 0 0 59 -139 0 0 242 -167 0 0 45 -112 0 0 8222 -225 0 0 367 -83 0 0 245 -167 0 0 235 -167 0 0 249 -83 0 0 44 -319 0 0 224 -178 0 0 195 -131 0 0 234 -167 0 0 341 -92 0 0 8221 38 0 0 232 -167 0 0 196 -131 0 0 193 -131 0 0 8217 38 0 0 251 -83 0 0 253 -45 0 0 8218 -225 0 0 227 -178 0 0 194 -131 0 0 248 -167 0 0 244 -167 0 0 65 -131 0 0 97 -178 0 0 228 -178 0 0 246 -167 0 0 250 -83 0 0 225 -178 0 0 345 -92 0 0 46 -319 0 0 226 -178 0 0 233 -167 0 0 283 -167 0 0 101 -167 0 0 105 -36 0 0 339 -167 0 0 255 -45 0 0 111 -167 0 0 114 -92 0 0 117 -83 0 0 192 -131 0 0 121 -45 0 0 58 -139 0 0 243 -167 0 0
EndChar
StartChar: X
Encoding: 88 88 59
Width: 1589
Flags: W
Fore
694 575 m 1,0,-1
 383 121 l 1,1,-1
 567 121 l 1,2,-1
 567 0 l 1,3,-1
 37 0 l 1,4,-1
 37 121 l 1,5,-1
 221 121 l 1,6,-1
 614 692 l 1,7,-1
 147 1372 l 1,8,-1
 10 1372 l 1,9,-1
 10 1493 l 1,10,-1
 752 1493 l 1,11,-1
 752 1372 l 1,12,-1
 588 1372 l 1,13,-1
 877 952 l 1,14,-1
 1163 1372 l 1,15,-1
 989 1372 l 1,16,-1
 989 1493 l 1,17,-1
 1509 1493 l 1,18,-1
 1509 1372 l 1,19,-1
 1325 1372 l 1,20,-1
 956 836 l 1,21,-1
 1446 121 l 1,22,-1
 1587 121 l 1,23,-1
 1587 0 l 1,24,-1
 842 0 l 1,25,-1
 842 121 l 1,26,-1
 1008 121 l 1,27,-1
 694 575 l 1,0,-1
EndSplineSet
KernsSLIF: 268 -36 0 0 262 -36 0 0 210 -36 0 0 212 -36 0 0 211 -36 0 0 193 -73 0 0 194 -73 0 0 338 -36 0 0 213 -36 0 0 195 -73 0 0 192 -73 0 0 216 -36 0 0 214 -36 0 0 199 -36 0 0 196 -73 0 0 79 -36 0 0 67 -36 0 0 65 -73 0 0 45 -73 0 0
EndChar
StartChar: Y
Encoding: 89 89 60
Width: 1462
Flags: W
Fore
352 0 m 1,0,-1
 352 121 l 1,1,-1
 553 121 l 1,2,-1
 553 618 l 1,3,-1
 109 1372 l 1,4,-1
 -18 1372 l 1,5,-1
 -18 1493 l 1,6,-1
 698 1493 l 1,7,-1
 698 1372 l 1,8,-1
 532 1372 l 1,9,-1
 868 803 l 1,10,-1
 1202 1372 l 1,11,-1
 1053 1372 l 1,12,-1
 1053 1493 l 1,13,-1
 1481 1493 l 1,14,-1
 1481 1372 l 1,15,-1
 1354 1372 l 1,16,-1
 940 670 l 1,17,-1
 940 121 l 1,18,-1
 1141 121 l 1,19,-1
 1141 0 l 1,20,-1
 352 0 l 1,0,-1
EndSplineSet
KernsSLIF: 367 -178 0 0 283 -178 0 0 268 -36 0 0 262 -36 0 0 193 -131 0 0 194 -131 0 0 339 -178 0 0 195 -131 0 0 192 -131 0 0 248 -178 0 0 230 -159 0 0 252 -178 0 0 251 -178 0 0 249 -178 0 0 250 -178 0 0 245 -178 0 0 246 -178 0 0 244 -178 0 0 242 -178 0 0 243 -178 0 0 235 -178 0 0 234 -178 0 0 232 -178 0 0 233 -178 0 0 229 -159 0 0 227 -159 0 0 228 -159 0 0 226 -159 0 0 224 -159 0 0 225 -159 0 0 199 -36 0 0 196 -131 0 0 117 -178 0 0 111 -178 0 0 105 -36 0 0 101 -178 0 0 97 -159 0 0 67 -36 0 0 65 -131 0 0 59 -253 0 0 58 -253 0 0 46 -264 0 0 45 -206 0 0 44 -264 0 0
EndChar
StartChar: Z
Encoding: 90 90 61
Width: 1495
Flags: W
Fore
76 0 m 1,0,-1
 76 141 l 1,1,-1
 967 1356 l 1,2,-1
 252 1356 l 1,3,-1
 252 1133 l 1,4,-1
 115 1133 l 1,5,-1
 115 1493 l 1,6,-1
 1411 1493 l 1,7,-1
 1411 1352 l 1,8,-1
 530 137 l 1,9,-1
 1284 137 l 1,10,-1
 1284 346 l 1,11,-1
 1421 346 l 1,12,-1
 1421 0 l 1,13,-1
 76 0 l 1,0,-1
EndSplineSet
KernsSLIF: 46 -36 0 0 44 -36 0 0
EndChar
StartChar: bracketleft
Encoding: 91 91 62
Width: 969
Flags: W
Fore
256 1556 m 1,0,-1
 823 1556 l 1,1,-1
 823 1436 l 1,2,-1
 610 1436 l 1,3,-1
 610 -150 l 1,4,-1
 823 -150 l 1,5,-1
 823 -270 l 1,6,-1
 256 -270 l 1,7,-1
 256 1556 l 1,0,-1
EndSplineSet
EndChar
StartChar: backslash
Encoding: 92 92 63
Width: 748
Flags: W
Fore
221 1493 m 1,0,-1
 748 -190 l 1,1,-1
 526 -190 l 1,2,-1
 0 1493 l 1,3,-1
 221 1493 l 1,0,-1
EndSplineSet
EndChar
StartChar: bracketright
Encoding: 93 93 64
Width: 969
Flags: W
Fore
713 1556 m 1,0,-1
 713 -270 l 1,1,-1
 145 -270 l 1,2,-1
 145 -150 l 1,3,-1
 358 -150 l 1,4,-1
 358 1436 l 1,5,-1
 145 1436 l 1,6,-1
 145 1556 l 1,7,-1
 713 1556 l 1,0,-1
EndSplineSet
EndChar
StartChar: asciicircum
Encoding: 94 94 65
Width: 1716
Flags: W
Fore
973 1493 m 1,0,-1
 1509 936 l 1,1,-1
 1296 936 l 1,2,-1
 858 1251 l 1,3,-1
 420 936 l 1,4,-1
 207 936 l 1,5,-1
 750 1493 l 1,6,-1
 973 1493 l 1,0,-1
EndSplineSet
EndChar
StartChar: underscore
Encoding: 95 95 66
Width: 1024
Flags: W
Fore
1024 -293 m 1,0,-1
 1024 -483 l 1,1,-1
 0 -483 l 1,2,-1
 0 -293 l 1,3,-1
 1024 -293 l 1,0,-1
EndSplineSet
EndChar
StartChar: grave
Encoding: 96 96 67
Width: 1024
Flags: W
Fore
420 1638 m 1,0,-1
 678 1262 l 1,1,-1
 514 1262 l 1,2,-1
 141 1638 l 1,3,-1
 420 1638 l 1,0,-1
EndSplineSet
EndChar
StartChar: a
Encoding: 97 97 68
Width: 1327
Flags: W
Fore
1128 653 m 2,0,-1
 1128 121 l 1,1,-1
 1280 121 l 1,2,-1
 1280 0 l 1,3,-1
 774 0 l 1,4,-1
 774 135 l 1,5,6
 704 51 704 51 618 11 c 128,-1,7
 532 -29 532 -29 422 -29 c 0,8,9
 259 -29 259 -29 171.5 58.5 c 128,-1,10
 84 146 84 146 84 309 c 0,11,12
 84 488 84 488 209.5 577 c 128,-1,13
 335 666 335 666 588 666 c 2,14,-1
 774 666 l 1,15,-1
 774 729 l 2,16,17
 774 858 774 858 713 919.5 c 128,-1,18
 652 981 652 981 524 981 c 0,19,20
 418 981 418 981 360.5 937.5 c 128,-1,21
 303 894 303 894 279 795 c 1,22,-1
 166 795 l 1,23,-1
 166 1024 l 1,24,25
 261 1058 261 1058 363 1075 c 128,-1,26
 465 1092 465 1092 578 1092 c 0,27,28
 863 1092 863 1092 995.5 986 c 128,-1,29
 1128 880 1128 880 1128 653 c 2,0,-1
774 334 m 2,30,-1
 774 547 l 1,31,-1
 641 547 l 2,32,33
 542 547 542 547 489 493 c 128,-1,34
 436 439 436 439 436 338 c 0,35,36
 436 237 436 237 474.5 187 c 128,-1,37
 513 137 513 137 592 137 c 0,38,39
 674 137 674 137 724 191 c 128,-1,40
 774 245 774 245 774 334 c 2,30,-1
EndSplineSet
EndChar
StartChar: b
Encoding: 98 98 69
Width: 1432
Flags: W
Fore
199 121 m 1,0,-1
 199 1436 l 1,1,-1
 47 1436 l 1,2,-1
 47 1556 l 1,3,-1
 553 1556 l 1,4,-1
 553 928 l 1,5,6
 598 1011 598 1011 674 1051.5 c 128,-1,7
 750 1092 750 1092 862 1092 c 0,8,9
 1089 1092 1089 1092 1219.5 942.5 c 128,-1,10
 1350 793 1350 793 1350 532 c 0,11,12
 1350 271 1350 271 1219.5 121 c 128,-1,13
 1089 -29 1089 -29 862 -29 c 0,14,15
 750 -29 750 -29 674 11.5 c 128,-1,16
 598 52 598 52 553 135 c 1,17,-1
 553 0 l 1,18,-1
 47 0 l 1,19,-1
 47 121 l 1,20,-1
 199 121 l 1,0,-1
553 479 m 2,21,22
 553 293 553 293 600.5 210 c 128,-1,23
 648 127 648 127 754 127 c 0,24,25
 863 127 863 127 907.5 215 c 128,-1,26
 952 303 952 303 952 532 c 0,27,28
 952 761 952 761 907.5 848.5 c 128,-1,29
 863 936 863 936 754 936 c 0,30,31
 648 936 648 936 600.5 853 c 128,-1,32
 553 770 553 770 553 584 c 2,33,-1
 553 479 l 2,21,22
EndSplineSet
EndChar
StartChar: c
Encoding: 99 99 70
Width: 1247
Flags: W
Fore
1155 332 m 1,0,1
 1117 150 1117 150 999.5 60.5 c 128,-1,2
 882 -29 882 -29 680 -29 c 0,3,4
 396 -29 396 -29 240 118 c 128,-1,5
 84 265 84 265 84 532 c 0,6,7
 84 796 84 796 238 944 c 128,-1,8
 392 1092 392 1092 666 1092 c 0,9,10
 777 1092 777 1092 890 1071 c 128,-1,11
 1003 1050 1003 1050 1120 1008 c 1,12,-1
 1120 713 l 1,13,-1
 1008 713 l 1,14,15
 992 848 992 848 929 913.5 c 128,-1,16
 866 979 866 979 752 979 c 0,17,18
 604 979 604 979 541.5 879 c 128,-1,19
 479 779 479 779 479 532 c 0,20,21
 479 291 479 291 540 187.5 c 128,-1,22
 601 84 601 84 739 84 c 0,23,24
 846 84 846 84 910.5 148 c 128,-1,25
 975 212 975 212 989 332 c 1,26,-1
 1155 332 l 1,0,1
EndSplineSet
EndChar
StartChar: d
Encoding: 100 100 71
Width: 1432
Flags: W
Fore
879 479 m 2,0,-1
 879 584 l 2,1,2
 879 770 879 770 831 853 c 128,-1,3
 783 936 783 936 678 936 c 0,4,5
 568 936 568 936 523.5 848.5 c 128,-1,6
 479 761 479 761 479 532 c 0,7,8
 479 303 479 303 524 215 c 128,-1,9
 569 127 569 127 678 127 c 0,10,11
 783 127 783 127 831 210 c 128,-1,12
 879 293 879 293 879 479 c 2,0,-1
1233 121 m 1,13,-1
 1384 121 l 1,14,-1
 1384 0 l 1,15,-1
 879 0 l 1,16,-1
 879 135 l 1,17,18
 834 52 834 52 757.5 11.5 c 128,-1,19
 681 -29 681 -29 569 -29 c 0,20,21
 343 -29 343 -29 213.5 121 c 128,-1,22
 84 271 84 271 84 532 c 0,23,24
 84 794 84 794 213.5 943 c 128,-1,25
 343 1092 343 1092 569 1092 c 0,26,27
 681 1092 681 1092 757.5 1051.5 c 128,-1,28
 834 1011 834 1011 879 928 c 1,29,-1
 879 1436 l 1,30,-1
 727 1436 l 1,31,-1
 727 1556 l 1,32,-1
 1233 1556 l 1,33,-1
 1233 121 l 1,13,-1
EndSplineSet
EndChar
StartChar: e
Encoding: 101 101 72
Width: 1303
Flags: W
Fore
821 600 m 1,0,1
 821 810 821 810 782 894.5 c 128,-1,2
 743 979 743 979 649 979 c 0,3,4
 558 979 558 979 518.5 896 c 128,-1,5
 479 813 479 813 479 618 c 2,6,-1
 479 600 l 1,7,-1
 821 600 l 1,0,1
1210 481 m 1,8,-1
 479 481 l 1,9,-1
 479 473 l 2,10,11
 479 267 479 267 541 175.5 c 128,-1,12
 603 84 603 84 741 84 c 0,13,14
 856 84 856 84 927 145 c 128,-1,15
 998 206 998 206 1018 322 c 1,16,-1
 1184 322 l 1,17,18
 1141 141 1141 141 1013 56 c 128,-1,19
 885 -29 885 -29 655 -29 c 0,20,21
 379 -29 379 -29 231.5 116.5 c 128,-1,22
 84 262 84 262 84 532 c 0,23,24
 84 796 84 796 235 944 c 128,-1,25
 386 1092 386 1092 655 1092 c 0,26,27
 919 1092 919 1092 1060 936.5 c 128,-1,28
 1201 781 1201 781 1210 481 c 1,8,-1
EndSplineSet
EndChar
StartChar: f
Encoding: 102 102 73
Width: 881
Flags: W
Fore
991 1290 m 1,0,-1
 879 1290 l 1,1,2
 871 1368 871 1368 833.5 1406 c 128,-1,3
 796 1444 796 1444 727 1444 c 0,4,5
 647 1444 647 1444 611 1386.5 c 128,-1,6
 575 1329 575 1329 575 1200 c 2,7,-1
 575 1063 l 1,8,-1
 842 1063 l 1,9,-1
 842 942 l 1,10,-1
 575 942 l 1,11,-1
 575 121 l 1,12,-1
 780 121 l 1,13,-1
 780 0 l 1,14,-1
 70 0 l 1,15,-1
 70 121 l 1,16,-1
 221 121 l 1,17,-1
 221 942 l 1,18,-1
 63 942 l 1,19,-1
 63 1063 l 1,20,-1
 221 1063 l 1,21,-1
 221 1196 l 2,22,23
 221 1373 221 1373 334 1464.5 c 128,-1,24
 447 1556 447 1556 666 1556 c 0,25,26
 751 1556 751 1556 832 1546.5 c 128,-1,27
 913 1537 913 1537 991 1518 c 1,28,-1
 991 1290 l 1,0,-1
EndSplineSet
KernsSLIF: 8217 151 0 0 8221 151 0 0 8220 65 0 0 46 -73 0 0 45 -73 0 0 44 -45 0 0
EndChar
StartChar: g
Encoding: 103 103 74
Width: 1432
Flags: W
Fore
1233 942 m 1,0,-1
 1233 14 l 2,1,2
 1233 -210 1233 -210 1073.5 -332.5 c 128,-1,3
 914 -455 914 -455 623 -455 c 0,4,5
 517 -455 517 -455 408 -438.5 c 128,-1,6
 299 -422 299 -422 184 -389 c 1,7,-1
 184 -135 l 1,8,-1
 297 -135 l 1,9,10
 312 -240 312 -240 381.5 -291 c 128,-1,11
 451 -342 451 -342 580 -342 c 0,12,13
 744 -342 744 -342 811.5 -263.5 c 128,-1,14
 879 -185 879 -185 879 14 c 2,15,-1
 879 135 l 1,16,17
 834 52 834 52 757.5 11.5 c 128,-1,18
 681 -29 681 -29 569 -29 c 0,19,20
 343 -29 343 -29 213.5 121 c 128,-1,21
 84 271 84 271 84 532 c 0,22,23
 84 794 84 794 213.5 943 c 128,-1,24
 343 1092 343 1092 569 1092 c 0,25,26
 681 1092 681 1092 757.5 1051.5 c 128,-1,27
 834 1011 834 1011 879 928 c 1,28,-1
 879 1063 l 1,29,-1
 1384 1063 l 1,30,-1
 1384 942 l 1,31,-1
 1233 942 l 1,0,-1
879 584 m 2,32,33
 879 770 879 770 831 853 c 128,-1,34
 783 936 783 936 678 936 c 0,35,36
 568 936 568 936 523.5 848.5 c 128,-1,37
 479 761 479 761 479 532 c 0,38,39
 479 303 479 303 524 215 c 128,-1,40
 569 127 569 127 678 127 c 0,41,42
 783 127 783 127 831 210 c 128,-1,43
 879 293 879 293 879 479 c 2,44,-1
 879 584 l 2,32,33
EndSplineSet
EndChar
StartChar: h
Encoding: 104 104 75
Width: 1489
Flags: W
Fore
70 0 m 1,0,-1
 70 121 l 1,1,-1
 221 121 l 1,2,-1
 221 1436 l 1,3,-1
 63 1436 l 1,4,-1
 63 1556 l 1,5,-1
 575 1556 l 1,6,-1
 575 913 l 1,7,8
 639 1008 639 1008 721 1050 c 128,-1,9
 803 1092 803 1092 928 1092 c 0,10,11
 1107 1092 1107 1092 1198.5 986.5 c 128,-1,12
 1290 881 1290 881 1290 676 c 2,13,-1
 1290 121 l 1,14,-1
 1442 121 l 1,15,-1
 1442 0 l 1,16,-1
 807 0 l 1,17,-1
 807 121 l 1,18,-1
 936 121 l 1,19,-1
 936 686 l 2,20,21
 936 821 936 821 901.5 873.5 c 128,-1,22
 867 926 867 926 782 926 c 0,23,24
 675 926 675 926 625 847.5 c 128,-1,25
 575 769 575 769 575 598 c 2,26,-1
 575 121 l 1,27,-1
 705 121 l 1,28,-1
 705 0 l 1,29,-1
 70 0 l 1,0,-1
EndSplineSet
EndChar
StartChar: i
Encoding: 105 105 76
Width: 778
Flags: W
Fore
188 1364 m 0,0,1
 188 1445 188 1445 244 1500.5 c 128,-1,2
 300 1556 300 1556 381 1556 c 0,3,4
 460 1556 460 1556 515.5 1500.5 c 128,-1,5
 571 1445 571 1445 571 1364 c 0,6,7
 571 1285 571 1285 515.5 1229.5 c 128,-1,8
 460 1174 460 1174 381 1174 c 0,9,10
 300 1174 300 1174 244 1229 c 128,-1,11
 188 1284 188 1284 188 1364 c 0,0,1
575 121 m 1,12,-1
 727 121 l 1,13,-1
 727 0 l 1,14,-1
 70 0 l 1,15,-1
 70 121 l 1,16,-1
 221 121 l 1,17,-1
 221 942 l 1,18,-1
 70 942 l 1,19,-1
 70 1063 l 1,20,-1
 575 1063 l 1,21,-1
 575 121 l 1,12,-1
EndSplineSet
EndChar
StartChar: j
Encoding: 106 106 77
Width: 741
Flags: W
Fore
178 1364 m 0,0,1
 178 1445 178 1445 233.5 1500.5 c 128,-1,2
 289 1556 289 1556 371 1556 c 0,3,4
 449 1556 449 1556 505 1500 c 128,-1,5
 561 1444 561 1444 561 1364 c 0,6,7
 561 1285 561 1285 505.5 1229.5 c 128,-1,8
 450 1174 450 1174 371 1174 c 0,9,10
 290 1174 290 1174 234 1229 c 128,-1,11
 178 1284 178 1284 178 1364 c 0,0,1
219 942 m 1,12,-1
 68 942 l 1,13,-1
 68 1063 l 1,14,-1
 573 1063 l 1,15,-1
 573 -125 l 2,16,17
 573 -288 573 -288 457.5 -371.5 c 128,-1,18
 342 -455 342 -455 117 -455 c 0,19,20
 57 -455 57 -455 -11 -445 c 128,-1,21
 -79 -435 -79 -435 -152 -416 c 1,22,-1
 -152 -190 l 1,23,-1
 -39 -191 l 1,24,25
 -37 -271 -37 -271 -7.5 -306.5 c 128,-1,26
 22 -342 22 -342 88 -342 c 0,27,28
 161 -342 161 -342 190 -295 c 128,-1,29
 219 -248 219 -248 219 -125 c 2,30,-1
 219 942 l 1,12,-1
EndSplineSet
EndChar
StartChar: k
Encoding: 107 107 78
Width: 1419
Flags: W
Fore
709 0 m 1,0,-1
 70 0 l 1,1,-1
 70 121 l 1,2,-1
 221 121 l 1,3,-1
 221 1436 l 1,4,-1
 70 1436 l 1,5,-1
 70 1556 l 1,6,-1
 575 1556 l 1,7,-1
 575 557 l 1,8,-1
 1004 942 l 1,9,-1
 877 942 l 1,10,-1
 877 1063 l 1,11,-1
 1362 1063 l 1,12,-1
 1362 942 l 1,13,-1
 1165 942 l 1,14,-1
 891 696 l 1,15,-1
 1339 121 l 1,16,-1
 1454 121 l 1,17,-1
 1454 0 l 1,18,-1
 844 0 l 1,19,-1
 844 121 l 1,20,-1
 969 121 l 1,21,-1
 674 500 l 1,22,-1
 575 412 l 1,23,-1
 575 121 l 1,24,-1
 709 121 l 1,25,-1
 709 0 l 1,0,-1
EndSplineSet
KernsSLIF: 45 -83 0 0
EndChar
StartChar: l
Encoding: 108 108 79
Width: 778
Flags: W
Fore
575 121 m 1,0,-1
 727 121 l 1,1,-1
 727 0 l 1,2,-1
 70 0 l 1,3,-1
 70 121 l 1,4,-1
 221 121 l 1,5,-1
 221 1436 l 1,6,-1
 70 1436 l 1,7,-1
 70 1556 l 1,8,-1
 575 1556 l 1,9,-1
 575 121 l 1,0,-1
EndSplineSet
EndChar
StartChar: m
Encoding: 109 109 80
Width: 2167
Flags: W
Fore
1243 889 m 1,0,1
 1317 995 1317 995 1403 1043.5 c 128,-1,2
 1489 1092 1489 1092 1604 1092 c 0,3,4
 1787 1092 1787 1092 1877.5 988.5 c 128,-1,5
 1968 885 1968 885 1968 676 c 2,6,-1
 1968 121 l 1,7,-1
 2120 121 l 1,8,-1
 2120 0 l 1,9,-1
 1487 0 l 1,10,-1
 1487 121 l 1,11,-1
 1614 121 l 1,12,-1
 1614 623 l 2,13,14
 1614 822 1614 822 1583.5 874 c 128,-1,15
 1553 926 1553 926 1470 926 c 0,16,17
 1376 926 1376 926 1324 853.5 c 128,-1,18
 1272 781 1272 781 1272 647 c 2,19,-1
 1272 121 l 1,20,-1
 1399 121 l 1,21,-1
 1399 0 l 1,22,-1
 791 0 l 1,23,-1
 791 121 l 1,24,-1
 918 121 l 1,25,-1
 918 623 l 2,26,27
 918 822 918 822 887 874 c 128,-1,28
 856 926 856 926 774 926 c 0,29,30
 679 926 679 926 627 853.5 c 128,-1,31
 575 781 575 781 575 647 c 2,32,-1
 575 121 l 1,33,-1
 702 121 l 1,34,-1
 702 0 l 1,35,-1
 70 0 l 1,36,-1
 70 121 l 1,37,-1
 221 121 l 1,38,-1
 221 942 l 1,39,-1
 70 942 l 1,40,-1
 70 1063 l 1,41,-1
 575 1063 l 1,42,-1
 575 913 l 1,43,44
 637 1006 637 1006 717 1049 c 128,-1,45
 797 1092 797 1092 907 1092 c 0,46,47
 1037 1092 1037 1092 1118 1042.5 c 128,-1,48
 1199 993 1199 993 1243 889 c 1,0,1
EndSplineSet
EndChar
StartChar: n
Encoding: 110 110 81
Width: 1489
Flags: W
Fore
70 0 m 1,0,-1
 70 121 l 1,1,-1
 221 121 l 1,2,-1
 221 942 l 1,3,-1
 70 942 l 1,4,-1
 70 1063 l 1,5,-1
 575 1063 l 1,6,-1
 575 913 l 1,7,8
 639 1008 639 1008 721 1050 c 128,-1,9
 803 1092 803 1092 928 1092 c 0,10,11
 1107 1092 1107 1092 1198.5 986.5 c 128,-1,12
 1290 881 1290 881 1290 676 c 2,13,-1
 1290 121 l 1,14,-1
 1442 121 l 1,15,-1
 1442 0 l 1,16,-1
 807 0 l 1,17,-1
 807 121 l 1,18,-1
 936 121 l 1,19,-1
 936 686 l 2,20,21
 936 821 936 821 901.5 873.5 c 128,-1,22
 867 926 867 926 782 926 c 0,23,24
 675 926 675 926 625 847.5 c 128,-1,25
 575 769 575 769 575 598 c 2,26,-1
 575 121 l 1,27,-1
 705 121 l 1,28,-1
 705 0 l 1,29,-1
 70 0 l 1,0,-1
EndSplineSet
EndChar
StartChar: o
Encoding: 111 111 82
Width: 1366
Flags: W
Fore
684 84 m 0,0,1
 796 84 796 84 841.5 180 c 128,-1,2
 887 276 887 276 887 532 c 0,3,4
 887 788 887 788 842 883.5 c 128,-1,5
 797 979 797 979 684 979 c 0,6,7
 571 979 571 979 525 882.5 c 128,-1,8
 479 786 479 786 479 532 c 0,9,10
 479 278 479 278 525 181 c 128,-1,11
 571 84 571 84 684 84 c 0,0,1
684 -29 m 0,12,13
 403 -29 403 -29 243.5 120.5 c 128,-1,14
 84 270 84 270 84 532 c 0,15,16
 84 795 84 795 243.5 943.5 c 128,-1,17
 403 1092 403 1092 684 1092 c 0,18,19
 966 1092 966 1092 1125 943.5 c 128,-1,20
 1284 795 1284 795 1284 532 c 0,21,22
 1284 270 1284 270 1124.5 120.5 c 128,-1,23
 965 -29 965 -29 684 -29 c 0,12,13
EndSplineSet
KernsSLIF: 46 -36 0 0
EndChar
StartChar: p
Encoding: 112 112 83
Width: 1432
Flags: W
Fore
553 584 m 2,0,-1
 553 479 l 2,1,2
 553 293 553 293 600.5 210 c 128,-1,3
 648 127 648 127 754 127 c 0,4,5
 863 127 863 127 907.5 215 c 128,-1,6
 952 303 952 303 952 532 c 0,7,8
 952 761 952 761 907.5 848.5 c 128,-1,9
 863 936 863 936 754 936 c 0,10,11
 648 936 648 936 600.5 853 c 128,-1,12
 553 770 553 770 553 584 c 2,0,-1
199 942 m 1,13,-1
 47 942 l 1,14,-1
 47 1063 l 1,15,-1
 553 1063 l 1,16,-1
 553 928 l 1,17,18
 598 1011 598 1011 674 1051.5 c 128,-1,19
 750 1092 750 1092 862 1092 c 0,20,21
 1089 1092 1089 1092 1219.5 942.5 c 128,-1,22
 1350 793 1350 793 1350 532 c 0,23,24
 1350 271 1350 271 1219.5 121 c 128,-1,25
 1089 -29 1089 -29 862 -29 c 0,26,27
 750 -29 750 -29 674 11.5 c 128,-1,28
 598 52 598 52 553 135 c 1,29,-1
 553 -305 l 1,30,-1
 717 -305 l 1,31,-1
 717 -426 l 1,32,-1
 47 -426 l 1,33,-1
 47 -305 l 1,34,-1
 199 -305 l 1,35,-1
 199 942 l 1,13,-1
EndSplineSet
EndChar
StartChar: q
Encoding: 113 113 84
Width: 1432
Flags: W
Fore
1233 942 m 1,0,-1
 1233 -305 l 1,1,-1
 1384 -305 l 1,2,-1
 1384 -426 l 1,3,-1
 715 -426 l 1,4,-1
 715 -305 l 1,5,-1
 879 -305 l 1,6,-1
 879 135 l 1,7,8
 834 52 834 52 757.5 11.5 c 128,-1,9
 681 -29 681 -29 569 -29 c 0,10,11
 343 -29 343 -29 213.5 121 c 128,-1,12
 84 271 84 271 84 532 c 0,13,14
 84 794 84 794 213.5 943 c 128,-1,15
 343 1092 343 1092 569 1092 c 0,16,17
 681 1092 681 1092 757.5 1051.5 c 128,-1,18
 834 1011 834 1011 879 928 c 1,19,-1
 879 1063 l 1,20,-1
 1384 1063 l 1,21,-1
 1384 942 l 1,22,-1
 1233 942 l 1,0,-1
879 584 m 2,23,24
 879 770 879 770 831 853 c 128,-1,25
 783 936 783 936 678 936 c 0,26,27
 568 936 568 936 523.5 848.5 c 128,-1,28
 479 761 479 761 479 532 c 0,29,30
 479 303 479 303 524 215 c 128,-1,31
 569 127 569 127 678 127 c 0,32,33
 783 127 783 127 831 210 c 128,-1,34
 879 293 879 293 879 479 c 2,35,-1
 879 584 l 2,23,24
EndSplineSet
EndChar
StartChar: r
Encoding: 114 114 85
Width: 1079
Flags: W
Fore
1100 1075 m 1,0,-1
 1100 758 l 1,1,-1
 987 758 l 1,2,3
 981 843 981 843 941 884.5 c 128,-1,4
 901 926 901 926 825 926 c 0,5,6
 709 926 709 926 642 824 c 128,-1,7
 575 722 575 722 575 541 c 2,8,-1
 575 121 l 1,9,-1
 768 121 l 1,10,-1
 768 0 l 1,11,-1
 70 0 l 1,12,-1
 70 121 l 1,13,-1
 221 121 l 1,14,-1
 221 942 l 1,15,-1
 59 942 l 1,16,-1
 59 1063 l 1,17,-1
 575 1063 l 1,18,-1
 575 874 l 1,19,20
 627 985 627 985 712.5 1038.5 c 128,-1,21
 798 1092 798 1092 922 1092 c 0,22,23
 953 1092 953 1092 997.5 1087.5 c 128,-1,24
 1042 1083 1042 1083 1100 1075 c 1,0,-1
EndSplineSet
KernsSLIF: 8217 75 0 0 8216 75 0 0 8221 75 0 0 8220 75 0 0 46 -188 0 0 44 -149 0 0
EndChar
StartChar: s
Encoding: 115 115 86
Width: 1153
Flags: W
Fore
96 31 m 1,0,-1
 96 328 l 1,1,-1
 209 328 l 1,2,3
 223 209 223 209 298 146.5 c 128,-1,4
 373 84 373 84 502 84 c 0,5,6
 610 84 610 84 667.5 121.5 c 128,-1,7
 725 159 725 159 725 229 c 0,8,9
 725 293 725 293 688.5 328 c 128,-1,10
 652 363 652 363 547 389 c 2,11,-1
 401 426 l 2,12,13
 236 467 236 467 162 543.5 c 128,-1,14
 88 620 88 620 88 750 c 0,15,16
 88 923 88 923 208 1007.5 c 128,-1,17
 328 1092 328 1092 578 1092 c 0,18,19
 672 1092 672 1092 778.5 1076.5 c 128,-1,20
 885 1061 885 1061 1014 1028 c 1,21,-1
 1014 760 l 1,22,-1
 901 760 l 1,23,24
 892 869 892 869 823.5 924 c 128,-1,25
 755 979 755 979 627 979 c 0,26,27
 519 979 519 979 463.5 944.5 c 128,-1,28
 408 910 408 910 408 844 c 0,29,30
 408 790 408 790 440 759 c 128,-1,31
 472 728 472 728 555 707 c 2,32,-1
 700 670 l 2,33,34
 909 617 909 617 989 539 c 128,-1,35
 1069 461 1069 461 1069 322 c 0,36,37
 1069 142 1069 142 940.5 56.5 c 128,-1,38
 812 -29 812 -29 541 -29 c 0,39,40
 442 -29 442 -29 331 -14 c 128,-1,41
 220 1 220 1 96 31 c 1,0,-1
EndSplineSet
EndChar
StartChar: t
Encoding: 116 116 87
Width: 946
Flags: W
Fore
203 942 m 1,0,-1
 49 942 l 1,1,-1
 49 1063 l 1,2,-1
 203 1063 l 1,3,-1
 203 1393 l 1,4,-1
 557 1393 l 1,5,-1
 557 1063 l 1,6,-1
 852 1063 l 1,7,-1
 852 942 l 1,8,-1
 557 942 l 1,9,-1
 557 291 l 2,10,11
 557 152 557 152 579 118 c 128,-1,12
 601 84 601 84 659 84 c 0,13,14
 723 84 723 84 754 127 c 128,-1,15
 785 170 785 170 787 260 c 1,16,-1
 936 260 l 1,17,18
 927 100 927 100 848.5 35.5 c 128,-1,19
 770 -29 770 -29 578 -29 c 0,20,21
 359 -29 359 -29 281 39.5 c 128,-1,22
 203 108 203 108 203 291 c 2,23,-1
 203 942 l 1,0,-1
EndSplineSet
EndChar
StartChar: u
Encoding: 117 117 88
Width: 1489
Flags: W
Fore
1268 1063 m 1,0,-1
 1268 121 l 1,1,-1
 1419 121 l 1,2,-1
 1419 0 l 1,3,-1
 913 0 l 1,4,-1
 913 150 l 1,5,6
 850 55 850 55 768 13 c 128,-1,7
 686 -29 686 -29 561 -29 c 0,8,9
 382 -29 382 -29 290.5 76.5 c 128,-1,10
 199 182 199 182 199 387 c 2,11,-1
 199 942 l 1,12,-1
 47 942 l 1,13,-1
 47 1063 l 1,14,-1
 553 1063 l 1,15,-1
 553 442 l 2,16,17
 553 244 553 244 586 190.5 c 128,-1,18
 619 137 619 137 707 137 c 0,19,20
 814 137 814 137 863.5 216 c 128,-1,21
 913 295 913 295 913 467 c 2,22,-1
 913 942 l 1,23,-1
 784 942 l 1,24,-1
 784 1063 l 1,25,-1
 1268 1063 l 1,0,-1
EndSplineSet
EndChar
StartChar: v
Encoding: 118 118 89
Width: 1190
Flags: W
Fore
457 0 m 1,0,-1
 80 942 l 1,1,-1
 -37 942 l 1,2,-1
 -37 1063 l 1,3,-1
 573 1063 l 1,4,-1
 573 942 l 1,5,-1
 444 942 l 1,6,-1
 713 270 l 1,7,-1
 981 942 l 1,8,-1
 842 942 l 1,9,-1
 842 1063 l 1,10,-1
 1241 1063 l 1,11,-1
 1241 942 l 1,12,-1
 1118 942 l 1,13,-1
 741 0 l 1,14,-1
 457 0 l 1,0,-1
EndSplineSet
KernsSLIF: 8217 75 0 0 8216 75 0 0 8221 75 0 0 8220 75 0 0 46 -206 0 0 44 -167 0 0
EndChar
StartChar: w
Encoding: 119 119 90
Width: 1763
Flags: W
Fore
1104 1063 m 1,0,-1
 1346 354 l 1,1,-1
 1546 942 l 1,2,-1
 1407 942 l 1,3,-1
 1407 1063 l 1,4,-1
 1804 1063 l 1,5,-1
 1804 942 l 1,6,-1
 1679 942 l 1,7,-1
 1358 0 l 1,8,-1
 1114 0 l 1,9,-1
 889 666 l 1,10,-1
 662 0 l 1,11,-1
 420 0 l 1,12,-1
 98 942 l 1,13,-1
 -18 942 l 1,14,-1
 -18 1063 l 1,15,-1
 584 1063 l 1,16,-1
 584 942 l 1,17,-1
 459 942 l 1,18,-1
 655 367 l 1,19,-1
 893 1063 l 1,20,-1
 1104 1063 l 1,0,-1
EndSplineSet
KernsSLIF: 8217 75 0 0 8216 75 0 0 8221 75 0 0 8220 75 0 0 46 -206 0 0 44 -167 0 0
EndChar
StartChar: x
Encoding: 120 120 91
Width: 1221
Flags: W
Fore
719 678 m 1,0,-1
 907 942 l 1,1,-1
 776 942 l 1,2,-1
 776 1063 l 1,3,-1
 1190 1063 l 1,4,-1
 1190 942 l 1,5,-1
 1049 942 l 1,6,-1
 778 563 l 1,7,-1
 1094 121 l 1,8,-1
 1235 121 l 1,9,-1
 1235 0 l 1,10,-1
 559 0 l 1,11,-1
 559 121 l 1,12,-1
 696 121 l 1,13,-1
 496 401 l 1,14,-1
 295 121 l 1,15,-1
 438 121 l 1,16,-1
 438 0 l 1,17,-1
 0 0 l 1,18,-1
 0 121 l 1,19,-1
 152 121 l 1,20,-1
 434 518 l 1,21,-1
 129 942 l 1,22,-1
 10 942 l 1,23,-1
 10 1063 l 1,24,-1
 659 1063 l 1,25,-1
 659 942 l 1,26,-1
 530 942 l 1,27,-1
 719 678 l 1,0,-1
EndSplineSet
KernsSLIF: 45 -36 0 0
EndChar
StartChar: y
Encoding: 121 121 92
Width: 1190
Flags: W
Fore
639 -240 m 1,0,1
 591 -357 591 -357 523 -406 c 128,-1,2
 455 -455 455 -455 340 -455 c 0,3,4
 291 -455 291 -455 231 -444 c 128,-1,5
 171 -433 171 -433 100 -412 c 1,6,-1
 100 -190 l 1,7,-1
 213 -191 l 1,8,9
 216 -268 216 -268 249.5 -305 c 128,-1,10
 283 -342 283 -342 350 -342 c 0,11,12
 415 -342 415 -342 455 -306.5 c 128,-1,13
 495 -271 495 -271 535 -172 c 1,14,-1
 551 -135 l 1,15,-1
 88 942 l 1,16,-1
 -27 942 l 1,17,-1
 -27 1063 l 1,18,-1
 586 1063 l 1,19,-1
 586 942 l 1,20,-1
 459 942 l 1,21,-1
 729 313 l 1,22,-1
 981 942 l 1,23,-1
 840 942 l 1,24,-1
 840 1063 l 1,25,-1
 1239 1063 l 1,26,-1
 1239 942 l 1,27,-1
 1110 942 l 1,28,-1
 639 -240 l 1,0,1
EndSplineSet
KernsSLIF: 8217 75 0 0 8216 75 0 0 8221 75 0 0 8220 75 0 0 46 -235 0 0 44 -196 0 0
EndChar
StartChar: z
Encoding: 122 122 93
Width: 1163
Flags: W
Fore
72 0 m 1,0,-1
 72 121 l 1,1,-1
 682 946 l 1,2,-1
 223 946 l 1,3,-1
 223 764 l 1,4,-1
 104 764 l 1,5,-1
 104 1063 l 1,6,-1
 1094 1063 l 1,7,-1
 1094 944 l 1,8,-1
 483 119 l 1,9,-1
 975 119 l 1,10,-1
 975 311 l 1,11,-1
 1094 311 l 1,12,-1
 1094 0 l 1,13,-1
 72 0 l 1,0,-1
EndSplineSet
EndChar
StartChar: braceleft
Encoding: 123 123 94
Width: 1317
Flags: W
Fore
1133 -213 m 1,0,-1
 1133 -334 l 1,1,-1
 985 -334 l 2,2,3
 749 -334 749 -334 667 -309.5 c 128,-1,4
 585 -285 585 -285 535 -223 c 0,5,6
 506 -187 506 -187 493.5 -132 c 128,-1,7
 481 -77 481 -77 481 35 c 2,8,-1
 481 285 l 2,9,10
 481 436 481 436 427.5 493.5 c 128,-1,11
 374 551 374 551 233 551 c 2,12,-1
 172 551 l 1,13,-1
 172 672 l 1,14,-1
 233 672 l 2,15,16
 374 672 374 672 427.5 729.5 c 128,-1,17
 481 787 481 787 481 938 c 2,18,-1
 481 1188 l 2,19,20
 481 1300 481 1300 493.5 1354.5 c 128,-1,21
 506 1409 506 1409 535 1446 c 0,22,23
 585 1507 585 1507 667 1531.5 c 128,-1,24
 749 1556 749 1556 985 1556 c 2,25,-1
 1133 1556 l 1,26,-1
 1133 1436 l 1,27,-1
 1030 1436 l 2,28,29
 918 1436 918 1436 877 1389 c 128,-1,30
 836 1342 836 1342 836 1206 c 2,31,-1
 836 936 l 2,32,33
 836 777 836 777 786.5 709.5 c 128,-1,34
 737 642 737 642 608 612 c 1,35,36
 739 578 739 578 787.5 512 c 128,-1,37
 836 446 836 446 836 287 c 2,38,-1
 836 16 l 2,39,40
 836 -119 836 -119 877 -166 c 128,-1,41
 918 -213 918 -213 1030 -213 c 2,42,-1
 1133 -213 l 1,0,-1
EndSplineSet
EndChar
StartChar: bar
Encoding: 124 124 95
Width: 745
Flags: W
Fore
479 1565 m 1,0,-1
 479 -483 l 1,1,-1
 264 -483 l 1,2,-1
 264 1565 l 1,3,-1
 479 1565 l 1,0,-1
EndSplineSet
EndChar
StartChar: braceright
Encoding: 125 125 96
Width: 1317
Flags: W
Fore
186 -213 m 1,0,-1
 287 -213 l 2,1,2
 398 -213 398 -213 439.5 -166 c 128,-1,3
 481 -119 481 -119 481 16 c 2,4,-1
 481 287 l 2,5,6
 481 444 481 444 530 511 c 128,-1,7
 579 578 579 578 711 612 c 1,8,9
 581 642 581 642 531 710 c 128,-1,10
 481 778 481 778 481 936 c 2,11,-1
 481 1206 l 2,12,13
 481 1342 481 1342 439.5 1389 c 128,-1,14
 398 1436 398 1436 287 1436 c 2,15,-1
 186 1436 l 1,16,-1
 186 1556 l 1,17,-1
 332 1556 l 2,18,19
 568 1556 568 1556 650 1531.5 c 128,-1,20
 732 1507 732 1507 782 1446 c 0,21,22
 811 1409 811 1409 823.5 1354.5 c 128,-1,23
 836 1300 836 1300 836 1188 c 2,24,-1
 836 938 l 2,25,26
 836 787 836 787 889.5 729.5 c 128,-1,27
 943 672 943 672 1083 672 c 2,28,-1
 1145 672 l 1,29,-1
 1145 551 l 1,30,-1
 1083 551 l 2,31,32
 943 551 943 551 889.5 493.5 c 128,-1,33
 836 436 836 436 836 285 c 2,34,-1
 836 35 l 2,35,36
 836 -77 836 -77 823.5 -132 c 128,-1,37
 811 -187 811 -187 782 -223 c 0,38,39
 732 -285 732 -285 650 -309.5 c 128,-1,40
 568 -334 568 -334 332 -334 c 2,41,-1
 186 -334 l 1,42,-1
 186 -213 l 1,0,-1
EndSplineSet
EndChar
StartChar: asciitilde
Encoding: 126 126 97
Width: 1716
Flags: W
Fore
1499 831 m 1,0,-1
 1499 625 l 1,1,2
 1406 539 1406 539 1312.5 498 c 128,-1,3
 1219 457 1219 457 1118 457 c 0,4,5
 1023 457 1023 457 871 515 c 0,6,7
 854 521 854 521 846 524 c 0,8,9
 839 527 839 527 826 532 c 0,10,11
 654 598 654 598 557 598 c 0,12,13
 480 598 480 598 396.5 562 c 128,-1,14
 313 526 313 526 217 453 c 1,15,-1
 217 659 l 1,16,17
 313 746 313 746 405.5 786.5 c 128,-1,18
 498 827 498 827 598 827 c 0,19,20
 693 827 693 827 844 770 c 0,21,22
 862 763 862 763 870 760 c 2,23,-1
 885 754 l 2,24,25
 1058 686 1058 686 1159 686 c 0,26,27
 1236 686 1236 686 1319.5 722 c 128,-1,28
 1403 758 1403 758 1499 831 c 1,0,-1
EndSplineSet
EndChar
StartChar: exclamdown
Encoding: 161 161 163
Width: 899
Flags: W
Fore
639 1329 m 0,0,1
 639 1251 639 1251 583 1196 c 128,-1,2
 527 1141 527 1141 449 1141 c 0,3,4
 370 1141 370 1141 315 1196 c 128,-1,5
 260 1251 260 1251 260 1329 c 0,6,7
 260 1408 260 1408 315.5 1464 c 128,-1,8
 371 1520 371 1520 449 1520 c 0,9,10
 527 1520 527 1520 583 1463.5 c 128,-1,11
 639 1407 639 1407 639 1329 c 0,0,1
637 0 m 1,12,-1
 262 0 l 1,13,-1
 379 842 l 1,14,-1
 379 1032 l 1,15,-1
 518 1032 l 1,16,-1
 518 842 l 1,17,-1
 637 0 l 1,12,-1
EndSplineSet
EndChar
StartChar: cent
Encoding: 162 162 132
Width: 1425
Flags: W
Fore
739 94 m 1,0,-1
 739 969 l 1,1,2
 640 944 640 944 596.5 843.5 c 128,-1,3
 553 743 553 743 553 532 c 0,4,5
 553 321 553 321 596 221 c 128,-1,6
 639 121 639 121 739 94 c 1,0,-1
1233 332 m 1,7,8
 1201 175 1201 175 1106.5 85.5 c 128,-1,9
 1012 -4 1012 -4 860 -23 c 1,10,-1
 860 -299 l 1,11,-1
 739 -299 l 1,12,-1
 739 -29 l 1,13,14
 462 -23 462 -23 311 123.5 c 128,-1,15
 160 270 160 270 160 532 c 0,16,17
 160 794 160 794 311 939.5 c 128,-1,18
 462 1085 462 1085 739 1092 c 1,19,-1
 739 1356 l 1,20,-1
 860 1356 l 1,21,-1
 860 1087 l 1,22,23
 919 1083 919 1083 999.5 1064 c 128,-1,24
 1080 1045 1080 1045 1198 1008 c 1,25,-1
 1198 713 l 1,26,-1
 1085 713 l 1,27,28
 1070 839 1070 839 1015 903.5 c 128,-1,29
 960 968 960 968 860 979 c 1,30,-1
 860 88 l 1,31,32
 951 104 951 104 1003 165 c 128,-1,33
 1055 226 1055 226 1067 332 c 1,34,-1
 1233 332 l 1,7,8
EndSplineSet
EndChar
StartChar: sterling
Encoding: 163 163 133
Width: 1425
Flags: W
Fore
1247 1202 m 1,0,-1
 1127 1202 l 1,1,2
 1121 1299 1121 1299 1071.5 1353 c 128,-1,3
 1022 1407 1022 1407 938 1407 c 0,4,5
 821 1407 821 1407 770 1332.5 c 128,-1,6
 719 1258 719 1258 719 1083 c 2,7,-1
 719 815 l 1,8,-1
 1071 815 l 1,9,-1
 1071 694 l 1,10,-1
 719 694 l 1,11,-1
 719 137 l 1,12,-1
 1139 137 l 1,13,-1
 1139 365 l 1,14,-1
 1276 365 l 1,15,-1
 1276 0 l 1,16,-1
 147 0 l 1,17,-1
 147 121 l 1,18,-1
 340 121 l 1,19,-1
 340 694 l 1,20,-1
 147 694 l 1,21,-1
 147 815 l 1,22,-1
 340 815 l 1,23,-1
 340 1092 l 2,24,25
 340 1308 340 1308 473.5 1414 c 128,-1,26
 607 1520 607 1520 881 1520 c 0,27,28
 946 1520 946 1520 1036.5 1511 c 128,-1,29
 1127 1502 1127 1502 1247 1485 c 1,30,-1
 1247 1202 l 1,0,-1
EndSplineSet
EndChar
StartChar: currency
Encoding: 164 164 189
Width: 1303
Flags: W
Fore
653 422 m 0,0,1
 744 422 744 422 808 485.5 c 128,-1,2
 872 549 872 549 872 641 c 0,3,4
 872 733 872 733 808.5 796.5 c 128,-1,5
 745 860 745 860 653 860 c 0,6,7
 562 860 562 860 498 796.5 c 128,-1,8
 434 733 434 733 434 641 c 0,9,10
 434 548 434 548 497 485 c 128,-1,11
 560 422 560 422 653 422 c 0,0,1
436 268 m 1,12,-1
 227 61 l 1,13,-1
 76 215 l 1,14,-1
 285 424 l 1,15,16
 254 470 254 470 239.5 523.5 c 128,-1,17
 225 577 225 577 225 641 c 0,18,19
 225 704 225 704 240 758 c 128,-1,20
 255 812 255 812 285 858 c 1,21,-1
 76 1063 l 1,22,-1
 229 1221 l 1,23,-1
 436 1010 l 1,24,25
 484 1040 484 1040 538 1054.5 c 128,-1,26
 592 1069 592 1069 653 1069 c 0,27,28
 708 1069 708 1069 762.5 1054.5 c 128,-1,29
 817 1040 817 1040 874 1010 c 1,30,-1
 1079 1221 l 1,31,-1
 1231 1067 l 1,32,-1
 1022 862 l 1,33,34
 1052 806 1052 806 1066.5 750.5 c 128,-1,35
 1081 695 1081 695 1081 641 c 0,36,37
 1081 578 1081 578 1066.5 525.5 c 128,-1,38
 1052 473 1052 473 1022 426 c 1,39,-1
 1231 215 l 1,40,-1
 1075 61 l 1,41,-1
 868 272 l 1,42,43
 822 242 822 242 769 227.5 c 128,-1,44
 716 213 716 213 653 213 c 0,45,46
 595 213 595 213 541 227 c 128,-1,47
 487 241 487 241 436 268 c 1,12,-1
EndSplineSet
EndChar
StartChar: yen
Encoding: 165 165 150
Width: 1425
Flags: W
Fore
326 0 m 1,0,-1
 326 121 l 1,1,-1
 516 121 l 1,2,-1
 516 467 l 1,3,-1
 113 467 l 1,4,-1
 113 584 l 1,5,-1
 516 584 l 1,6,-1
 516 643 l 1,7,-1
 455 778 l 1,8,-1
 113 778 l 1,9,-1
 113 895 l 1,10,-1
 399 895 l 1,11,-1
 176 1372 l 1,12,-1
 39 1372 l 1,13,-1
 39 1493 l 1,14,-1
 733 1493 l 1,15,-1
 733 1372 l 1,16,-1
 563 1372 l 1,17,-1
 821 821 l 1,18,-1
 1077 1372 l 1,19,-1
 926 1372 l 1,20,-1
 926 1493 l 1,21,-1
 1362 1493 l 1,22,-1
 1362 1372 l 1,23,-1
 1227 1372 l 1,24,-1
 1006 895 l 1,25,-1
 1298 895 l 1,26,-1
 1298 778 l 1,27,-1
 948 778 l 1,28,-1
 895 662 l 1,29,-1
 895 584 l 1,30,-1
 1298 584 l 1,31,-1
 1298 467 l 1,32,-1
 895 467 l 1,33,-1
 895 121 l 1,34,-1
 1085 121 l 1,35,-1
 1085 0 l 1,36,-1
 326 0 l 1,0,-1
EndSplineSet
EndChar
StartChar: brokenbar
Encoding: 166 166 231
Width: 745
Flags: W
Fore
479 1432 m 1,0,-1
 479 674 l 1,1,-1
 264 674 l 1,2,-1
 264 1432 l 1,3,-1
 479 1432 l 1,0,-1
479 408 m 1,4,-1
 479 -350 l 1,5,-1
 264 -350 l 1,6,-1
 264 408 l 1,7,-1
 479 408 l 1,4,-1
EndSplineSet
EndChar
StartChar: section
Encoding: 167 167 134
Width: 1071
Flags: W
Fore
897 1475 m 1,0,-1
 897 1235 l 1,1,-1
 778 1235 l 1,2,3
 772 1321 772 1321 720 1364 c 128,-1,4
 668 1407 668 1407 571 1407 c 0,5,6
 490 1407 490 1407 444.5 1370 c 128,-1,7
 399 1333 399 1333 399 1266 c 0,8,9
 399 1219 399 1219 426 1186 c 128,-1,10
 453 1153 453 1153 543 1106 c 2,11,-1
 678 1034 l 1,12,13
 867 936 867 936 937.5 852 c 128,-1,14
 1008 768 1008 768 1008 653 c 0,15,16
 1008 549 1008 549 951 475 c 128,-1,17
 894 401 894 401 780 358 c 1,18,19
 863 311 863 311 901.5 247.5 c 128,-1,20
 940 184 940 184 940 94 c 0,21,22
 940 -43 940 -43 831 -119 c 128,-1,23
 722 -195 722 -195 522 -195 c 0,24,25
 439 -195 439 -195 348.5 -183.5 c 128,-1,26
 258 -172 258 -172 156 -150 c 1,27,-1
 156 90 l 1,28,-1
 274 90 l 1,29,30
 282 0 282 0 334 -41 c 128,-1,31
 386 -82 386 -82 492 -82 c 0,32,33
 579 -82 579 -82 625.5 -45 c 128,-1,34
 672 -8 672 -8 672 61 c 0,35,36
 672 108 672 108 645.5 141 c 128,-1,37
 619 174 619 174 528 221 c 2,38,-1
 393 293 l 2,39,40
 205 392 205 392 134 476 c 128,-1,41
 63 560 63 560 63 674 c 0,42,43
 63 777 63 777 120.5 850 c 128,-1,44
 178 923 178 923 293 967 c 1,45,46
 210 1013 210 1013 170.5 1077.5 c 128,-1,47
 131 1142 131 1142 131 1231 c 0,48,49
 131 1367 131 1367 240 1443.5 c 128,-1,50
 349 1520 349 1520 545 1520 c 0,51,52
 619 1520 619 1520 706 1508.5 c 128,-1,53
 793 1497 793 1497 897 1475 c 1,0,-1
395 901 m 1,54,55
 351 868 351 868 328 829 c 128,-1,56
 305 790 305 790 305 745 c 0,57,58
 305 684 305 684 350.5 633 c 128,-1,59
 396 582 396 582 506 524 c 2,60,-1
 674 436 l 1,61,62
 719 471 719 471 742.5 510.5 c 128,-1,63
 766 550 766 550 766 592 c 0,64,65
 766 652 766 652 719.5 703 c 128,-1,66
 673 754 673 754 561 813 c 2,67,-1
 395 901 l 1,54,55
EndSplineSet
EndChar
StartChar: dieresis
Encoding: 168 168 142
Width: 1024
Flags: W
Fore
141 1468 m 0,0,1
 141 1528 141 1528 185 1571 c 128,-1,2
 229 1614 229 1614 289 1614 c 0,3,4
 349 1614 349 1614 391.5 1571 c 128,-1,5
 434 1528 434 1528 434 1468 c 0,6,7
 434 1408 434 1408 391 1364.5 c 128,-1,8
 348 1321 348 1321 289 1321 c 0,9,10
 229 1321 229 1321 185 1365 c 128,-1,11
 141 1409 141 1409 141 1468 c 0,0,1
588 1468 m 0,12,13
 588 1528 588 1528 631.5 1571 c 128,-1,14
 675 1614 675 1614 735 1614 c 0,15,16
 795 1614 795 1614 839 1571 c 128,-1,17
 883 1528 883 1528 883 1468 c 0,18,19
 883 1409 883 1409 839 1365 c 128,-1,20
 795 1321 795 1321 735 1321 c 0,21,22
 675 1321 675 1321 631.5 1365 c 128,-1,23
 588 1409 588 1409 588 1468 c 0,12,13
EndSplineSet
Ligature: 0 1 'liga' space uni0308
EndChar
StartChar: copyright
Encoding: 169 169 139
Width: 2048
Flags: W
Fore
1024 1485 m 0,0,1
 1176 1485 1176 1485 1307.5 1430 c 128,-1,2
 1439 1375 1439 1375 1548 1266 c 0,3,4
 1657 1157 1657 1157 1711 1026 c 128,-1,5
 1765 895 1765 895 1765 741 c 0,6,7
 1765 589 1765 589 1711 458.5 c 128,-1,8
 1657 328 1657 328 1548 219 c 0,9,10
 1439 110 1439 110 1307.5 55 c 128,-1,11
 1176 0 1176 0 1024 0 c 0,12,13
 872 0 872 0 740.5 55 c 128,-1,14
 609 110 609 110 500 219 c 0,15,16
 391 328 391 328 337 458.5 c 128,-1,17
 283 589 283 589 283 741 c 0,18,19
 283 895 283 895 337 1026 c 128,-1,20
 391 1157 391 1157 500 1266 c 0,21,22
 609 1375 609 1375 740.5 1430 c 128,-1,23
 872 1485 872 1485 1024 1485 c 0,0,1
1024 1331 m 0,24,25
 903 1331 903 1331 799 1287.5 c 128,-1,26
 695 1244 695 1244 608 1157 c 0,27,28
 522 1071 522 1071 479 967.5 c 128,-1,29
 436 864 436 864 436 741 c 0,30,31
 436 619 436 619 479 515.5 c 128,-1,32
 522 412 522 412 608 326 c 0,33,34
 694 240 694 240 798.5 197 c 128,-1,35
 903 154 903 154 1024 154 c 0,36,37
 1147 154 1147 154 1250 196.5 c 128,-1,38
 1353 239 1353 239 1440 326 c 0,39,40
 1526 412 1526 412 1569 515.5 c 128,-1,41
 1612 619 1612 619 1612 741 c 0,42,43
 1612 864 1612 864 1569 967.5 c 128,-1,44
 1526 1071 1526 1071 1440 1157 c 0,45,46
 1352 1245 1352 1245 1248.5 1288 c 128,-1,47
 1145 1331 1145 1331 1024 1331 c 0,24,25
1391 580 m 1,48,49
 1364 441 1364 441 1272.5 371 c 128,-1,50
 1181 301 1181 301 1026 301 c 0,51,52
 838 301 838 301 722 422 c 128,-1,53
 606 543 606 543 606 741 c 0,54,55
 606 943 606 943 723 1063.5 c 128,-1,56
 840 1184 840 1184 1036 1184 c 0,57,58
 1115 1184 1115 1184 1195 1165.5 c 128,-1,59
 1275 1147 1275 1147 1362 1108 c 1,60,-1
 1362 885 l 1,61,-1
 1257 885 l 1,62,63
 1245 979 1245 979 1192.5 1032 c 128,-1,64
 1140 1085 1140 1085 1059 1085 c 0,65,66
 955 1085 955 1085 895.5 993.5 c 128,-1,67
 836 902 836 902 836 741 c 0,68,69
 836 580 836 580 895 489.5 c 128,-1,70
 954 399 954 399 1059 399 c 0,71,72
 1132 399 1132 399 1181 445 c 128,-1,73
 1230 491 1230 491 1253 580 c 1,74,-1
 1391 580 l 1,48,49
EndSplineSet
EndChar
StartChar: ordfeminine
Encoding: 170 170 157
Width: 997
Flags: W
Fore
113 639 m 1,0,-1
 911 639 l 1,1,-1
 911 504 l 1,2,-1
 113 504 l 1,3,-1
 113 639 l 1,0,-1
846 1212 m 2,4,-1
 846 850 l 1,5,-1
 961 850 l 1,6,-1
 961 756 l 1,7,-1
 582 756 l 1,8,-1
 582 848 l 1,9,10
 531 791 531 791 466.5 764 c 128,-1,11
 402 737 402 737 317 737 c 0,12,13
 194 737 194 737 127.5 798 c 128,-1,14
 61 859 61 859 61 973 c 0,15,16
 61 1101 61 1101 155.5 1164 c 128,-1,17
 250 1227 250 1227 442 1227 c 2,18,-1
 582 1227 l 1,19,-1
 582 1255 l 2,20,21
 582 1345 582 1345 535 1389.5 c 128,-1,22
 488 1434 488 1434 393 1434 c 0,23,24
 317 1434 317 1434 273 1401.5 c 128,-1,25
 229 1369 229 1369 219 1307 c 1,26,-1
 123 1307 l 1,27,-1
 123 1473 l 1,28,29
 196 1496 196 1496 273 1508 c 128,-1,30
 350 1520 350 1520 434 1520 c 0,31,32
 648 1520 648 1520 747 1446 c 128,-1,33
 846 1372 846 1372 846 1212 c 2,4,-1
582 1001 m 2,34,-1
 582 1133 l 1,35,-1
 481 1133 l 2,36,37
 409 1133 409 1133 367.5 1095.5 c 128,-1,38
 326 1058 326 1058 326 993 c 0,39,40
 326 931 326 931 356.5 897.5 c 128,-1,41
 387 864 387 864 444 864 c 0,42,43
 507 864 507 864 544.5 901 c 128,-1,44
 582 938 582 938 582 1001 c 2,34,-1
EndSplineSet
EndChar
StartChar: guillemotleft
Encoding: 171 171 169
Width: 1280
Flags: W
Fore
1087 1069 m 1,0,-1
 1087 922 l 1,1,-1
 848 600 l 1,2,-1
 1087 279 l 1,3,-1
 1087 131 l 1,4,-1
 618 516 l 1,5,-1
 618 684 l 1,6,-1
 1087 1069 l 1,0,-1
627 1069 m 1,7,-1
 627 922 l 1,8,-1
 387 600 l 1,9,-1
 627 279 l 1,10,-1
 627 131 l 1,11,-1
 158 516 l 1,12,-1
 158 684 l 1,13,-1
 627 1069 l 1,7,-1
EndSplineSet
KernsSLIF: 356 -149 0 0 84 -149 0 0 74 -73 0 0
EndChar
StartChar: logicalnot
Encoding: 172 172 164
Width: 1716
Flags: W
Fore
217 903 m 1,0,-1
 1499 903 l 1,1,-1
 1499 287 l 1,2,-1
 1270 287 l 1,3,-1
 1270 676 l 1,4,-1
 217 676 l 1,5,-1
 217 903 l 1,0,-1
EndSplineSet
EndChar
StartChar: sfthyphen
Encoding: 173 173 256
Width: 850
Flags: W
Fore
111 684 m 1,0,-1
 739 684 l 1,1,-1
 739 414 l 1,2,-1
 111 414 l 1,3,-1
 111 684 l 1,0,-1
EndSplineSet
EndChar
StartChar: registered
Encoding: 174 174 138
Width: 2048
Flags: W
Fore
1166 754 m 1,0,1
 1205 743 1205 743 1235 716.5 c 128,-1,2
 1265 690 1265 690 1284 649 c 2,3,-1
 1384 434 l 1,4,-1
 1444 434 l 1,5,-1
 1444 352 l 1,6,-1
 1221 352 l 1,7,-1
 1104 606 l 1,8,9
 1072 674 1072 674 1042.5 695.5 c 128,-1,10
 1013 717 1013 717 958 717 c 2,11,-1
 932 717 l 1,12,-1
 932 434 l 1,13,-1
 1018 434 l 1,14,-1
 1018 352 l 1,15,-1
 649 352 l 1,16,-1
 649 434 l 1,17,-1
 735 434 l 1,18,-1
 735 1077 l 1,19,-1
 649 1077 l 1,20,-1
 649 1159 l 1,21,-1
 1102 1159 l 2,22,23
 1222 1159 1222 1159 1291 1104 c 128,-1,24
 1360 1049 1360 1049 1360 954 c 0,25,26
 1360 865 1360 865 1310.5 814 c 128,-1,27
 1261 763 1261 763 1166 754 c 1,0,1
932 799 m 1,28,-1
 999 799 l 2,29,30
 1078 799 1078 799 1120.5 835 c 128,-1,31
 1163 871 1163 871 1163 938 c 0,32,33
 1163 1005 1163 1005 1120.5 1041 c 128,-1,34
 1078 1077 1078 1077 999 1077 c 2,35,-1
 932 1077 l 1,36,-1
 932 799 l 1,28,-1
1024 1485 m 0,37,38
 1176 1485 1176 1485 1307.5 1430 c 128,-1,39
 1439 1375 1439 1375 1548 1266 c 0,40,41
 1657 1157 1657 1157 1711 1026 c 128,-1,42
 1765 895 1765 895 1765 741 c 0,43,44
 1765 589 1765 589 1711 458.5 c 128,-1,45
 1657 328 1657 328 1548 219 c 0,46,47
 1439 110 1439 110 1307.5 55 c 128,-1,48
 1176 0 1176 0 1024 0 c 0,49,50
 872 0 872 0 740.5 55 c 128,-1,51
 609 110 609 110 500 219 c 0,52,53
 391 328 391 328 337 458.5 c 128,-1,54
 283 589 283 589 283 741 c 0,55,56
 283 895 283 895 337 1026 c 128,-1,57
 391 1157 391 1157 500 1266 c 0,58,59
 609 1375 609 1375 740.5 1430 c 128,-1,60
 872 1485 872 1485 1024 1485 c 0,37,38
1024 1331 m 0,61,62
 903 1331 903 1331 799 1287.5 c 128,-1,63
 695 1244 695 1244 608 1157 c 0,64,65
 522 1071 522 1071 479 967.5 c 128,-1,66
 436 864 436 864 436 741 c 0,67,68
 436 619 436 619 479 515.5 c 128,-1,69
 522 412 522 412 608 326 c 0,70,71
 694 240 694 240 798.5 197 c 128,-1,72
 903 154 903 154 1024 154 c 0,73,74
 1147 154 1147 154 1250 196.5 c 128,-1,75
 1353 239 1353 239 1440 326 c 0,76,77
 1526 412 1526 412 1569 515.5 c 128,-1,78
 1612 619 1612 619 1612 741 c 0,79,80
 1612 864 1612 864 1569 967.5 c 128,-1,81
 1526 1071 1526 1071 1440 1157 c 0,82,83
 1352 1245 1352 1245 1248.5 1288 c 128,-1,84
 1145 1331 1145 1331 1024 1331 c 0,61,62
EndSplineSet
EndChar
StartChar: macron
Encoding: 175 175 217
Width: 1024
Flags: W
Fore
197 1548 m 1,0,-1
 827 1548 l 1,1,-1
 827 1360 l 1,2,-1
 197 1360 l 1,3,-1
 197 1548 l 1,0,-1
EndSplineSet
Ligature: 0 1 'liga' space uni0304
EndChar
StartChar: degree
Encoding: 176 176 131
Width: 1024
Flags: W
Fore
512 1534 m 0,0,1
 578 1534 578 1534 639 1508.5 c 128,-1,2
 700 1483 700 1483 748 1436 c 1,3,4
 795 1388 795 1388 819.5 1328 c 128,-1,5
 844 1268 844 1268 844 1200 c 0,6,7
 844 1133 844 1133 819.5 1072.5 c 128,-1,8
 795 1012 795 1012 750 967 c 0,9,10
 702 919 702 919 640 893.5 c 128,-1,11
 578 868 578 868 510 868 c 0,12,13
 369 868 369 868 273.5 963.5 c 128,-1,14
 178 1059 178 1059 178 1200 c 0,15,16
 178 1341 178 1341 274.5 1437.5 c 128,-1,17
 371 1534 371 1534 512 1534 c 0,0,1
512 1372 m 0,18,19
 440 1372 440 1372 390 1322 c 128,-1,20
 340 1272 340 1272 340 1200 c 0,21,22
 340 1128 340 1128 389.5 1079 c 128,-1,23
 439 1030 439 1030 512 1030 c 0,24,25
 584 1030 584 1030 634 1079.5 c 128,-1,26
 684 1129 684 1129 684 1200 c 0,27,28
 684 1272 684 1272 633.5 1322 c 128,-1,29
 583 1372 583 1372 512 1372 c 0,18,19
EndSplineSet
EndChar
StartChar: plusminus
Encoding: 177 177 147
Width: 1716
Flags: W
Fore
217 227 m 1,0,-1
 1499 227 l 1,1,-1
 1499 0 l 1,2,-1
 217 0 l 1,3,-1
 217 227 l 1,0,-1
973 1284 m 1,4,-1
 973 926 l 1,5,-1
 1499 926 l 1,6,-1
 1499 698 l 1,7,-1
 973 698 l 1,8,-1
 973 340 l 1,9,-1
 743 340 l 1,10,-1
 743 698 l 1,11,-1
 217 698 l 1,12,-1
 217 926 l 1,13,-1
 743 926 l 1,14,-1
 743 1284 l 1,15,-1
 973 1284 l 1,4,-1
EndSplineSet
EndChar
StartChar: twosuperior
Encoding: 178 178 241
Width: 897
Flags: W
Fore
188 1284 m 1,0,-1
 94 1284 l 1,1,-1
 94 1479 l 1,2,3
 166 1499 166 1499 241.5 1509.5 c 128,-1,4
 317 1520 317 1520 397 1520 c 0,5,6
 578 1520 578 1520 678 1456 c 128,-1,7
 778 1392 778 1392 778 1278 c 0,8,9
 778 1196 778 1196 723.5 1131.5 c 128,-1,10
 669 1067 669 1067 512 977 c 2,11,-1
 268 838 l 1,12,-1
 682 838 l 1,13,-1
 682 934 l 1,14,-1
 782 934 l 1,15,-1
 782 684 l 1,16,-1
 86 684 l 1,17,-1
 86 817 l 1,18,-1
 215 901 l 2,19,20
 402 1024 402 1024 452 1094 c 128,-1,21
 502 1164 502 1164 502 1257 c 0,22,23
 502 1341 502 1341 460.5 1388.5 c 128,-1,24
 419 1436 419 1436 346 1436 c 0,25,26
 283 1436 283 1436 239.5 1394.5 c 128,-1,27
 196 1353 196 1353 188 1284 c 1,0,-1
EndSplineSet
EndChar
StartChar: threesuperior
Encoding: 179 179 242
Width: 897
Flags: W
Fore
111 1481 m 1,0,1
 199 1500 199 1500 273.5 1510 c 128,-1,2
 348 1520 348 1520 412 1520 c 0,3,4
 592 1520 592 1520 685 1467.5 c 128,-1,5
 778 1415 778 1415 778 1315 c 0,6,7
 778 1243 778 1243 725.5 1196 c 128,-1,8
 673 1149 673 1149 571 1133 c 1,9,10
 691 1117 691 1117 753 1061.5 c 128,-1,11
 815 1006 815 1006 815 913 c 0,12,13
 815 791 815 791 713 729.5 c 128,-1,14
 611 668 611 668 410 668 c 0,15,16
 330 668 330 668 250 678.5 c 128,-1,17
 170 689 170 689 90 711 c 1,18,-1
 90 911 l 1,19,-1
 186 911 l 1,20,21
 193 831 193 831 236 791.5 c 128,-1,22
 279 752 279 752 358 752 c 0,23,24
 446 752 446 752 492.5 795 c 128,-1,25
 539 838 539 838 539 920 c 0,26,27
 539 1000 539 1000 490 1043.5 c 128,-1,28
 441 1087 441 1087 350 1087 c 2,29,-1
 309 1087 l 1,30,-1
 309 1171 l 1,31,-1
 340 1171 l 2,32,33
 421 1171 421 1171 464.5 1205 c 128,-1,34
 508 1239 508 1239 508 1303 c 0,35,36
 508 1366 508 1366 469 1401 c 128,-1,37
 430 1436 430 1436 358 1436 c 0,38,39
 292 1436 292 1436 252 1399.5 c 128,-1,40
 212 1363 212 1363 207 1299 c 1,41,-1
 111 1298 l 1,42,-1
 111 1481 l 1,0,1
EndSplineSet
EndChar
StartChar: acute
Encoding: 180 180 141
Width: 1024
Flags: W
Fore
604 1638 m 1,0,-1
 883 1638 l 1,1,-1
 510 1262 l 1,2,-1
 346 1262 l 1,3,-1
 604 1638 l 1,0,-1
EndSplineSet
LCarets: 0 65535 '    ' 1 0 
Ligature: 0 1 'liga' space acutecomb
EndChar
StartChar: mu
Encoding: 181 181 151
Width: 1499
Flags: W
Fore
1278 1063 m 1,0,-1
 1278 121 l 1,1,-1
 1430 121 l 1,2,-1
 1430 0 l 1,3,-1
 924 0 l 1,4,-1
 924 125 l 1,5,6
 869 42 869 42 814.5 6.5 c 128,-1,7
 760 -29 760 -29 686 -29 c 0,8,9
 655 -29 655 -29 625.5 -19 c 128,-1,10
 596 -9 596 -9 563 12 c 1,11,-1
 563 -305 l 1,12,-1
 715 -305 l 1,13,-1
 715 -426 l 1,14,-1
 57 -426 l 1,15,-1
 57 -305 l 1,16,-1
 209 -305 l 1,17,-1
 209 942 l 1,18,-1
 57 942 l 1,19,-1
 57 1063 l 1,20,-1
 563 1063 l 1,21,-1
 563 467 l 2,22,23
 563 247 563 247 597 192 c 128,-1,24
 631 137 631 137 719 137 c 0,25,26
 825 137 825 137 874.5 216.5 c 128,-1,27
 924 296 924 296 924 467 c 2,28,-1
 924 942 l 1,29,-1
 793 942 l 1,30,-1
 793 1063 l 1,31,-1
 1278 1063 l 1,0,-1
EndSplineSet
EndChar
StartChar: paragraph
Encoding: 182 182 136
Width: 1303
Flags: W
Fore
623 1493 m 2,0,-1
 1178 1493 l 1,1,-1
 1178 1368 l 1,2,-1
 1065 1368 l 1,3,-1
 1065 -197 l 1,4,-1
 913 -197 l 1,5,-1
 913 1368 l 1,6,-1
 750 1368 l 1,7,-1
 750 -197 l 1,8,-1
 598 -197 l 1,9,-1
 598 649 l 1,10,11
 383 666 383 666 265 776.5 c 128,-1,12
 147 887 147 887 147 1071 c 0,13,14
 147 1261 147 1261 277 1377 c 128,-1,15
 407 1493 407 1493 623 1493 c 2,0,-1
EndSplineSet
EndChar
StartChar: periodcentered
Encoding: 183 183 195
Width: 713
Flags: W
Fore
166 711 m 0,0,1
 166 789 166 789 222 845 c 128,-1,2
 278 901 278 901 356 901 c 0,3,4
 435 901 435 901 491 845 c 128,-1,5
 547 789 547 789 547 711 c 0,6,7
 547 633 547 633 491 577.5 c 128,-1,8
 435 522 435 522 356 522 c 0,9,10
 278 522 278 522 222 577.5 c 128,-1,11
 166 633 166 633 166 711 c 0,0,1
EndSplineSet
EndChar
StartChar: cedilla
Encoding: 184 184 221
Width: 1024
Flags: W
Fore
594 0 m 1,0,1
 656 -64 656 -64 685.5 -118.5 c 128,-1,2
 715 -173 715 -173 715 -225 c 0,3,4
 715 -311 715 -311 650.5 -356 c 128,-1,5
 586 -401 586 -401 465 -401 c 0,6,7
 417 -401 417 -401 366 -394.5 c 128,-1,8
 315 -388 315 -388 263 -375 c 1,9,-1
 262 -219 l 1,10,11
 307 -236 307 -236 349.5 -245 c 128,-1,12
 392 -254 392 -254 428 -254 c 0,13,14
 488 -254 488 -254 519.5 -230.5 c 128,-1,15
 551 -207 551 -207 551 -162 c 0,16,17
 551 -134 551 -134 534.5 -101 c 128,-1,18
 518 -68 518 -68 467 0 c 1,19,-1
 594 0 l 1,0,1
EndSplineSet
Ligature: 0 1 'liga' space uni0327
EndChar
StartChar: onesuperior
Encoding: 185 185 240
Width: 897
Flags: W
Fore
162 684 m 1,0,-1
 162 778 l 1,1,-1
 326 778 l 1,2,-1
 326 1391 l 1,3,-1
 143 1290 l 1,4,-1
 143 1395 l 1,5,-1
 365 1520 l 1,6,-1
 592 1520 l 1,7,-1
 592 778 l 1,8,-1
 756 778 l 1,9,-1
 756 684 l 1,10,-1
 162 684 l 1,0,-1
EndSplineSet
EndChar
StartChar: ordmasculine
Encoding: 186 186 158
Width: 1024
Flags: W
Fore
113 639 m 1,0,-1
 911 639 l 1,1,-1
 911 504 l 1,2,-1
 113 504 l 1,3,-1
 113 639 l 1,0,-1
512 823 m 0,4,5
 588 823 588 823 621.5 894 c 128,-1,6
 655 965 655 965 655 1128 c 0,7,8
 655 1292 655 1292 621.5 1363 c 128,-1,9
 588 1434 588 1434 512 1434 c 0,10,11
 435 1434 435 1434 402 1364 c 128,-1,12
 369 1294 369 1294 369 1128 c 0,13,14
 369 963 369 963 402 893 c 128,-1,15
 435 823 435 823 512 823 c 0,4,5
512 737 m 0,16,17
 300 737 300 737 180.5 841 c 128,-1,18
 61 945 61 945 61 1128 c 0,19,20
 61 1311 61 1311 180.5 1415.5 c 128,-1,21
 300 1520 300 1520 512 1520 c 0,22,23
 724 1520 724 1520 843.5 1415.5 c 128,-1,24
 963 1311 963 1311 963 1128 c 0,25,26
 963 945 963 945 843.5 841 c 128,-1,27
 724 737 724 737 512 737 c 0,16,17
EndSplineSet
EndChar
StartChar: guillemotright
Encoding: 187 187 170
Width: 1280
Flags: W
Fore
193 1069 m 1,0,-1
 662 684 l 1,1,-1
 662 516 l 1,2,-1
 193 131 l 1,3,-1
 193 279 l 1,4,-1
 432 600 l 1,5,-1
 193 922 l 1,6,-1
 193 1069 l 1,0,-1
653 1069 m 1,7,-1
 1122 684 l 1,8,-1
 1122 516 l 1,9,-1
 653 131 l 1,10,-1
 653 279 l 1,11,-1
 893 600 l 1,12,-1
 653 922 l 1,13,-1
 653 1069 l 1,7,-1
EndSplineSet
KernsSLIF: 356 -149 0 0 84 -149 0 0 74 -73 0 0
EndChar
StartChar: questiondown
Encoding: 191 191 162
Width: 1200
Flags: W
Fore
858 1329 m 0,0,1
 858 1251 858 1251 802 1196 c 128,-1,2
 746 1141 746 1141 668 1141 c 0,3,4
 589 1141 589 1141 534 1196 c 128,-1,5
 479 1251 479 1251 479 1329 c 0,6,7
 479 1408 479 1408 534.5 1464 c 128,-1,8
 590 1520 590 1520 668 1520 c 0,9,10
 746 1520 746 1520 802 1463.5 c 128,-1,11
 858 1407 858 1407 858 1329 c 0,0,1
1067 39 m 1,12,13
 943 5 943 5 831 -12 c 128,-1,14
 719 -29 719 -29 614 -29 c 0,15,16
 362 -29 362 -29 227 81.5 c 128,-1,17
 92 192 92 192 92 397 c 0,18,19
 92 599 92 599 222.5 715.5 c 128,-1,20
 353 832 353 832 598 850 c 1,21,-1
 598 1055 l 1,22,-1
 737 1055 l 1,23,-1
 737 756 l 1,24,25
 598 713 598 713 532.5 620.5 c 128,-1,26
 467 528 467 528 467 375 c 0,27,28
 467 230 467 230 528 157 c 128,-1,29
 589 84 589 84 709 84 c 0,30,31
 818 84 818 84 877.5 150 c 128,-1,32
 937 216 937 216 947 346 c 1,33,-1
 1067 346 l 1,34,-1
 1067 39 l 1,12,13
EndSplineSet
EndChar
StartChar: Aring
Encoding: 197 197 99
Width: 1589
Flags: W
Fore
657 1616 m 0,0,1
 657 1562 657 1562 696 1523.5 c 128,-1,2
 735 1485 735 1485 788 1485 c 0,3,4
 843 1485 843 1485 881.5 1523.5 c 128,-1,5
 920 1562 920 1562 920 1616 c 0,6,7
 920 1670 920 1670 881 1708.5 c 128,-1,8
 842 1747 842 1747 788 1747 c 0,9,10
 735 1747 735 1747 696 1708.5 c 128,-1,11
 657 1670 657 1670 657 1616 c 0,0,1
-16 0 m 1,12,-1
 -16 121 l 1,13,-1
 106 121 l 1,14,-1
 625 1384 l 1,15,16
 567 1421 567 1421 535.5 1481.5 c 128,-1,17
 504 1542 504 1542 504 1616 c 0,18,19
 504 1733 504 1733 587.5 1817 c 128,-1,20
 671 1901 671 1901 788 1901 c 0,21,22
 906 1901 906 1901 989.5 1817 c 128,-1,23
 1073 1733 1073 1733 1073 1616 c 0,24,25
 1073 1542 1073 1542 1042.5 1483 c 128,-1,26
 1012 1424 1012 1424 952 1384 c 1,27,-1
 1470 121 l 1,28,-1
 1612 121 l 1,29,-1
 1612 0 l 1,30,-1
 913 0 l 1,31,-1
 913 121 l 1,32,-1
 1059 121 l 1,33,-1
 936 426 l 1,34,-1
 375 426 l 1,35,-1
 250 121 l 1,36,-1
 428 121 l 1,37,-1
 428 0 l 1,38,-1
 -16 0 l 1,12,-1
424 547 m 1,39,-1
 887 547 l 1,40,-1
 659 1118 l 1,41,-1
 424 547 l 1,39,-1
EndSplineSet
Ligature: 0 0 'liga' A uni030A
EndChar
StartChar: AE
Encoding: 198 198 144
Width: 2118
Flags: W
Fore
401 545 m 1,0,-1
 866 545 l 1,1,-1
 866 1372 l 1,2,-1
 791 1372 l 1,3,-1
 401 545 l 1,0,-1
676 0 m 1,4,-1
 676 121 l 1,5,-1
 866 121 l 1,6,-1
 866 424 l 1,7,-1
 344 424 l 1,8,-1
 201 121 l 1,9,-1
 365 121 l 1,10,-1
 365 0 l 1,11,-1
 -63 0 l 1,12,-1
 -63 121 l 1,13,-1
 51 121 l 1,14,-1
 643 1372 l 1,15,-1
 442 1372 l 1,16,-1
 442 1493 l 1,17,-1
 1993 1493 l 1,18,-1
 1993 1141 l 1,19,-1
 1855 1141 l 1,20,-1
 1855 1356 l 1,21,-1
 1253 1356 l 1,22,-1
 1253 877 l 1,23,-1
 1620 877 l 1,24,-1
 1620 1067 l 1,25,-1
 1755 1067 l 1,26,-1
 1755 551 l 1,27,-1
 1620 551 l 1,28,-1
 1620 741 l 1,29,-1
 1253 741 l 1,30,-1
 1253 137 l 1,31,-1
 1876 137 l 1,32,-1
 1876 352 l 1,33,-1
 2011 352 l 1,34,-1
 2011 0 l 1,35,-1
 676 0 l 1,4,-1
EndSplineSet
KernsSLIF: 45 38 0 0
EndChar
StartChar: Eth
Encoding: 208 208 232
Width: 1790
Flags: W
Fore
686 121 m 1,0,-1
 825 121 l 2,1,2
 1059 121 1059 121 1166.5 270.5 c 128,-1,3
 1274 420 1274 420 1274 748 c 0,4,5
 1274 1074 1274 1074 1166.5 1223 c 128,-1,6
 1059 1372 1059 1372 825 1372 c 2,7,-1
 686 1372 l 1,8,-1
 686 850 l 1,9,-1
 1018 850 l 1,10,-1
 1018 713 l 1,11,-1
 686 713 l 1,12,-1
 686 121 l 1,0,-1
109 0 m 1,13,-1
 109 121 l 1,14,-1
 301 121 l 1,15,-1
 301 713 l 1,16,-1
 88 713 l 1,17,-1
 88 850 l 1,18,-1
 301 850 l 1,19,-1
 301 1372 l 1,20,-1
 109 1372 l 1,21,-1
 109 1493 l 1,22,-1
 877 1493 l 2,23,24
 1277 1493 1277 1493 1489.5 1301.5 c 128,-1,25
 1702 1110 1702 1110 1702 748 c 0,26,27
 1702 385 1702 385 1489.5 192.5 c 128,-1,28
 1277 0 1277 0 877 0 c 2,29,-1
 109 0 l 1,13,-1
EndSplineSet
KernsSLIF: 221 -36 0 0 193 -36 0 0 194 -36 0 0 376 -36 0 0 195 -36 0 0 192 -36 0 0 196 -36 0 0 89 -36 0 0 86 -36 0 0 65 -36 0 0 46 -73 0 0 45 75 0 0 44 -73 0 0
EndChar
StartChar: multiply
Encoding: 215 215 239
Width: 1716
Flags: W
Fore
1452 1081 m 1,0,-1
 1012 641 l 1,1,-1
 1452 201 l 1,2,-1
 1298 47 l 1,3,-1
 858 487 l 1,4,-1
 418 47 l 1,5,-1
 264 201 l 1,6,-1
 705 641 l 1,7,-1
 264 1081 l 1,8,-1
 418 1237 l 1,9,-1
 858 797 l 1,10,-1
 1298 1237 l 1,11,-1
 1452 1081 l 1,0,-1
EndSplineSet
EndChar
StartChar: Oslash
Encoding: 216 216 145
Width: 1784
Flags: W
Fore
535 479 m 1,0,-1
 1212 1157 l 1,1,2
 1170 1276 1170 1276 1088.5 1337.5 c 128,-1,3
 1007 1399 1007 1399 891 1399 c 0,4,5
 701 1399 701 1399 607.5 1236.5 c 128,-1,6
 514 1074 514 1074 514 745 c 0,7,8
 514 669 514 669 519 603 c 128,-1,9
 524 537 524 537 535 479 c 1,0,-1
571 334 m 1,10,11
 616 212 616 212 695.5 152 c 128,-1,12
 775 92 775 92 891 92 c 0,13,14
 1086 92 1086 92 1178 259 c 128,-1,15
 1270 426 1270 426 1270 784 c 0,16,17
 1270 849 1270 849 1264 899.5 c 128,-1,18
 1258 950 1258 950 1245 993 c 1,19,-1
 571 334 l 1,10,11
1516 1280 m 1,20,21
 1606 1176 1606 1176 1651 1042.5 c 128,-1,22
 1696 909 1696 909 1696 745 c 0,23,24
 1696 383 1696 383 1481.5 177 c 128,-1,25
 1267 -29 1267 -29 891 -29 c 0,26,27
 733 -29 733 -29 600.5 10 c 128,-1,28
 468 49 468 49 362 127 c 1,29,-1
 158 -78 l 1,30,-1
 68 12 l 1,31,-1
 268 213 l 1,32,33
 177 315 177 315 131.5 448.5 c 128,-1,34
 86 582 86 582 86 745 c 0,35,36
 86 1107 86 1107 300.5 1313.5 c 128,-1,37
 515 1520 515 1520 891 1520 c 0,38,39
 1051 1520 1051 1520 1184 1481.5 c 128,-1,40
 1317 1443 1317 1443 1421 1366 c 1,41,-1
 1624 1569 l 1,42,-1
 1714 1479 l 1,43,-1
 1516 1280 l 1,20,21
EndSplineSet
KernsSLIF: 88 -36 0 0 86 -36 0 0 46 -120 0 0 45 75 0 0 44 -120 0 0
EndChar
StartChar: Thorn
Encoding: 222 222 236
Width: 1550
Flags: W
Fore
96 0 m 1,0,-1
 96 121 l 1,1,-1
 287 121 l 1,2,-1
 287 1372 l 1,3,-1
 96 1372 l 1,4,-1
 96 1493 l 1,5,-1
 911 1493 l 1,6,-1
 911 1372 l 1,7,-1
 672 1372 l 1,8,-1
 672 1202 l 1,9,-1
 946 1202 l 2,10,11
 1195 1202 1195 1202 1342 1083.5 c 128,-1,12
 1489 965 1489 965 1489 766 c 0,13,14
 1489 567 1489 567 1341.5 447.5 c 128,-1,15
 1194 328 1194 328 946 328 c 2,16,-1
 672 328 l 1,17,-1
 672 121 l 1,18,-1
 913 121 l 1,19,-1
 913 0 l 1,20,-1
 96 0 l 1,0,-1
672 449 m 1,21,-1
 784 449 l 2,22,23
 914 449 914 449 991.5 535 c 128,-1,24
 1069 621 1069 621 1069 766 c 0,25,26
 1069 910 1069 910 992 995.5 c 128,-1,27
 915 1081 915 1081 784 1081 c 2,28,-1
 672 1081 l 1,29,-1
 672 449 l 1,21,-1
EndSplineSet
KernsSLIF: 46 -301 0 0 45 38 0 0 44 -264 0 0
EndChar
StartChar: germandbls
Encoding: 223 223 137
Width: 1556
Flags: W
Fore
997 1221 m 1,0,1
 990 1345 990 1345 942 1394.5 c 128,-1,2
 894 1444 894 1444 782 1444 c 0,3,4
 673 1444 673 1444 624 1384.5 c 128,-1,5
 575 1325 575 1325 575 1190 c 2,6,-1
 575 0 l 1,7,-1
 70 0 l 1,8,-1
 70 121 l 1,9,-1
 221 121 l 1,10,-1
 221 1147 l 2,11,12
 221 1348 221 1348 361 1452 c 128,-1,13
 501 1556 501 1556 770 1556 c 0,14,15
 1033 1556 1033 1556 1167.5 1450.5 c 128,-1,16
 1302 1345 1302 1345 1329 1116 c 1,17,-1
 1307 1116 l 2,18,19
 1152 1116 1152 1116 1072.5 1070.5 c 128,-1,20
 993 1025 993 1025 993 936 c 0,21,22
 993 896 993 896 1016 862.5 c 128,-1,23
 1039 829 1039 829 1122 768 c 2,24,-1
 1210 705 l 2,25,26
 1387 577 1387 577 1436 498 c 128,-1,27
 1485 419 1485 419 1485 311 c 0,28,29
 1485 151 1485 151 1360.5 61 c 128,-1,30
 1236 -29 1236 -29 1012 -29 c 0,31,32
 932 -29 932 -29 844.5 -14 c 128,-1,33
 757 1 757 1 657 31 c 1,34,-1
 657 289 l 1,35,-1
 778 289 l 1,36,37
 791 182 791 182 840 133 c 128,-1,38
 889 84 889 84 983 84 c 0,39,40
 1059 84 1059 84 1106 128 c 128,-1,41
 1153 172 1153 172 1153 244 c 0,42,43
 1153 349 1153 349 989 466 c 0,44,45
 968 481 968 481 957 489 c 2,46,-1
 868 553 l 2,47,48
 766 627 766 627 721 705.5 c 128,-1,49
 676 784 676 784 676 889 c 0,50,51
 676 1023 676 1023 756 1105.5 c 128,-1,52
 836 1188 836 1188 997 1221 c 1,0,1
EndSplineSet
EndChar
StartChar: ae
Encoding: 230 230 160
Width: 1997
Flags: W
Fore
1513 600 m 1,0,1
 1513 810 1513 810 1474 894.5 c 128,-1,2
 1435 979 1435 979 1341 979 c 0,3,4
 1250 979 1250 979 1210.5 896 c 128,-1,5
 1171 813 1171 813 1171 618 c 2,6,-1
 1171 600 l 1,7,-1
 1513 600 l 1,0,1
975 936 m 1,8,9
 1052 1014 1052 1014 1144.5 1053 c 128,-1,10
 1237 1092 1237 1092 1348 1092 c 0,11,12
 1611 1092 1611 1092 1752 937 c 128,-1,13
 1893 782 1893 782 1902 481 c 1,14,-1
 1171 481 l 1,15,-1
 1171 473 l 2,16,17
 1171 267 1171 267 1233 175.5 c 128,-1,18
 1295 84 1295 84 1434 84 c 0,19,20
 1548 84 1548 84 1618 144.5 c 128,-1,21
 1688 205 1688 205 1708 322 c 1,22,-1
 1876 322 l 1,23,24
 1833 141 1833 141 1705.5 56 c 128,-1,25
 1578 -29 1578 -29 1348 -29 c 0,26,27
 1214 -29 1214 -29 1110 9.5 c 128,-1,28
 1006 48 1006 48 928 127 c 1,29,30
 839 49 839 49 733.5 10 c 128,-1,31
 628 -29 628 -29 504 -29 c 0,32,33
 298 -29 298 -29 191 57.5 c 128,-1,34
 84 144 84 144 84 309 c 0,35,36
 84 489 84 489 211.5 577.5 c 128,-1,37
 339 666 339 666 598 666 c 2,38,-1
 784 666 l 1,39,-1
 784 729 l 2,40,41
 784 845 784 845 713.5 912 c 128,-1,42
 643 979 643 979 520 979 c 0,43,44
 417 979 417 979 360 935.5 c 128,-1,45
 303 892 303 892 279 795 c 1,46,-1
 166 795 l 1,47,-1
 166 1024 l 1,48,49
 261 1058 261 1058 363 1075 c 128,-1,50
 465 1092 465 1092 578 1092 c 0,51,52
 715 1092 715 1092 813 1053.5 c 128,-1,53
 911 1015 911 1015 975 936 c 1,8,9
784 330 m 2,54,-1
 784 547 l 1,55,-1
 651 547 l 2,56,57
 542 547 542 547 489 492 c 128,-1,58
 436 437 436 437 436 324 c 0,59,60
 436 211 436 211 475.5 163 c 128,-1,61
 515 115 515 115 604 115 c 0,62,63
 690 115 690 115 737 171 c 128,-1,64
 784 227 784 227 784 330 c 2,54,-1
EndSplineSet
EndChar
StartChar: eth
Encoding: 240 240 233
Width: 1366
Flags: W
Fore
895 1337 m 1,0,1
 1083 1188 1083 1188 1183.5 986.5 c 128,-1,2
 1284 785 1284 785 1284 557 c 0,3,4
 1284 282 1284 282 1125 126.5 c 128,-1,5
 966 -29 966 -29 684 -29 c 0,6,7
 409 -29 409 -29 246.5 117.5 c 128,-1,8
 84 264 84 264 84 508 c 0,9,10
 84 738 84 738 243.5 889 c 128,-1,11
 403 1040 403 1040 647 1040 c 0,12,13
 689 1040 689 1040 732 1034 c 128,-1,14
 775 1028 775 1028 819 1016 c 1,15,16
 798 1079 798 1079 765.5 1134 c 128,-1,17
 733 1189 733 1189 686 1241 c 1,18,-1
 367 1092 l 1,19,-1
 317 1192 l 1,20,-1
 596 1323 l 1,21,22
 544 1361 544 1361 467.5 1392 c 128,-1,23
 391 1423 391 1423 291 1446 c 1,24,-1
 319 1556 l 1,25,26
 459 1539 459 1539 576 1502.5 c 128,-1,27
 693 1466 693 1466 784 1411 c 1,28,-1
 1114 1565 l 1,29,-1
 1161 1462 l 1,30,-1
 895 1337 l 1,0,1
838 891 m 1,31,32
 791 910 791 910 753.5 919 c 128,-1,33
 716 928 716 928 684 928 c 0,34,35
 573 928 573 928 526 832.5 c 128,-1,36
 479 737 479 737 479 508 c 0,37,38
 479 274 479 274 526 179 c 128,-1,39
 573 84 573 84 684 84 c 0,40,41
 795 84 795 84 841 178 c 128,-1,42
 887 272 887 272 887 508 c 0,43,44
 887 615 887 615 874.5 710.5 c 128,-1,45
 862 806 862 806 838 891 c 1,31,32
EndSplineSet
KernsSLIF: 46 -36 0 0
EndChar
StartChar: divide
Encoding: 247 247 184
Width: 1716
Flags: W
Fore
709 1012 m 0,0,1
 709 1073 709 1073 753 1117 c 128,-1,2
 797 1161 797 1161 858 1161 c 0,3,4
 920 1161 920 1161 964 1117 c 128,-1,5
 1008 1073 1008 1073 1008 1012 c 0,6,7
 1008 950 1008 950 964 906 c 128,-1,8
 920 862 920 862 858 862 c 0,9,10
 797 862 797 862 753 906 c 128,-1,11
 709 950 709 950 709 1012 c 0,0,1
709 272 m 0,12,13
 709 334 709 334 753 378 c 128,-1,14
 797 422 797 422 858 422 c 0,15,16
 920 422 920 422 964 378 c 128,-1,17
 1008 334 1008 334 1008 272 c 0,18,19
 1008 211 1008 211 964 167 c 128,-1,20
 920 123 920 123 858 123 c 0,21,22
 797 123 797 123 753 167 c 128,-1,23
 709 211 709 211 709 272 c 0,12,13
217 756 m 1,24,-1
 1499 756 l 1,25,-1
 1499 528 l 1,26,-1
 217 528 l 1,27,-1
 217 756 l 1,24,-1
EndSplineSet
EndChar
StartChar: oslash
Encoding: 248 248 161
Width: 1366
Flags: W
Fore
481 416 m 1,0,-1
 868 801 l 1,1,2
 851 891 851 891 806 935 c 128,-1,3
 761 979 761 979 684 979 c 0,4,5
 574 979 574 979 527.5 883.5 c 128,-1,6
 481 788 481 788 481 553 c 2,7,-1
 481 416 l 1,0,-1
500 262 m 1,8,9
 515 173 515 173 561 128.5 c 128,-1,10
 607 84 607 84 684 84 c 0,11,12
 793 84 793 84 839 178 c 128,-1,13
 885 272 885 272 885 508 c 2,14,-1
 885 649 l 1,15,-1
 500 262 l 1,8,9
1151 913 m 1,16,17
 1217 841 1217 841 1250.5 745.5 c 128,-1,18
 1284 650 1284 650 1284 532 c 0,19,20
 1284 270 1284 270 1124.5 120.5 c 128,-1,21
 965 -29 965 -29 684 -29 c 0,22,23
 573 -29 573 -29 480 -4.5 c 128,-1,24
 387 20 387 20 307 70 c 1,25,-1
 135 -102 l 1,26,-1
 51 -16 l 1,27,-1
 215 147 l 1,28,29
 150 222 150 222 117 318.5 c 128,-1,30
 84 415 84 415 84 532 c 0,31,32
 84 795 84 795 243.5 943.5 c 128,-1,33
 403 1092 403 1092 684 1092 c 0,34,35
 800 1092 800 1092 894.5 1067 c 128,-1,36
 989 1042 989 1042 1061 993 c 1,37,-1
 1229 1161 l 1,38,-1
 1315 1075 l 1,39,-1
 1151 913 l 1,16,17
EndSplineSet
KernsSLIF: 46 -36 0 0
EndChar
StartChar: thorn
Encoding: 254 254 237
Width: 1432
Flags: W
Fore
553 584 m 2,0,-1
 553 479 l 2,1,2
 553 293 553 293 600.5 210 c 128,-1,3
 648 127 648 127 754 127 c 0,4,5
 863 127 863 127 907.5 215 c 128,-1,6
 952 303 952 303 952 532 c 0,7,8
 952 761 952 761 907.5 848.5 c 128,-1,9
 863 936 863 936 754 936 c 0,10,11
 648 936 648 936 600.5 853 c 128,-1,12
 553 770 553 770 553 584 c 2,0,-1
199 1436 m 1,13,-1
 47 1436 l 1,14,-1
 47 1556 l 1,15,-1
 553 1556 l 1,16,-1
 553 928 l 1,17,18
 598 1011 598 1011 674 1051.5 c 128,-1,19
 750 1092 750 1092 862 1092 c 0,20,21
 1089 1092 1089 1092 1219.5 942.5 c 128,-1,22
 1350 793 1350 793 1350 532 c 0,23,24
 1350 271 1350 271 1219.5 121 c 128,-1,25
 1089 -29 1089 -29 862 -29 c 0,26,27
 750 -29 750 -29 674 11.5 c 128,-1,28
 598 52 598 52 553 135 c 1,29,-1
 553 -305 l 1,30,-1
 717 -305 l 1,31,-1
 717 -426 l 1,32,-1
 47 -426 l 1,33,-1
 47 -305 l 1,34,-1
 199 -305 l 1,35,-1
 199 1436 l 1,13,-1
EndSplineSet
KernsSLIF: 46 -102 0 0 44 -36 0 0
EndChar
StartChar: Dcroat
Encoding: 272 272 257
Width: 1790
Flags: HW
Fore
686 121 m 1,0,-1
 825 121 l 2,1,2
 1059 121 1059 121 1166.5 270.5 c 128,-1,3
 1274 420 1274 420 1274 748 c 0,4,5
 1274 1074 1274 1074 1166.5 1223 c 128,-1,6
 1059 1372 1059 1372 825 1372 c 2,7,-1
 686 1372 l 1,8,-1
 686 850 l 1,9,-1
 1018 850 l 1,10,-1
 1018 713 l 1,11,-1
 686 713 l 1,12,-1
 686 121 l 1,0,-1
109 0 m 1,13,-1
 109 121 l 1,14,-1
 301 121 l 1,15,-1
 301 713 l 1,16,-1
 88 713 l 1,17,-1
 88 850 l 1,18,-1
 301 850 l 1,19,-1
 301 1372 l 1,20,-1
 109 1372 l 1,21,-1
 109 1493 l 1,22,-1
 877 1493 l 2,23,24
 1277 1493 1277 1493 1489.5 1301.5 c 128,-1,25
 1702 1110 1702 1110 1702 748 c 0,26,27
 1702 385 1702 385 1489.5 192.5 c 128,-1,28
 1277 0 1277 0 877 0 c 2,29,-1
 109 0 l 1,13,-1
EndSplineSet
EndChar
StartChar: dcroat
Encoding: 273 273 255
Width: 1432
Flags: W
Fore
879 479 m 2,0,-1
 879 584 l 2,1,2
 879 770 879 770 831 853 c 128,-1,3
 783 936 783 936 678 936 c 0,4,5
 568 936 568 936 523.5 848.5 c 128,-1,6
 479 761 479 761 479 532 c 0,7,8
 479 303 479 303 524 215 c 128,-1,9
 569 127 569 127 678 127 c 0,10,11
 783 127 783 127 831 210 c 128,-1,12
 879 293 879 293 879 479 c 2,0,-1
1233 121 m 1,13,-1
 1384 121 l 1,14,-1
 1384 0 l 1,15,-1
 879 0 l 1,16,-1
 879 135 l 1,17,18
 834 52 834 52 757.5 11.5 c 128,-1,19
 681 -29 681 -29 569 -29 c 0,20,21
 343 -29 343 -29 213.5 121 c 128,-1,22
 84 271 84 271 84 532 c 0,23,24
 84 794 84 794 213.5 943 c 128,-1,25
 343 1092 343 1092 569 1092 c 0,26,27
 681 1092 681 1092 757.5 1051.5 c 128,-1,28
 834 1011 834 1011 879 928 c 1,29,-1
 879 1223 l 1,30,-1
 555 1223 l 1,31,-1
 555 1343 l 1,32,-1
 879 1343 l 1,33,-1
 879 1436 l 1,34,-1
 727 1436 l 1,35,-1
 727 1556 l 1,36,-1
 1233 1556 l 1,37,-1
 1233 1343 l 1,38,-1
 1405 1343 l 1,39,-1
 1405 1223 l 1,40,-1
 1233 1223 l 1,41,-1
 1233 121 l 1,13,-1
EndSplineSet
EndChar
StartChar: dotlessi
Encoding: 305 305 214
Width: 778
Flags: W
Fore
575 121 m 1,0,-1
 727 121 l 1,1,-1
 727 0 l 1,2,-1
 70 0 l 1,3,-1
 70 121 l 1,4,-1
 221 121 l 1,5,-1
 221 942 l 1,6,-1
 70 942 l 1,7,-1
 70 1063 l 1,8,-1
 575 1063 l 1,9,-1
 575 121 l 1,0,-1
EndSplineSet
EndChar
StartChar: Lslash
Encoding: 321 321 225
Width: 1454
Flags: W
Fore
109 0 m 1,0,-1
 109 121 l 1,1,-1
 301 121 l 1,2,-1
 301 549 l 1,3,-1
 86 422 l 1,4,-1
 16 539 l 1,5,-1
 301 707 l 1,6,-1
 301 1372 l 1,7,-1
 109 1372 l 1,8,-1
 109 1493 l 1,9,-1
 877 1493 l 1,10,-1
 877 1372 l 1,11,-1
 686 1372 l 1,12,-1
 686 938 l 1,13,-1
 1026 1139 l 1,14,-1
 1096 1022 l 1,15,-1
 686 778 l 1,16,-1
 686 137 l 1,17,-1
 1274 137 l 1,18,-1
 1274 373 l 1,19,-1
 1409 373 l 1,20,-1
 1409 0 l 1,21,-1
 109 0 l 1,0,-1
EndSplineSet
KernsSLIF: 366 -112 0 0 356 -167 0 0 253 -73 0 0 221 -131 0 0 217 -112 0 0 219 -112 0 0 218 -112 0 0 376 -131 0 0 255 -73 0 0 8217 -311 0 0 8221 -301 0 0 220 -112 0 0 121 -73 0 0 89 -131 0 0 87 -139 0 0 86 -243 0 0 85 -112 0 0 84 -167 0 0
EndChar
StartChar: lslash
Encoding: 322 322 226
Width: 788
Flags: W
Fore
580 121 m 1,0,-1
 731 121 l 1,1,-1
 731 0 l 1,2,-1
 74 0 l 1,3,-1
 74 121 l 1,4,-1
 225 121 l 1,5,-1
 225 653 l 1,6,-1
 70 557 l 1,7,-1
 8 662 l 1,8,-1
 225 795 l 1,9,-1
 225 1436 l 1,10,-1
 74 1436 l 1,11,-1
 74 1556 l 1,12,-1
 580 1556 l 1,13,-1
 580 999 l 1,14,-1
 735 1096 l 1,15,-1
 799 991 l 1,16,-1
 580 858 l 1,17,-1
 580 121 l 1,0,-1
EndSplineSet
EndChar
StartChar: OE
Encoding: 338 338 176
Width: 2417
Flags: W
Fore
1165 121 m 1,0,-1
 1165 1372 l 1,1,-1
 1038 1372 l 2,2,3
 774 1372 774 1372 640 1215 c 128,-1,4
 506 1058 506 1058 506 748 c 0,5,6
 506 434 506 434 639 277.5 c 128,-1,7
 772 121 772 121 1038 121 c 2,8,-1
 1165 121 l 1,0,-1
2312 0 m 1,9,-1
 991 0 l 2,10,11
 784 0 784 0 648.5 26 c 128,-1,12
 513 52 513 52 412 109 c 1,13,14
 255 195 255 195 170.5 361 c 128,-1,15
 86 527 86 527 86 748 c 0,16,17
 86 968 86 968 170.5 1132.5 c 128,-1,18
 255 1297 255 1297 412 1384 c 1,19,20
 512 1442 512 1442 646 1467.5 c 128,-1,21
 780 1493 780 1493 991 1493 c 2,22,-1
 2294 1493 l 1,23,-1
 2294 1141 l 1,24,-1
 2157 1141 l 1,25,-1
 2157 1356 l 1,26,-1
 1552 1356 l 1,27,-1
 1552 877 l 1,28,-1
 1919 877 l 1,29,-1
 1919 1067 l 1,30,-1
 2056 1067 l 1,31,-1
 2056 551 l 1,32,-1
 1919 551 l 1,33,-1
 1919 741 l 1,34,-1
 1552 741 l 1,35,-1
 1552 137 l 1,36,-1
 2175 137 l 1,37,-1
 2175 352 l 1,38,-1
 2312 352 l 1,39,-1
 2312 0 l 1,9,-1
EndSplineSet
KernsSLIF: 45 38 0 0
EndChar
StartChar: oe
Encoding: 339 339 177
Width: 2105
Flags: W
Fore
684 84 m 0,0,1
 796 84 796 84 841.5 180 c 128,-1,2
 887 276 887 276 887 532 c 0,3,4
 887 788 887 788 842 883.5 c 128,-1,5
 797 979 797 979 684 979 c 0,6,7
 571 979 571 979 525 882.5 c 128,-1,8
 479 786 479 786 479 532 c 0,9,10
 479 278 479 278 525 181 c 128,-1,11
 571 84 571 84 684 84 c 0,0,1
1624 600 m 1,12,13
 1624 810 1624 810 1584.5 894.5 c 128,-1,14
 1545 979 1545 979 1452 979 c 0,15,16
 1362 979 1362 979 1323 897 c 128,-1,17
 1284 815 1284 815 1284 618 c 2,18,-1
 1284 600 l 1,19,-1
 1624 600 l 1,12,13
1085 936 m 1,20,21
 1160 1016 1160 1016 1253 1054 c 128,-1,22
 1346 1092 1346 1092 1464 1092 c 0,23,24
 1724 1092 1724 1092 1865 935 c 128,-1,25
 2006 778 2006 778 2015 482 c 1,26,-1
 1284 481 l 1,27,-1
 1284 473 l 2,28,29
 1284 266 1284 266 1345 175 c 128,-1,30
 1406 84 1406 84 1544 84 c 0,31,32
 1659 84 1659 84 1730 145 c 128,-1,33
 1801 206 1801 206 1821 322 c 1,34,-1
 1987 322 l 1,35,36
 1948 148 1948 148 1822 59.5 c 128,-1,37
 1696 -29 1696 -29 1487 -29 c 0,38,39
 1355 -29 1355 -29 1256 9.5 c 128,-1,40
 1157 48 1157 48 1085 127 c 1,41,42
 1015 50 1015 50 909 10.5 c 128,-1,43
 803 -29 803 -29 668 -29 c 0,44,45
 398 -29 398 -29 241 122 c 128,-1,46
 84 273 84 273 84 532 c 0,47,48
 84 795 84 795 243.5 943.5 c 128,-1,49
 403 1092 403 1092 684 1092 c 0,50,51
 811 1092 811 1092 910.5 1053.5 c 128,-1,52
 1010 1015 1010 1015 1085 936 c 1,20,21
EndSplineSet
EndChar
StartChar: florin
Encoding: 402 402 166
Width: 1425
Flags: W
Fore
561 1135 m 1,0,1
 584 1323 584 1323 700 1421.5 c 128,-1,2
 816 1520 816 1520 1016 1520 c 0,3,4
 1083 1520 1083 1520 1159.5 1508 c 128,-1,5
 1236 1496 1236 1496 1325 1473 c 1,6,-1
 1325 1239 l 1,7,-1
 1204 1239 l 1,8,9
 1204 1329 1204 1329 1178 1368 c 128,-1,10
 1152 1407 1152 1407 1092 1407 c 0,11,12
 1017 1407 1017 1407 982 1350 c 128,-1,13
 947 1293 947 1293 926 1112 c 1,14,-1
 891 821 l 1,15,-1
 1153 821 l 1,16,-1
 1153 700 l 1,17,-1
 877 700 l 1,18,-1
 786 -47 l 1,19,20
 765 -234 765 -234 647.5 -333 c 128,-1,21
 530 -432 530 -432 330 -432 c 0,22,23
 261 -432 261 -432 184.5 -420.5 c 128,-1,24
 108 -409 108 -409 20 -385 c 1,25,-1
 20 -152 l 1,26,-1
 141 -152 l 1,27,28
 141 -241 141 -241 168 -280 c 128,-1,29
 195 -319 195 -319 254 -319 c 0,30,31
 330 -319 330 -319 365 -262.5 c 128,-1,32
 400 -206 400 -206 422 -25 c 2,33,-1
 510 700 l 1,34,-1
 268 700 l 1,35,-1
 268 821 l 1,36,-1
 524 821 l 1,37,-1
 561 1135 l 1,0,1
EndSplineSet
EndChar
StartChar: uni0237
Encoding: 567 567 218
Width: 741
Flags: HW
Fore
219 942 m 1,12,-1
 68 942 l 1,13,-1
 68 1063 l 1,14,-1
 573 1063 l 1,15,-1
 573 -125 l 2,16,17
 573 -288 573 -288 457.5 -371.5 c 128,-1,18
 342 -455 342 -455 117 -455 c 0,19,20
 57 -455 57 -455 -11 -445 c 128,-1,21
 -79 -435 -79 -435 -152 -416 c 1,22,-1
 -152 -190 l 1,23,-1
 -39 -191 l 1,24,25
 -37 -271 -37 -271 -7.5 -306.5 c 128,-1,26
 22 -342 22 -342 88 -342 c 0,27,28
 161 -342 161 -342 190 -295 c 128,-1,29
 219 -248 219 -248 219 -125 c 2,30,-1
 219 942 l 1,12,-1
EndSplineSet
EndChar
StartChar: uni02BB
Encoding: 699 699 173
Width: 713
Flags: W
Fore
594 1384 m 1,0,1
 498 1317 498 1317 454 1222.5 c 128,-1,2
 410 1128 410 1128 410 989 c 2,3,-1
 410 934 l 1,4,-1
 141 934 l 1,5,6
 149 1141 149 1141 233 1282.5 c 128,-1,7
 317 1424 317 1424 489 1520 c 1,8,-1
 594 1384 l 1,0,1
EndSplineSet
KernsSLIF: 193 -282 0 0 194 -282 0 0 195 -282 0 0 192 -282 0 0 198 -253 0 0 196 -282 0 0 65 -282 0 0
EndChar
StartChar: circumflex
Encoding: 710 710 215
Width: 1024
Flags: W
Fore
391 1638 m 1,0,-1
 633 1638 l 1,1,-1
 889 1262 l 1,2,-1
 725 1262 l 1,3,-1
 512 1487 l 1,4,-1
 299 1262 l 1,5,-1
 135 1262 l 1,6,-1
 391 1638 l 1,0,-1
EndSplineSet
EndChar
StartChar: caron
Encoding: 711 711 224
Width: 1024
Flags: W
Fore
391 1262 m 1,0,-1
 135 1638 l 1,1,-1
 299 1638 l 1,2,-1
 512 1411 l 1,3,-1
 725 1638 l 1,4,-1
 889 1638 l 1,5,-1
 633 1262 l 1,6,-1
 391 1262 l 1,0,-1
EndSplineSet
EndChar
StartChar: breve
Encoding: 728 728 218
Width: 1024
Flags: W
Fore
170 1589 m 1,0,-1
 295 1589 l 1,1,2
 301 1516 301 1516 357 1477 c 128,-1,3
 413 1438 413 1438 512 1438 c 0,4,5
 611 1438 611 1438 667 1477 c 128,-1,6
 723 1516 723 1516 729 1589 c 1,7,-1
 854 1589 l 1,8,9
 854 1443 854 1443 763.5 1360.5 c 128,-1,10
 673 1278 673 1278 512 1278 c 0,11,12
 349 1278 349 1278 260.5 1359 c 128,-1,13
 172 1440 172 1440 170 1589 c 1,0,-1
EndSplineSet
Ligature: 0 1 'liga' space uni0306
EndChar
StartChar: dotaccent
Encoding: 729 729 219
Width: 1024
Flags: W
Fore
365 1468 m 0,0,1
 365 1528 365 1528 408.5 1571 c 128,-1,2
 452 1614 452 1614 512 1614 c 0,3,4
 572 1614 572 1614 615.5 1571 c 128,-1,5
 659 1528 659 1528 659 1468 c 0,6,7
 659 1409 659 1409 615.5 1365 c 128,-1,8
 572 1321 572 1321 512 1321 c 0,9,10
 452 1321 452 1321 408.5 1365 c 128,-1,11
 365 1409 365 1409 365 1468 c 0,0,1
EndSplineSet
Ligature: 0 1 'liga' space uni0307
EndChar
StartChar: ring
Encoding: 730 730 220
Width: 1024
Flags: W
Fore
227 1534 m 0,0,1
 227 1652 227 1652 310.5 1735.5 c 128,-1,2
 394 1819 394 1819 512 1819 c 0,3,4
 630 1819 630 1819 713.5 1735.5 c 128,-1,5
 797 1652 797 1652 797 1534 c 0,6,7
 797 1416 797 1416 713.5 1332.5 c 128,-1,8
 630 1249 630 1249 512 1249 c 0,9,10
 394 1249 394 1249 310.5 1332.5 c 128,-1,11
 227 1416 227 1416 227 1534 c 0,0,1
381 1534 m 0,12,13
 381 1479 381 1479 419.5 1441 c 128,-1,14
 458 1403 458 1403 512 1403 c 0,15,16
 567 1403 567 1403 605 1441.5 c 128,-1,17
 643 1480 643 1480 643 1534 c 0,18,19
 643 1588 643 1588 604.5 1626.5 c 128,-1,20
 566 1665 566 1665 512 1665 c 0,21,22
 457 1665 457 1665 419 1626.5 c 128,-1,23
 381 1588 381 1588 381 1534 c 0,12,13
EndSplineSet
LCarets: 0 65535 '    ' 1 0 
Ligature: 0 1 'liga' space uni030A
EndChar
StartChar: ogonek
Encoding: 731 731 223
Width: 1024
Flags: W
Fore
444 0 m 1,0,-1
 569 0 l 1,1,2
 520 -65 520 -65 500.5 -102 c 128,-1,3
 481 -139 481 -139 481 -168 c 0,4,5
 481 -209 481 -209 509.5 -231.5 c 128,-1,6
 538 -254 538 -254 590 -254 c 0,7,8
 629 -254 629 -254 669.5 -246 c 128,-1,9
 710 -238 710 -238 748 -223 c 1,10,-1
 747 -379 l 1,11,12
 693 -390 693 -390 645 -395.5 c 128,-1,13
 597 -401 597 -401 555 -401 c 0,14,15
 442 -401 442 -401 379.5 -355 c 128,-1,16
 317 -309 317 -309 317 -225 c 0,17,18
 317 -173 317 -173 348 -118.5 c 128,-1,19
 379 -64 379 -64 444 0 c 1,0,-1
EndSplineSet
Ligature: 0 1 'liga' space uni0328
EndChar
StartChar: tilde
Encoding: 732 732 216
Width: 1024
Flags: W
Fore
154 1309 m 1,0,-1
 154 1325 l 2,1,2
 154 1471 154 1471 207 1546.5 c 128,-1,3
 260 1622 260 1622 362 1622 c 0,4,5
 399 1622 399 1622 434.5 1609.5 c 128,-1,6
 470 1597 470 1597 516 1567 c 2,7,-1
 587 1520 l 1,8,-1
 590 1518 l 2,9,10
 634 1489 634 1489 670 1489 c 0,11,12
 711 1489 711 1489 735.5 1524 c 128,-1,13
 760 1559 760 1559 760 1620 c 1,14,-1
 870 1620 l 1,15,-1
 870 1604 l 2,16,17
 870 1458 870 1458 817 1382.5 c 128,-1,18
 764 1307 764 1307 662 1307 c 0,19,20
 625 1307 625 1307 589.5 1319.5 c 128,-1,21
 554 1332 554 1332 508 1362 c 2,22,-1
 436 1409 l 1,23,-1
 435 1410 l 2,24,25
 390 1440 390 1440 354 1440 c 0,26,27
 313 1440 313 1440 288.5 1405 c 128,-1,28
 264 1370 264 1370 264 1309 c 1,29,-1
 154 1309 l 1,0,-1
EndSplineSet
Ligature: 0 1 'liga' space tildecomb
EndChar
StartChar: hungarumlaut
Encoding: 733 733 222
Width: 1024
Flags: W
Fore
780 1638 m 1,0,-1
 1016 1638 l 1,1,-1
 719 1262 l 1,2,-1
 555 1262 l 1,3,-1
 780 1638 l 1,0,-1
414 1638 m 1,4,-1
 631 1638 l 1,5,-1
 387 1262 l 1,6,-1
 225 1262 l 1,7,-1
 414 1638 l 1,4,-1
EndSplineSet
Ligature: 0 1 'liga' space uni030B
EndChar
StartChar: Omega
Encoding: 937 937 159
Width: 1823
Flags: W
Fore
1249 184 m 1,0,-1
 1583 184 l 1,1,-1
 1583 309 l 1,2,-1
 1720 309 l 1,3,-1
 1720 0 l 1,4,-1
 987 0 l 1,5,-1
 987 193 l 1,6,7
 1143 225 1143 225 1223 377 c 128,-1,8
 1303 529 1303 529 1303 795 c 0,9,10
 1303 1090 1303 1090 1203 1244.5 c 128,-1,11
 1103 1399 1103 1399 911 1399 c 0,12,13
 719 1399 719 1399 619.5 1244.5 c 128,-1,14
 520 1090 520 1090 520 793 c 0,15,16
 520 532 520 532 601 378.5 c 128,-1,17
 682 225 682 225 836 193 c 1,18,-1
 836 0 l 1,19,-1
 102 0 l 1,20,-1
 102 309 l 1,21,-1
 238 309 l 1,22,-1
 238 184 l 1,23,-1
 573 184 l 1,24,25
 336 276 336 276 214 436.5 c 128,-1,26
 92 597 92 597 92 817 c 0,27,28
 92 1133 92 1133 316.5 1326.5 c 128,-1,29
 541 1520 541 1520 911 1520 c 0,30,31
 1281 1520 1281 1520 1506 1326.5 c 128,-1,32
 1731 1133 1731 1133 1731 817 c 0,33,34
 1731 597 1731 597 1609 436.5 c 128,-1,35
 1487 276 1487 276 1249 184 c 1,0,-1
EndSplineSet
EndChar
StartChar: pi
Encoding: 960 960 155
Width: 1499
Flags: W
Fore
70 0 m 1,0,-1
 70 121 l 1,1,-1
 221 121 l 1,2,-1
 221 942 l 1,3,-1
 70 942 l 1,4,-1
 70 1063 l 1,5,-1
 1430 1063 l 1,6,-1
 1430 942 l 1,7,-1
 1278 942 l 1,8,-1
 1278 121 l 1,9,-1
 1430 121 l 1,10,-1
 1430 0 l 1,11,-1
 793 0 l 1,12,-1
 793 121 l 1,13,-1
 924 121 l 1,14,-1
 924 942 l 1,15,-1
 575 942 l 1,16,-1
 575 121 l 1,17,-1
 705 121 l 1,18,-1
 705 0 l 1,19,-1
 70 0 l 1,0,-1
EndSplineSet
EndChar
StartChar: afii10051
Encoding: 1026 1026 158
Width: 1846
Flags: HW
Fore
1671 436 m 2,0,1
 1671 635.995 1671 635.995 1523.5 755.5 c 0
 1376.01 875 1376.01 875 1134 875 c 2
 743 875 l 1
 743 1356 l 1
 1317 1356 l 1
 1317 1120 l 1
 1452 1120 l 1
 1452 1493 l 1
 -94 1493 l 1
 -94 1120 l 1
 43 1120 l 1
 43 1356 l 1
 356 1356 l 1
 356 121 l 1
 167 121 l 1
 167 0 l 1
 918 0 l 1
 918 121 l 1
 745 121 l 1
 743 754 l 1
 1007 754 l 2
 1137 754 1137 754 1214.5 667.5 c 0
 1292 581.005 1292 581.005 1292 436 c 2
 1292 85 l 2
 1292 -143.189 1292 -143.189 1258.94 -230.145 c 1
 1258.94 -230.145 1253.5 -242.5 1253.5 -242.5 c 1
 1215 -317 1215 -317 1118 -317 c 0
 1042.01 -317 1042.01 -317 1003.5 -273 c 0
 965 -229.001 965 -229.001 959 -135 c 1
 829 -135 l 1
 829 -370 l 1
 916 -404 916 -404 1000 -421 c 0
 1084 -438 1084 -438 1167 -438 c 0
 1426 -438 1426 -438 1548.5 -326 c 0
 1634.87 -247.039 1634.87 -247.039 1662.04 -53.5012 c 0
 1671 10.3251 1671 10.3251 1671 77 c 2
 1671 436 l 2,0,1
EndSplineSet
EndChar
StartChar: afii10053
Encoding: 1028 1028 160
Width: 1629
Flags: HW
Fore
1526 426 m 1
 1467.01 195.005 1467.01 195.005 1314 83 c 0
 1161 -29 1161 -29 903 -29 c 0
 525 -29 525 -29 305.5 179.5 c 0
 86 388 86 388 86 745 c 0
 86 1103 86 1103 305.5 1311.5 c 0
 525 1520 525 1520 903 1520 c 0
 1035.98 1520 1035.98 1520 1180 1488 c 0
 1323.96 1456.02 1323.96 1456.02 1485 1391 c 1
 1485 1024 l 1
 1358 1024 l 1
 1319 1212.01 1319 1212.01 1216 1305.5 c 0
 1112.99 1399 1112.99 1399 944 1399 c 0
 726 1399 726 1399 620 1238.5 c 0
 525.889 1096 525.889 1096 515.429 830 c 1
 1180 830 l 1
 1180 669 l 1
 514.647 669 l 1
 521.165 417.671 521.165 417.671 605.533 275.084 c 0
 612.439 263.413 612.439 263.413 620 252 c 0
 726 92 726 92 946 92 c 0
 1095 92 1095 92 1189.5 175 c 0
 1283.99 257.994 1283.99 257.994 1327 426 c 1
 1526 426 l 1
EndSplineSet
EndChar
StartChar: afii10054
Encoding: 1029 1029 161
Width: 1479
Flags: HW
Fore
158 72 m 1,0,-1
 158 426 l 1
 285 426 l 1
 314 258 314 258 422 175 c 0
 530 92.0005 530 92.0005 721 92 c 0
 876 92 876 92 957 151 c 0
 1038 209.999 1038 209.999 1038 324 c 0
 1038 414.005 1038 414.005 983 464 c 0
 927.999 514 927.999 514 756 557 c 2
 532 612 l 1
 313 667.999 313 667.999 224 767.5 c 0
 135 867 135 867 135 1051 c 0
 135 1273 135 1273 282.5 1396.5 c 0
 430.006 1520 430.006 1520 696 1520 c 0
 827.033 1520 827.033 1520 968.5 1498 c 0
 1110.02 1475.99 1110.02 1475.99 1262 1432 c 1
 1262 1102 l 1
 1135 1102 l 1
 1106.01 1255.98 1106.01 1255.98 1008 1327.5 c 0
 910.007 1399 910.007 1399 729 1399 c 0
 581.007 1399 581.007 1399 505.5 1347.5 c 0
 430 1296 430 1296 430 1194 c 0
 430 1100.99 430 1100.99 482 1052.5 c 0
 534.007 1004 534.007 1004 737 952 c 1
 961 897 l 2
 1169.01 845 1169.01 845 1262.5 735 c 0
 1356 624.995 1356 624.995 1356 432 c 0
 1356 206 1356 206 1200 88.5 c 0
 1044 -28.9999 1044 -28.9999 741 -29 c 0
 595 -29 595 -29 451 -4 c 0
 307 21 307 21 158 72 c 1,0,-1
EndSplineSet
EndChar
StartChar: afii10055
Encoding: 1030 1030 162
Width: 958
Flags: HW
Fore
96 0 m 1,0,-1
 96 121 l 1
 287 121 l 1
 287 1372 l 1
 96 1372 l 1
 96 1493 l 1
 864 1493 l 1
 864 1372 l 1
 672 1372 l 1
 672 121 l 1
 864 121 l 1
 864 0 l 1
 96 0 l 1,0,-1
EndSplineSet
EndChar
StartChar: afii10057
Encoding: 1032 1032 164
Width: 969
Flags: HW
Fore
-150 -358 m 1,0,-1
 -150 -123 l 1
 -20 -123 l 1
 -14 -217.001 -14 -217.001 24.5 -261 c 0
 63 -305 63 -305 139 -305 c 0
 236 -305 236 -305 274.5 -230.5 c 0
 313 -156 313 -156 313 49 c 2
 313 1372 l 1
 96 1372 l 1
 96 1493 l 1
 891 1493 l 1
 891 1372 l 1
 700 1372 l 1
 700 41 l 2
 700 -202 700 -202 577.5 -314 c 0
 455 -426 455 -426 188 -426 c 0
 105.002 -426 105.002 -426 21 -409 c 0
 -63 -392 -63 -392 -150 -358 c 1,0,-1
EndSplineSet
EndChar
StartChar: afii10058
Encoding: 1033 1033 165
Width: 2583
Flags: HW
Fore
1266 1356 m 1,0,-1
 808 1356 l 1
 808 447 l 2
 808 204 808 204 685.5 92 c 0
 563 -20 563 -20 301 -20 c 0
 218.002 -20 218.002 -20 134 -3 c 0
 50 13.9995 50 13.9995 -37 48 c 1
 -37 283 l 1
 93 283 l 1
 99 188.999 99 188.999 137.5 145 c 0
 176.001 101 176.001 101 252 101 c 0
 349 101 349 101 387.5 175.5 c 0
 426.672 251.3 426.672 251.3 426 455 c 1
 426 1372 l 1
 222 1372 l 1
 222 1493 l 1
 1843 1493 l 1
 1843 1372 l 1
 1651 1372 l 1
 1650 870 l 1
 1726 870 l 2
 1887.6 870 1887.6 870 2021 847 c 0
 2221.25 812.475 2221.25 812.475 2362.5 697.866 c 0
 2364.26 696.437 2364.26 696.437 2366 695 c 0
 2486 596 2486 596 2486 432 c 0
 2486 209.997 2486 209.997 2318.5 105 c 0
 2196.55 28.5538 2196.55 28.5538 2033.3 9.33617 c 0
 1953.99 0 1953.99 0 1849 0 c 2
 1074 0 l 1
 1074 121 l 1
 1265 121 l 1
 1266 1356 l 1,0,-1
1650 121 m 1,35,-1
 1738 121 l 2
 1852.06 121 1852.06 121 1912.55 157.497 c 0
 1933.45 170.106 1933.45 170.106 1966 197 c 0
 2058 273.005 2058 273.005 2058 432 c 0
 2058 592 2058 592 1965 671 c 0
 1905.69 721.382 1905.69 721.382 1860.45 735.575 c 1
 1860.45 735.575 1815.42 745.42 1815.42 745.42 c 1
 1782.74 750 1782.74 750 1738 750 c 2
 1650 750 l 1
 1650 121 l 1,35,-1
EndSplineSet
EndChar
StartChar: afii10059
Encoding: 1034 1034 166
Width: 2581
Flags: HW
Fore
1075 1493 m 9,11,-1
 1842 1493 l 1
 1842 1372 l 1
 1650 1372 l 1
 1650 870 l 1
 1726 870 l 2
 1887.6 870 1887.6 870 2021 847 c 0
 2221.25 812.475 2221.25 812.475 2362.5 697.866 c 0
 2364.26 696.437 2364.26 696.437 2366 695 c 0
 2486 596 2486 596 2486 432 c 0
 2486 209.997 2486 209.997 2318.5 105 c 0
 2196.55 28.5538 2196.55 28.5538 2033.3 9.33617 c 0
 1953.99 0 1953.99 0 1849 0 c 2
 1075 0 l 1
 1075 121 l 1
 1266 121 l 1
 1266 733 l 1
 672 733 l 1
 672 121 l 1
 864 121 l 1
 864 0 l 1
 96 0 l 1
 96 121 l 1
 287 121 l 1
 287 1372 l 1
 96 1372 l 1
 96 1493 l 1
 864 1493 l 1
 864 1372 l 1
 672 1372 l 1
 672 870 l 1
 1266 870 l 1
 1266 1372 l 1
 1075 1372 l 1
 1075 1493 l 9,11,-1
1650 121 m 1,17,-1
 1738 121 l 2
 1852.06 121 1852.06 121 1912.55 157.497 c 0
 1933.45 170.106 1933.45 170.106 1966 197 c 0
 2058 273.005 2058 273.005 2058 432 c 0
 2058 592 2058 592 1965 671 c 0
 1905.69 721.382 1905.69 721.382 1860.45 735.575 c 1
 1860.45 735.575 1815.42 745.42 1815.42 745.42 c 1
 1782.74 750 1782.74 750 1738 750 c 2
 1650 750 l 1
 1650 121 l 1,17,-1
EndSplineSet
EndChar
StartChar: afii10060
Encoding: 1035 1035 167
Width: 1972
Flags: HW
Fore
743 1356 m 1,0,-1
 1317 1356 l 1
 1317 1120 l 1
 1452 1120 l 1
 1452 1493 l 1
 -94 1493 l 1
 -94 1120 l 1
 43 1120 l 1
 43 1356 l 1
 356 1356 l 1
 356 121 l 1
 167 121 l 1
 167 0 l 1
 918 0 l 1
 918 121 l 1
 745 121 l 1
 743 754 l 1
 1007 754 l 2
 1137 754 1137 754 1214.5 667.5 c 0
 1292 581.005 1292 581.005 1292 436 c 2
 1292 121 l 1
 1123 121 l 1
 1123 0 l 1
 1862 0 l 1
 1862 121 l 1
 1671 121 l 1
 1671 436 l 2
 1671 635.995 1671 635.995 1523.5 755.5 c 0
 1376.01 875 1376.01 875 1134 875 c 2
 743 875 l 1
 743 1356 l 1,0,-1
EndSplineSet
EndChar
StartChar: afii10145
Encoding: 1039 1039 171
Width: 1935
Flags: HW
Fore
96 0 m 1,0,-1
 96 121 l 1
 287 121 l 1
 287 1372 l 1
 96 1372 l 1
 96 1493 l 1
 864 1493 l 1
 864 1372 l 1
 672 1372 l 1
 672 137 l 1
 1266 137 l 1
 1266 1372 l 1
 1075 1372 l 1
 1075 1493 l 1
 1843 1493 l 1
 1843 1372 l 1
 1651 1372 l 1
 1651 121 l 1
 1843 121 l 1
 1843 0 l 1
 1110 0 l 1
 1110 -358 l 1
 829 -358 l 1
 829 0 l 1
 96 0 l 1,0,-1
EndSplineSet
EndChar
StartChar: afii10017
Encoding: 1040 1040 172
Width: 1589
Flags: HW
Fore
-16 0 m 1,0,-1
 -16 121 l 1
 106 121 l 1
 668 1493 l 1
 907 1493 l 1
 1470 121 l 1
 1612 121 l 1
 1612 0 l 1
 913 0 l 1
 913 121 l 1
 1059 121 l 1
 936 426 l 1
 375 426 l 1
 250 121 l 1
 428 121 l 1
 428 0 l 1
 -16 0 l 1,0,-1
424 547 m 1,16,-1
 887 547 l 1
 657 1118 l 1
 424 547 l 1,16,-1
EndSplineSet
EndChar
StartChar: afii10018
Encoding: 1041 1041 173
Width: 1750
Flags: HW
Fore
672 1356 m 1,0,-1
 672 870 l 1
 804 870 l 2
 1008.33 870 1008.33 870 1148.79 852.375 c 0
 1162.15 850.698 1162.15 850.698 1172 849 c 0
 1369.28 814.987 1369.28 814.987 1513.5 697.868 c 0
 1515.25 696.44 1515.25 696.44 1517 695 c 0
 1637 596 1637 596 1637 432 c 0
 1637 209.997 1637 209.997 1469.5 105 c 0
 1301.99 0 1301.99 0 927 0 c 2
 96 0 l 1
 96 121 l 1
 287 121 l 1
 287 1372 l 1
 96 1372 l 1
 96 1493 l 1
 1546 1493 l 1
 1546 1120 l 1
 1411 1120 l 1
 1411 1356 l 1
 672 1356 l 1,0,-1
672 121 m 1,20,-1
 816 121 l 2
 1017.73 121 1017.73 121 1111.36 192.523 c 0
 1114.26 194.733 1114.26 194.733 1117 197 c 0
 1209 273.005 1209 273.005 1209 432 c 0
 1209 592 1209 592 1116 671 c 0
 1027.38 746.282 1027.38 746.282 832.298 749.852 c 0
 824.193 750 824.193 750 816 750 c 2
 672 750 l 1
 672 121 l 1,20,-1
EndSplineSet
EndChar
StartChar: afii10019
Encoding: 1042 1042 174
Width: 1731
Flags: HW
Fore
96 0 m 1,0,-1
 96 121 l 1
 287 121 l 1
 287 1372 l 1
 96 1372 l 1
 96 1493 l 1
 981 1493 l 2
 1254 1493 1254 1493 1391 1401 c 0
 1528 1309 1528 1309 1528 1124 c 0
 1528 991 1528 991 1433.5 913 c 0
 1339 835 1339 835 1153 815 c 1
 1378 794 1378 794 1498 695 c 0
 1618 596 1618 596 1618 432 c 0
 1618 209.997 1618 209.997 1450.5 105 c 0
 1282.99 0 1282.99 0 926 0 c 2
 96 0 l 1,0,-1
672 870 m 1,19,-1
 803 870 l 2
 975.006 870 975.006 870 1058 932.5 c 0
 1141 995.004 1141 995.004 1141 1124 c 0
 1141 1254.01 1141 1254.01 1060.5 1313 c 0
 979.988 1372 979.988 1372 803 1372 c 2
 672 1372 l 1
 672 870 l 1,19,-1
672 121 m 1,28,-1
 815 121 l 2
 1006.01 121 1006.01 121 1098 197 c 0
 1190 273.005 1190 273.005 1190 432 c 0
 1190 592 1190 592 1097 671 c 0
 1004 750 1004 750 815 750 c 2
 672 750 l 1
 672 121 l 1,28,-1
EndSplineSet
EndChar
StartChar: afii10020
Encoding: 1043 1043 175
Width: 1454
Flags: HW
Fore
674 121 m 1,0,-1
 909 121 l 1
 909 0 l 1
 96 0 l 1
 96 121 l 1
 287 121 l 1
 287 1372 l 1
 96 1372 l 1
 96 1493 l 1
 1427 1493 l 1
 1427 1141 l 1
 1290 1141 l 1
 1290 1356 l 1
 674 1356 l 1
 674 121 l 1,0,-1
EndSplineSet
EndChar
StartChar: afii10021
Encoding: 1044 1044 176
Width: 1935
Flags: HW
Fore
1550 -151 m 5
 465 -151 l 1
 353.275 -196.116 353.275 -196.116 324.143 -353.124 c 0
 316.125 -396.334 316.125 -396.334 306.854 -542.923 c 0
 301.989 -619.832 301.989 -619.832 292 -659 c 1
 109 -659 l 1
 86 7 l 1
 333.225 7 l 1
 367.924 25.6196 367.924 25.6196 387.5 63.5 c 0
 416.516 119.648 416.516 119.648 424.567 364.55 c 0
 426.141 412.4 426.141 412.4 426 455 c 1
 426 1372 l 1
 222 1372 l 1
 222 1493 l 1
 1843 1493 l 1
 1843 1372 l 1
 1651 1372 l 1
 1651 7 l 1
 1916 7 l 1
 1893 -659 l 1
 1703 -659 l 1
 1693.57 -616.586 1693.57 -616.586 1683.26 -469.45 c 0
 1671.88 -307.208 1671.88 -307.208 1634.32 -236.178 c 0
 1603.76 -178.376 1603.76 -178.376 1550 -151 c 5
711.634 7 m 5
 1266 7 l 1
 1266 1356 l 1
 808 1356 l 1
 808 447 l 2
 808 274.52 808 274.52 766.714 127.87 c 0
 742.988 43.5948 742.988 43.5948 711.634 7 c 5
EndSplineSet
EndChar
StartChar: afii10022
Encoding: 1045 1045 177
Width: 1561
Flags: HW
Fore
96 0 m 1,0,-1
 96 121 l 1
 287 121 l 1
 287 1372 l 1
 96 1372 l 1
 96 1493 l 1
 1438 1493 l 1
 1438 1141 l 1
 1300 1141 l 1
 1300 1356 l 1
 672 1356 l 1
 672 877 l 1
 1063 877 l 1
 1063 1067 l 1
 1200 1067 l 1
 1200 551 l 1
 1063 551 l 1
 1063 741 l 1
 672 741 l 1
 672 137 l 1
 1319 137 l 1
 1319 352 l 1
 1456 352 l 1
 1456 0 l 1
 96 0 l 1,0,-1
EndSplineSet
EndChar
StartChar: afii10024
Encoding: 1046 1046 178
Width: 2698
Flags: HW
Fore
1704 1493 m 1,5,-1
 1704 1372 l 1
 1512 1372 l 1
 1512 827 l 1
 2045 1372 l 1
 1885 1372 l 1
 1885 1493 l 1
 2442 1493 l 1
 2442 1372 l 1
 2243 1372 l 1
 1807 911 l 1
 2436 121 l 1
 2583 121 l 1
 2583 0 l 1
 2077 0 l 1
 1512 725 l 1
 1512 121 l 1
 1704 121 l 1
 1704 0 l 1
 936 0 l 1
 936 121 l 1
 1128 121 l 1
 1128 725 l 1
 563 0 l 1
 57 0 l 1
 57 121 l 1
 204 121 l 1
 833 911 l 1
 397 1372 l 1
 198 1372 l 1
 198 1493 l 1
 755 1493 l 1
 755 1372 l 1
 595 1372 l 1
 1128 827 l 1
 1128 1372 l 1
 936 1372 l 1
 936 1493 l 1
 1704 1493 l 1,5,-1
EndSplineSet
EndChar
StartChar: afii10025
Encoding: 1047 1047 179
Width: 1425
Flags: HW
Fore
176 1450 m 1,0,1
 308 1484.99 308 1484.99 432 1502.5 c 0
 555.965 1520 555.965 1520 674 1520 c 0
 943.993 1520 943.993 1520 1088.5 1423.5 c 0
 1233 1327 1233 1327 1233 1147 c 0
 1233 1012.01 1233 1012.01 1150 928 c 0
 1067.01 844 1067.01 844 907 815 c 1
 1102 784 1102 784 1198 682 c 0
 1294 580 1294 580 1294 403 c 0
 1294 194.003 1294 194.003 1128.5 82.5 c 0
 963.005 -29 963.005 -29 649 -29 c 0
 531.001 -29 531.001 -29 405.5 -9 c 0
 280 11 280 11 143 51 c 1
 143 379 l 1
 264 379 l 1
 274.999 237.001 274.999 237.001 353 162.5 c 0
 431 87.9995 431 87.9995 569 88 c 0
 721 88 721 88 804 172.5 c 0
 887 257 887 257 887 412 c 0
 887 574 887 574 800.5 662 c 0
 714 750 714 750 555 750 c 2
 489 750 l 1
 489 870 l 1
 541 870 l 2
 688 870 688 870 762 938 c 0
 836 1006 836 1006 836 1141 c 0
 836 1268 836 1268 766.5 1335.5 c 0
 697 1403 697 1403 567 1403 c 0
 449 1403 449 1403 380 1338.5 c 0
 311 1274 311 1274 297 1151 c 1
 176 1151 l 1
 176 1450 l 1,0,1
EndSplineSet
EndChar
StartChar: afii10026
Encoding: 1048 1048 180
Width: 1935
Flags: HW
Fore
96 0 m 1,0,-1
 96 121 l 1
 287 121 l 1
 287 1372 l 1
 96 1372 l 1
 96 1493 l 1
 864 1493 l 1
 864 1372 l 1
 672 1372 l 1
 672 565 l 1
 1266 1265 l 1
 1266 1372 l 1
 1075 1372 l 1
 1075 1493 l 1
 1843 1493 l 1
 1843 1372 l 1
 1651 1372 l 1
 1651 121 l 1
 1843 121 l 1
 1843 0 l 1
 1075 0 l 1
 1075 121 l 1
 1266 121 l 1
 1266 956 l 1
 672 256 l 1
 672 121 l 1
 864 121 l 1
 864 0 l 1
 96 0 l 1,0,-1
EndSplineSet
EndChar
StartChar: afii10028
Encoding: 1050 1050 182
Width: 1780
Flags: HW
Fore
96 0 m 1,0,-1
 96 121 l 1
 287 121 l 1
 287 1372 l 1
 96 1372 l 1
 96 1493 l 1
 864 1493 l 1
 864 1372 l 1
 672 1372 l 1
 672 827 l 1
 1305 1372 l 1
 1145 1372 l 1
 1145 1493 l 1
 1702 1493 l 1
 1702 1372 l 1
 1503 1372 l 1
 967 911 l 1
 1696 121 l 1
 1843 121 l 1
 1843 0 l 1
 1337 0 l 1
 672 725 l 1
 672 121 l 1
 864 121 l 1
 864 0 l 1
 96 0 l 1,0,-1
EndSplineSet
EndChar
StartChar: afii10029
Encoding: 1051 1051 183
Width: 1935
Flags: HW
Fore
808 1356 m 1,0,-1
 1266 1356 l 1
 1266 121 l 1
 1075 121 l 1
 1075 0 l 1
 1843 0 l 1
 1843 121 l 1
 1651 121 l 1
 1651 1372 l 1
 1843 1372 l 1
 1843 1493 l 1
 222 1493 l 1
 222 1372 l 1
 426 1372 l 1
 426 455 l 1
 426.672 251.3 426.672 251.3 387.5 175.5 c 0
 349 101 349 101 252 101 c 0
 176.001 101 176.001 101 137.5 145 c 0
 98.9995 188.999 98.9995 188.999 93 283 c 1
 -37 283 l 1
 -37 48 l 1
 50 13.9995 50 13.9995 134 -3 c 0
 218.002 -20 218.002 -20 301 -20 c 0
 563 -20 563 -20 685.5 92 c 0
 808 204 808 204 808 447 c 2
 808 1356 l 1,0,-1
EndSplineSet
EndChar
StartChar: afii10030
Encoding: 1052 1052 184
Width: 2267
Flags: HW
Fore
86 0 m 1,0,-1
 86 121 l 1
 276 121 l 1
 276 1372 l 1
 86 1372 l 1
 86 1493 l 1
 702 1493 l 1
 1128 535 l 1
 1556 1493 l 1
 2171 1493 l 1
 2171 1372 l 1
 1980 1372 l 1
 1980 121 l 1
 2171 121 l 1
 2171 0 l 1
 1403 0 l 1
 1403 121 l 1
 1593 121 l 1
 1593 1260 l 1
 1130 219 l 1
 877 219 l 1
 416 1260 l 1
 416 121 l 1
 606 121 l 1
 606 0 l 1
 86 0 l 1,0,-1
EndSplineSet
EndChar
StartChar: afii10031
Encoding: 1053 1053 185
Width: 1935
Flags: HW
Fore
96 0 m 1,0,-1
 96 121 l 1
 287 121 l 1
 287 1372 l 1
 96 1372 l 1
 96 1493 l 1
 864 1493 l 1
 864 1372 l 1
 672 1372 l 1
 672 870 l 1
 1266 870 l 1
 1266 1372 l 1
 1075 1372 l 1
 1075 1493 l 1
 1843 1493 l 1
 1843 1372 l 1
 1651 1372 l 1
 1651 121 l 1
 1843 121 l 1
 1843 0 l 1
 1075 0 l 1
 1075 121 l 1
 1266 121 l 1
 1266 733 l 1
 672 733 l 1
 672 121 l 1
 864 121 l 1
 864 0 l 1
 96 0 l 1,0,-1
EndSplineSet
EndChar
StartChar: afii10032
Encoding: 1054 1054 186
Width: 1784
Flags: HW
Fore
891 92 m 0,0,1
 1082 92 1082 92 1175 253 c 0
 1268 414 1268 414 1268 745 c 0
 1268 1077.01 1268 1077.01 1175 1238 c 0
 1082 1399 1082 1399 891 1399 c 0
 701.002 1399 701.002 1399 607.5 1236.5 c 0
 514 1074 514 1074 514 745 c 0
 514 417 514 417 607.5 254.5 c 0
 701 92 701 92 891 92 c 0,0,1
891 -29 m 0,12,13
 514 -29 514 -29 300 177 c 0
 86 382.999 86 382.999 86 745 c 0
 86 1106.99 86 1106.99 300.5 1313.5 c 0
 514.995 1520 514.995 1520 891 1520 c 0
 1267.99 1520 1267.99 1520 1482 1314 c 0
 1696 1108.01 1696 1108.01 1696 745 c 0
 1696 383 1696 383 1481.5 177 c 0
 1267 -29 1267 -29 891 -29 c 0,12,13
EndSplineSet
EndChar
StartChar: afii10033
Encoding: 1055 1055 187
Width: 1935
Flags: HW
Fore
96 1493 m 1,0,-1
 96 1372 l 1
 287 1372 l 1
 287 121 l 1
 96 121 l 1
 96 0 l 1
 864 0 l 1
 864 121 l 1
 672 121 l 1
 672 1356 l 1
 1266 1356 l 1
 1266 121 l 1
 1075 121 l 1
 1075 0 l 1
 1843 0 l 1
 1843 121 l 1
 1651 121 l 1
 1651 1372 l 1
 1843 1372 l 1
 1843 1493 l 1
 96 1493 l 1,0,-1
EndSplineSet
EndChar
StartChar: afii10034
Encoding: 1056 1056 188
Width: 1540
Flags: HW
Fore
96 0 m 1,0,-1
 96 121 l 1
 287 121 l 1
 287 1372 l 1
 96 1372 l 1
 96 1493 l 1
 946 1493 l 2
 1195 1493 1195 1493 1342 1374.5 c 0
 1489 1256 1489 1256 1489 1057 c 0
 1489 857.005 1489 857.005 1341.5 737.5 c 0
 1194.01 618 1194.01 618 946 618 c 2
 672 618 l 1
 672 121 l 1
 913 121 l 1
 913 0 l 1
 96 0 l 1,0,-1
672 739 m 1,17,-1
 784 739 l 2
 914 739 914 739 991.5 825.5 c 0
 1069 911.995 1069 911.995 1069 1057 c 0
 1069 1200.99 1069 1200.99 992 1286.5 c 0
 915 1372 915 1372 784 1372 c 2
 672 1372 l 1
 672 739 l 1,17,-1
EndSplineSet
EndChar
StartChar: afii10035
Encoding: 1057 1057 189
Width: 1630
Flags: HW
Fore
1526 426 m 1,0,1
 1467.01 195.005 1467.01 195.005 1314 83 c 0
 1161 -29 1161 -29 903 -29 c 0
 525 -29 525 -29 305.5 179.5 c 0
 86 388 86 388 86 745 c 0
 86 1103 86 1103 305.5 1311.5 c 0
 525 1520 525 1520 903 1520 c 0
 1035.98 1520 1035.98 1520 1180 1488 c 0
 1323.96 1456.02 1323.96 1456.02 1485 1391 c 1
 1485 1024 l 1
 1358 1024 l 1
 1319 1212.01 1319 1212.01 1216 1305.5 c 0
 1112.99 1399 1112.99 1399 944 1399 c 0
 726 1399 726 1399 620 1238.5 c 0
 514 1078 514 1078 514 745 c 0
 514 412 514 412 620 252 c 0
 726 92 726 92 946 92 c 0
 1095 92 1095 92 1189.5 175 c 0
 1283.99 257.994 1283.99 257.994 1327 426 c 1
 1526 426 l 1,0,1
EndSplineSet
EndChar
StartChar: afii10036
Encoding: 1058 1058 190
Width: 1524
Flags: HW
Fore
371 0 m 1,0,-1
 371 121 l 1
 569 121 l 1
 569 1356 l 1
 160 1356 l 1
 160 1120 l 1
 23 1120 l 1
 23 1493 l 1
 1503 1493 l 1
 1503 1120 l 1
 1368 1120 l 1
 1368 1356 l 1
 956 1356 l 1
 956 121 l 1
 1155 121 l 1
 1155 0 l 1
 371 0 l 1,0,-1
EndSplineSet
EndChar
StartChar: afii10037
Encoding: 1059 1059 191
Width: 1662
Flags: HW
Fore
619 258 m 2,0,-1
 710 468 l 1
 208 1356 l 1
 51 1356 l 1
 51 1493 l 1
 620 1493 l 1
 620 1356 l 1
 475 1356 l 1
 824 740 l 1
 1082 1356 l 1
 933 1356 l 1
 933 1493 l 1
 1578 1493 l 1
 1578 1356 l 1
 1439 1356 l 1
 895 78 l 2
 862 0 862 0 749 0 c 2
 418 0 l 1
 418 188 l 1
 478 188 l 2
 574.744 188 574.744 188 607.764 237.082 c 0
 614.021 246.382 614.021 246.382 619 258 c 2,0,-1
EndSplineSet
EndChar
StartChar: afii10038
Encoding: 1060 1060 192
Width: 2150
Flags: HW
Fore
1242 92 m 2
 1431.5 92 1431.5 92 1526 254 c 1
 1619 417.5 1619 417.5 1619 745 c 0
 1619 1074 1619 1074 1526 1236 c 0
 1431.79 1399 1431.79 1399 1242 1399 c 2
 1198 1399 l 1
 1198 92 l 1
 1242 92 l 2
891 -29 m 2
 514 -29 514 -29 300 177 c 0
 86 382.999 86 382.999 86 745 c 0
 86 1106.99 86 1106.99 300.5 1313.5 c 0
 514.995 1520 514.995 1520 891 1520 c 2
 933 1520 l 1
 933 1698 l 1
 742 1698 l 1
 742 1819 l 1
 1390 1819 l 1
 1390 1698 l 1
 1198 1698 l 1
 1198 1520 l 1
 1242 1520 l 2
 1618.48 1520 1618.48 1520 1832 1314 c 0
 2047 1107.96 2047 1107.96 2047 745 c 0
 2047 382.021 2047 382.021 1833 177 c 0
 1617.98 -29 1617.98 -29 1242 -29 c 2
 1198 -29 l 1
 1198 -230 l 1
 1390 -230 l 1
 1390 -351 l 1
 742 -351 l 1
 742 -230 l 1
 933 -230 l 1
 933 -29 l 1
 891 -29 l 2
933 92 m 5
 933 1399 l 1
 891 1399 l 2
 701.002 1399 701.002 1399 607.5 1236.5 c 0
 514 1074 514 1074 514 745 c 0
 514 417 514 417 607.5 254.5 c 0
 701 92 701 92 891 92 c 2
 933 92 l 5
EndSplineSet
EndChar
StartChar: afii10039
Encoding: 1061 1061 193
Width: 1589
Flags: HW
Fore
694 575 m 1,0,-1
 383 121 l 1
 567 121 l 1
 567 0 l 1
 37 0 l 1
 37 121 l 1
 221 121 l 1
 614 692 l 1
 147 1372 l 1
 10 1372 l 1
 10 1493 l 1
 752 1493 l 1
 752 1372 l 1
 588 1372 l 1
 877 952 l 1
 1163 1372 l 1
 989 1372 l 1
 989 1493 l 1
 1509 1493 l 1
 1509 1372 l 1
 1325 1372 l 1
 956 836 l 1
 1446 121 l 1
 1587 121 l 1
 1587 0 l 1
 842 0 l 1
 842 121 l 1
 1008 121 l 1
 694 575 l 1,0,-1
EndSplineSet
EndChar
StartChar: afii10040
Encoding: 1062 1062 194
Width: 1935
Flags: HW
Fore
1870 121 m 1,0,-1
 1651 121 l 1
 1651 1372 l 1
 1843 1372 l 1
 1843 1493 l 1
 1075 1493 l 1
 1075 1372 l 1
 1266 1372 l 1
 1266 137 l 1
 672 137 l 1
 672 1372 l 1
 864 1372 l 1
 864 1493 l 1
 96 1493 l 1
 96 1372 l 1
 287 1372 l 1
 287 121 l 1
 96 121 l 1
 96 0 l 1
 1519 0 l 1
 1519 -358 l 1
 1870 -358 l 1
 1870 121 l 1,0,-1
EndSplineSet
EndChar
StartChar: afii10041
Encoding: 1063 1063 195
Width: 1864
Flags: HW
Fore
1758 1493 m 1,0,-1
 1758 1372 l 1
 1567 1372 l 1
 1567 121 l 1
 1758 121 l 1
 1758 0 l 1
 941 0 l 1
 941 121 l 1
 1182 121 l 1
 1182 618 l 1
 791 618 l 2
 548.994 618 548.994 618 401.5 737.5 c 0
 254 857.005 254 857.005 254 1057 c 2
 254 1372 l 1
 63 1372 l 1
 63 1493 l 1
 802 1493 l 1
 802 1372 l 1
 633 1372 l 1
 633 1057 l 2
 633 911.995 633 911.995 710.5 825.5 c 0
 788 739 788 739 918 739 c 2
 1182 739 l 1
 1180 1372 l 1
 1007 1372 l 1
 1007 1493 l 1
 1758 1493 l 1,0,-1
EndSplineSet
EndChar
StartChar: afii10042
Encoding: 1064 1064 196
Width: 2289
Flags: HW
Fore
96 0 m 1
 96 121 l 1
 287 121 l 1
 287 1372 l 1
 96 1372 l 1
 96 1493 l 1
 864 1493 l 1
 864 1372 l 1
 672 1372 l 1
 672 137 l 1
 1026 137 l 1
 1026 1200 l 1
 1246 1200 l 1
 1246 137 l 1
 1600 137 l 1
 1600 1372 l 1
 1409 1372 l 1
 1409 1493 l 1
 2177 1493 l 1
 2177 1372 l 1
 1985 1372 l 1
 1985 121 l 1
 2177 121 l 1
 2177 0 l 1
 96 0 l 1
EndSplineSet
EndChar
StartChar: afii10043
Encoding: 1065 1065 197
Width: 2320
Flags: HW
Fore
2204 121 m 1
 2204 -358 l 1
 1853 -358 l 1
 1853 0 l 1
 96 0 l 1
 96 121 l 1
 287 121 l 1
 287 1372 l 1
 96 1372 l 1
 96 1493 l 1
 864 1493 l 1
 864 1372 l 1
 672 1372 l 1
 672 137 l 1
 1026 137 l 1
 1026 1200 l 1
 1246 1200 l 1
 1246 137 l 1
 1600 137 l 1
 1600 1372 l 1
 1409 1372 l 1
 1409 1493 l 1
 2177 1493 l 1
 2177 1372 l 1
 1985 1372 l 1
 1985 121 l 1
 2204 121 l 1
EndSplineSet
EndChar
StartChar: afii10044
Encoding: 1066 1066 198
Width: 1803
Flags: HW
Fore
-76 1493 m 9,0,-1
 1046 1493 l 1
 1046 1372 l 1
 854 1372 l 1
 854 870 l 1
 930 870 l 2
 1091.6 870 1091.6 870 1225 847 c 0
 1425.24 812.475 1425.24 812.475 1566.5 697.866 c 0
 1568.26 696.437 1568.26 696.437 1570 695 c 0
 1690 596 1690 596 1690 432 c 0
 1690 209.997 1690 209.997 1522.5 105 c 0
 1400.55 28.5538 1400.55 28.5538 1237.3 9.33617 c 0
 1157.99 0 1157.99 0 1053 0 c 2
 278 0 l 1
 278 121 l 1
 469 121 l 1
 470 1356 l 1
 61 1356 l 1
 61 1120 l 1
 -76 1120 l 1
 -76 1493 l 9,0,-1
854 121 m 1,20,-1
 942 121 l 2
 1056.06 121 1056.06 121 1116.55 157.497 c 0
 1137.45 170.106 1137.45 170.106 1170 197 c 0
 1262 273.005 1262 273.005 1262 432 c 0
 1262 592 1262 592 1169 671 c 0
 1109.69 721.382 1109.69 721.382 1064.45 735.575 c 1
 1064.45 735.575 1019.42 745.42 1019.42 745.42 c 1
 986.741 750 986.741 750 942 750 c 2
 854 750 l 1
 854 121 l 1,20,-1
EndSplineSet
EndChar
StartChar: afii10045
Encoding: 1067 1067 199
Width: 2437
Flags: HW
Fore
1530 0 m 1,0,-1
 1530 121 l 1
 1721 121 l 1
 1721 1372 l 1
 1530 1372 l 1
 1530 1493 l 1
 2298 1493 l 1
 2298 1372 l 1
 2106 1372 l 1
 2106 121 l 1
 2298 121 l 1
 2298 0 l 1
 1530 0 l 1,0,-1
1043 847 m 128,-1,12
 1243.24 812.475 1243.24 812.475 1384.5 697.866 c 0
 1386.26 696.437 1386.26 696.437 1388 695 c 0
 1508 596 1508 596 1508 432 c 0
 1508 209.997 1508 209.997 1340.5 105 c 0
 1218.55 28.5538 1218.55 28.5538 1055.3 9.33617 c 0
 975.995 0 975.995 0 871 0 c 2
 96 0 l 1
 96 121 l 1
 287 121 l 1
 287 1372 l 1
 96 1372 l 1
 96 1493 l 1
 864 1493 l 1
 864 1372 l 1
 672 1372 l 1
 672 870 l 1
 748 870 l 2
 909.604 870 909.604 870 1043 847 c 128,-1,12
672 121 m 1,29,-1
 760 121 l 2
 874.058 121 874.058 121 934.548 157.497 c 0
 955.446 170.106 955.446 170.106 988 197 c 0
 1080 273.005 1080 273.005 1080 432 c 0
 1080 592 1080 592 987 671 c 0
 927.69 721.382 927.69 721.382 882.449 735.575 c 0
 836.471 750 836.471 750 760 750 c 2
 672 750 l 1
 672 121 l 1,29,-1
EndSplineSet
EndChar
StartChar: afii10046
Encoding: 1068 1068 200
Width: 1621
Flags: HW
Fore
1043 847 m 128,-1,0
 1243.24 812.475 1243.24 812.475 1384.5 697.866 c 0
 1386.26 696.437 1386.26 696.437 1388 695 c 0
 1508 596 1508 596 1508 432 c 0
 1508 209.997 1508 209.997 1340.5 105 c 0
 1218.55 28.5538 1218.55 28.5538 1055.3 9.33617 c 0
 975.995 0 975.995 0 871 0 c 2
 96 0 l 1
 96 121 l 1
 287 121 l 1
 287 1372 l 1
 96 1372 l 1
 96 1493 l 1
 864 1493 l 1
 864 1372 l 1
 672 1372 l 1
 672 870 l 1
 748 870 l 2
 909.604 870 909.604 870 1043 847 c 128,-1,0
672 121 m 1,17,-1
 760 121 l 2
 874.058 121 874.058 121 934.548 157.497 c 0
 955.446 170.106 955.446 170.106 988 197 c 0
 1080 273.005 1080 273.005 1080 432 c 0
 1080 592 1080 592 987 671 c 0
 927.69 721.382 927.69 721.382 882.449 735.575 c 0
 836.471 750 836.471 750 760 750 c 2
 672 750 l 1
 672 121 l 1,17,-1
EndSplineSet
EndChar
StartChar: afii10047
Encoding: 1069 1069 201
Width: 1629
Flags: HW
Fore
86 426 m 1
 144.23 196.066 144.23 196.066 298 83 c 0
 450.32 -29 450.32 -29 709 -29 c 0
 1088.04 -29 1088.04 -29 1306 180 c 1
 1526 386.531 1526 386.531 1526 745 c 0
 1526 1102.48 1526 1102.48 1306 1312 c 0
 1085.94 1520 1085.94 1520 709 1520 c 0
 578.286 1520 578.286 1520 432 1488 c 0
 292.364 1457.45 292.364 1457.45 127 1391 c 1
 127 1024 l 1
 254 1024 l 1
 293.117 1212.06 293.117 1212.06 396 1306 c 0
 499.5 1399 499.5 1399 668 1399 c 0
 886.157 1399 886.157 1399 992 1238 c 0
 1085.42 1096.36 1085.42 1096.36 1097 830 c 1
 432 830 l 1
 432 669 l 1
 1097 669 l 1
 1090.54 415.64 1090.54 415.64 1005.13 272.825 c 0
 998.83 262.297 998.83 262.297 992 252 c 0
 885.832 92 885.832 92 666 92 c 0
 518.582 92 518.582 92 422 175 c 1
 328.519 257.927 328.519 257.927 285 426 c 1
 86 426 l 1
EndSplineSet
EndChar
StartChar: afii10048
Encoding: 1070 1070 202
Width: 2636
Flags: HW
Fore
96 0 m 1
 96 121 l 1
 287 121 l 1
 287 1372 l 1
 96 1372 l 1
 96 1493 l 1
 864 1493 l 1
 864 1372 l 1
 672 1372 l 1
 672 828 l 1
 907.967 828 l 1
 930.228 1131.28 930.228 1131.28 1119.5 1313.5 c 0
 1333.99 1520 1333.99 1520 1710 1520 c 0
 2086.99 1520 2086.99 1520 2301 1314 c 0
 2515 1108.01 2515 1108.01 2515 745 c 0
 2515 383 2515 383 2300.5 177 c 0
 2086 -29 2086 -29 1710 -29 c 0
 1333 -29 1333 -29 1119 177 c 0
 928.617 360.265 928.617 360.265 907.606 667 c 1
 672 667 l 1
 672 121 l 1
 864 121 l 1
 864 0 l 1
 96 0 l 1
1710 92 m 0
 1901 92 1901 92 1994 253 c 0
 2087 414 2087 414 2087 745 c 0
 2087 1077 2087 1077 1994 1238 c 0
 1901 1399 1901 1399 1710 1399 c 0
 1520 1399 1520 1399 1426.5 1236.5 c 0
 1333 1074 1333 1074 1333 745 c 0
 1333 417 1333 417 1426.5 254.5 c 0
 1520 92.0005 1520 92.0005 1710 92 c 0
EndSplineSet
EndChar
StartChar: afii10049
Encoding: 1071 1071 203
Width: 1702
Flags: HW
Fore
723 729 m 1,0,1
 633.999 715.999 633.999 715.999 573 670 c 0
 512 624 512 624 467 537 c 2
 249 121 l 1
 96 121 l 1
 96 0 l 1
 587 0 l 1
 825 451 l 1
 894 591 894 591 942.5 629.5 c 0
 990.999 668 990.999 668 1077 668 c 2
 1138 668 l 1
 1138 121 l 1
 946 121 l 1
 946 0 l 1
 1714 0 l 1
 1714 121 l 1
 1523 121 l 1
 1523 1372 l 1
 1714 1372 l 1
 1714 1493 l 1
 862 1493 l 2
 601.993 1493 601.993 1493 460.5 1388.5 c 0
 319 1283.99 319 1283.99 319 1092 c 0
 319 936 319 936 419.5 845.5 c 0
 520.001 754.999 520.001 754.999 723 729 c 1,0,1
1138 788 m 1,28,-1
 1007 788 l 2
 866.999 788 866.999 788 791.5 864 c 0
 716 940 716 940 716 1081 c 0
 716 1222 716 1222 791.5 1297 c 0
 867 1372 867 1372 1007 1372 c 2
 1138 1372 l 1
 1138 788 l 1,28,-1
EndSplineSet
EndChar
StartChar: afii10065
Encoding: 1072 1072 204
Width: 1327
Flags: HW
Fore
1128 653 m 2,0,-1
 1128 121 l 1
 1280 121 l 1
 1280 0 l 1
 774 0 l 1
 774 135 l 1
 704 51 704 51 618 11 c 0
 532.001 -29 532.001 -29 422 -29 c 0
 259 -29 259 -29 171.5 58.5 c 0
 84.0005 145.999 84.0005 145.999 84 309 c 0
 84 488.001 84 488.001 209.5 577 c 0
 335.001 666 335.001 666 588 666 c 2
 774 666 l 1
 774 729 l 2
 774 858 774 858 713 919.5 c 0
 652 981 652 981 524 981 c 0
 418 981 418 981 360.5 937.5 c 0
 303 894 303 894 279 795 c 1
 166 795 l 1
 166 1024 l 1
 260.999 1058 260.999 1058 363 1075 c 0
 465.03 1092 465.03 1092 578 1092 c 0
 863.007 1092 863.007 1092 995.5 986 c 0
 1128 879.995 1128 879.995 1128 653 c 2,0,-1
774 334 m 1,30,-1
 774 547 l 1
 641 547 l 2
 542 547 542 547 489 493 c 0
 436 439 436 439 436 338 c 0
 436 236.999 436 236.999 474.5 187 c 0
 513.001 137 513.001 137 592 137 c 0
 674 137 674 137 724 191 c 0
 774 245 774 245 774 334 c 1,30,-1
EndSplineSet
EndChar
StartChar: afii10066
Encoding: 1073 1073 205
Width: 1366
Flags: HW
Fore
684 1092 m 0
 966 1092 966 1092 1125 943.5 c 0
 1284 795 1284 795 1284 532 c 0
 1284 270.005 1284 270.005 1124.5 120.5 c 0
 965.005 -29 965.005 -29 684 -29 c 0
 402.999 -29 402.999 -29 243.5 120.5 c 0
 84 270.001 84 270.001 84 532 c 0
 84 795 84 795 243.5 943.5 c 0
 303.965 999.795 303.965 999.795 381.89 1034.75 c 1
 241.689 1062.11 241.689 1062.11 183.782 1156.6 c 0
 158.293 1198.19 158.293 1198.19 157 1243 c 0
 152.77 1389.65 152.77 1389.65 296.586 1461.94 c 0
 301.689 1464.5 301.689 1464.5 307 1467 c 0
 411.143 1515.98 411.143 1515.98 636.529 1512.62 c 0
 814.071 1509.97 814.071 1509.97 826.919 1510.54 c 0
 831.589 1510.74 831.589 1510.74 836 1511 c 2
 836 1511 1060.73 1518.21 1060.73 1518.21 c 1
 1137.07 1524.25 1137.07 1524.25 1204 1548 c 1
 1159 1336 l 1
 1081.42 1308.04 1081.42 1308.04 1009.83 1305.95 c 0
 961.917 1304.55 961.917 1304.55 937 1302 c 0
 869.143 1295.06 869.143 1295.06 731.818 1298.21 c 0
 697.548 1299 697.548 1299 669 1299 c 0
 548.304 1299 548.304 1299 507.433 1248.85 c 0
 493.586 1231.85 493.586 1231.85 494 1212 c 0
 494.868 1170.31 494.868 1170.31 518.602 1150.9 c 0
 521.802 1148.28 521.802 1148.28 539 1136 c 0
 578.44 1107.83 578.44 1107.83 656.88 1094.76 c 0
 673.426 1092 673.426 1092 684 1092 c 0
684 84 m 0
 796 84 796 84 841.5 180 c 0
 887 276 887 276 887 532 c 0
 887 788 887 788 842 883.5 c 0
 797 979 797 979 684 979 c 0
 571 979 571 979 525 882.5 c 0
 479 786.002 479 786.002 479 532 c 0
 479 278 479 278 525 181 c 0
 571 83.9995 571 83.9995 684 84 c 0
EndSplineSet
EndChar
StartChar: afii10067
Encoding: 1074 1074 206
Width: 1503
Flags: HW
Fore
105 0 m 1,0,-1
 105 121 l 1
 277 121 l 1
 277 942 l 1
 105 942 l 1
 105 1063 l 1
 836 1063 l 2
 1061.53 1063 1061.53 1063 1187 998 c 1
 1310 932 1310 932 1310 800 c 0
 1310 705.175 1310 705.175 1225 650 c 0
 1137.44 593.165 1137.44 593.165 990 580 c 1
 1173.62 566.398 1173.62 566.398 1283 495 c 0
 1391 424.5 1391 424.5 1391 308 c 0
 1391 149.752 1391 149.752 1240 75 c 0
 1090 0 1090 0 786 0 c 2
 105 0 l 1,0,-1
623 654 m 1,19,-1
 702 654 l 2
 821.246 654 821.246 654 888.708 689.775 c 0
 896.6 693.96 896.6 693.96 905 699 c 0
 952.878 727.727 952.878 727.727 963.06 739.965 c 0
 980 760.325 980 760.325 980 800 c 0
 980 850.142 980 850.142 949.804 873.492 c 0
 941.706 879.755 941.706 879.755 907 900 c 0
 842.543 937.6 842.543 937.6 738.703 941.375 c 0
 721.523 942 721.523 942 702 942 c 2
 623 942 l 1
 623 654 l 1,19,-1
623 121 m 1,28,-1
 713 121 l 2
 847.053 121 847.053 121 921.987 163.386 c 0
 931.337 168.675 931.337 168.675 941 175 c 0
 993.636 209.453 993.636 209.453 1008.11 234.145 c 0
 1024 261.259 1024 261.259 1024 308 c 0
 1024 372.84 1024 372.84 987.492 407.228 c 1
 987.492 407.228 953.842 433.517 953.842 433.517 c 2
 948.572 437.183 948.572 437.183 940 443 c 0
 867.794 490.708 867.794 490.708 765.722 497.407 c 1
 765.722 497.407 713 499 713 499 c 1
 623 499 l 1
 623 121 l 1,28,-1
EndSplineSet
EndChar
StartChar: afii10068
Encoding: 1075 1075 207
Width: 1305
Flags: HW
Fore
1053 942 m 1,0,-1
 1053 774 l 1
 1174 774 l 1
 1174 1063 l 1
 70 1063 l 1
 70 942 l 1
 221 942 l 1
 221 121 l 1
 70 121 l 1
 70 0 l 1
 705 0 l 1
 705 121 l 1
 575 121 l 1
 575 942 l 1
 1053 942 l 1,0,-1
EndSplineSet
EndChar
StartChar: afii10069
Encoding: 1076 1076 208
Width: 1785
Flags: HW
Fore
1426 0 m 1
 1669 0 l 1
 1646 -530 l 1
 1486 -530 l 1
 1489.64 -321.142 1489.64 -321.142 1440.29 -221.842 c 0
 1407.44 -155.74 1407.44 -155.74 1348 -118 c 1
 425 -118 l 1
 311.542 -190.39 311.542 -190.39 288.986 -337.659 c 0
 284.075 -369.722 284.075 -369.722 278.849 -496.559 c 0
 278.072 -515.428 278.072 -515.428 277 -530 c 1
 124 -530 l 1
 101 0 l 1
 355 0 l 1
 363 10 363 10 367 16 c 0
 388.158 50.5208 388.158 50.5208 396.483 242.784 c 0
 398 277.826 398 277.826 398 304 c 2
 398 942 l 1
 247 942 l 1
 247 1063 l 1
 1578 1063 l 1
 1578 942 l 1
 1426 942 l 1
 1426 0 l 1
696 0 m 1
 1072 0 l 1
 1072 942 l 1
 750 942 l 1
 750 304 l 2
 750 191.163 750 191.163 724.963 79.9012 c 0
 711.975 22.1881 711.975 22.1881 696 0 c 1
EndSplineSet
EndChar
StartChar: afii10070
Encoding: 1077 1077 209
Width: 1303
Flags: HW
Fore
821 600 m 1,0,1
 821 810 821 810 782 894.5 c 0
 743 979 743 979 649 979 c 0
 558 979 558 979 518.5 896 c 0
 479 813 479 813 479 618 c 1
 479 600 l 1
 821 600 l 1,0,1
1210 481 m 1,8,-1
 479 481 l 1
 479 473 l 2
 479 267 479 267 541 175.5 c 0
 603 84 603 84 741 84 c 0
 856 84 856 84 927 145 c 0
 998.006 206.006 998.006 206.006 1018 322 c 1
 1184 322 l 1
 1141 141.001 1141 141.001 1013 56 c 0
 885 -29 885 -29 655 -29 c 0
 379 -29 379 -29 231.5 116.5 c 0
 84 262.001 84 262.001 84 532 c 0
 84 796 84 796 235 944 c 0
 385.995 1092 385.995 1092 655 1092 c 0
 919.005 1092 919.005 1092 1060 936.5 c 0
 1201 781 1201 781 1210 481 c 1,8,-1
EndSplineSet
EndChar
StartChar: afii10072
Encoding: 1078 1078 210
Width: 2177
Flags: HW
Fore
1388 1063 m 1,6,-1
 1388 943 l 1
 1254 943 l 1
 1254 557 l 1
 1638 942 l 1
 1511 942 l 1
 1511 1063 l 1
 1996 1063 l 1
 1996 942 l 1
 1799 942 l 1
 1525 696 l 1
 1973 121 l 1
 2088 121 l 1
 2088 0 l 1
 1478 0 l 1
 1478 121 l 1
 1603 121 l 1
 1321 483 l 1
 1254 412 l 1
 1254 121 l 1
 1388 121 l 1
 1388 0 l 1
 770 0 l 1
 770 121 l 1
 904 121 l 1
 904 412 l 1
 838 483 l 1
 555 121 l 1
 680 121 l 1
 680 0 l 1
 70 0 l 1
 70 121 l 1
 185 121 l 1
 633 696 l 1
 359 942 l 1
 162 942 l 1
 162 1063 l 1
 647 1063 l 1
 647 942 l 1
 520 942 l 1
 904 557 l 1
 904 943 l 1
 770 943 l 1
 770 1063 l 1
 1388 1063 l 1,6,-1
EndSplineSet
EndChar
StartChar: afii10073
Encoding: 1079 1079 211
Width: 1245
Flags: HW
Fore
129 1028 m 1,0,1
 245.217 1052.39 245.217 1052.39 365 1065 c 0
 474.778 1078 474.778 1078 588 1078 c 0
 804.512 1078 804.512 1078 933.979 1015.03 c 0
 939.999 1012.1 939.999 1012.1 946 1009 c 0
 1079 940.258 1079 940.258 1079 812 c 0
 1079 715.608 1079 715.608 1003 656 c 0
 930.847 600.824 930.847 600.824 841.836 582.642 c 2
 841.836 582.642 803 576 803 576 c 1
 944.917 558.26 944.917 558.26 1029.37 494.938 c 0
 1038.09 488.4 1038.09 488.4 1047 481 c 0
 1135 409.407 1135 409.407 1135 283 c 0
 1135 132.98 1135 132.98 983 54 c 0
 833.244 -22.3462 833.244 -22.3462 585.509 -24.8958 c 0
 575.383 -25 575.383 -25 565 -25 c 0
 460.778 -25 460.778 -25 341 -11 c 0
 219.135 4.82664 219.135 4.82664 99 32 c 1
 99 266 l 1
 210 266 l 1
 216.181 205.955 216.181 205.955 254.87 170.633 c 0
 265.827 160.63 265.827 160.63 292 141 c 0
 364.686 88 364.686 88 492 88 c 0
 632.122 88 632.122 88 708 149 c 0
 758.779 188.827 758.779 188.827 772.584 219.272 c 0
 785 246.655 785 246.655 785 289 c 0
 785 359.864 785 359.864 744.587 402.188 c 0
 731.084 416.33 731.084 416.33 705 437 c 0
 625.5 500 625.5 500 479 500 c 2
 418 500 l 1
 418 637 l 1
 466 637 l 2
 601.697 637 601.697 637 670 686 c 0
 719.119 720.929 719.119 720.929 730.982 756.835 c 0
 738 778.08 738 778.08 738 808 c 0
 738 861.083 738 861.083 707.033 890.451 c 1
 707.033 890.451 674 917 674 917 c 1
 609.5 965 609.5 965 490 965 c 0
 382.933 965 382.933 965 317 919 c 1
 272.408 886.086 272.408 886.086 262.007 872.242 c 0
 245.845 850.73 245.845 850.73 241 815 c 1
 129 815 l 1
 129 1028 l 1,0,1
EndSplineSet
EndChar
StartChar: afii10074
Encoding: 1080 1080 212
Width: 1499
Flags: HW
Fore
1278 942 m 1,0,-1
 1278 121 l 1
 1430 121 l 1
 1430 0 l 1
 793 0 l 1
 793 121 l 1
 924 121 l 1
 924 597 l 1
 575 234 l 1
 575 121 l 1
 705 121 l 1
 705 0 l 1
 70 0 l 1
 70 121 l 1
 221 121 l 1
 221 942 l 1
 70 942 l 1
 70 1063 l 1
 705 1063 l 1
 705 942 l 1
 575 942 l 1
 575 460 l 1
 924 823 l 1
 924 942 l 1
 793 942 l 1
 793 1063 l 1
 1430 1063 l 1
 1430 942 l 1
 1278 942 l 1,0,-1
EndSplineSet
EndChar
StartChar: afii10076
Encoding: 1082 1082 214
Width: 1419
Flags: HW
Fore
709 0 m 1,0,-1
 70 0 l 1
 70 121 l 1
 221 121 l 1
 221 943 l 1
 70 943 l 1
 70 1063 l 1
 709 1063 l 1
 709 943 l 1
 575 943 l 1
 575 557 l 1
 1004 942 l 1
 877 942 l 1
 877 1063 l 1
 1362 1063 l 1
 1362 942 l 1
 1165 942 l 1
 891 696 l 1
 1339 121 l 1
 1454 121 l 1
 1454 0 l 1
 844 0 l 1
 844 121 l 1
 969 121 l 1
 674 500 l 1
 575 412 l 1
 575 121 l 1
 709 121 l 1
 709 0 l 1,0,-1
EndSplineSet
EndChar
StartChar: afii10077
Encoding: 1083 1083 215
Width: 1499
Flags: HW
Fore
602 942 m 1,0,-1
 924 942 l 1
 924 121 l 1
 793 121 l 1
 793 0 l 1
 1430 0 l 1
 1430 121 l 1
 1278 121 l 1
 1278 942 l 1
 1430 942 l 1
 1430 1063 l 1
 99 1063 l 1
 99 942 l 1
 250 942 l 1
 250 304 l 1
 249.776 183.878 249.776 183.878 219 134 c 0
 190.001 87.0005 190.001 87.0005 117 87 c 0
 51 87 51 87 21.5 122.5 c 0
 -8.00048 158.001 -8.00048 158.001 -10 238 c 1
 -123 239 l 1
 -123 13 l 1
 -50.0081 -5.99825 -50.0081 -5.99825 18 -16 c 0
 85.9995 -26.0005 85.9995 -26.0005 146 -26 c 0
 371 -26 371 -26 486.5 57.5 c 0
 601.694 140.779 601.694 140.779 602 304 c 1
 602 942 l 1,0,-1
EndSplineSet
EndChar
StartChar: afii10078
Encoding: 1084 1084 216
Width: 2178
Flags: HW
Fore
159 0 m 1,0,-1
 159 117.152 l 1
 315.274 117.152 l 1
 315.274 946.863 l 1
 159 946.863 l 1
 159 1063.02 l 1
 708.26 1063.02 l 1
 1101.25 350.92 l 1
 1496.08 1063.02 l 1
 2047.41 1063.02 l 1
 2047.41 946.863 l 1
 1887.21 946.863 l 1
 1887.21 117.152 l 1
 2047.41 117.152 l 1
 2047.41 0 l 1
 1403.93 0 l 1
 1403.93 117.152 l 1
 1530.21 117.152 l 1
 1530.21 867.12 l 1
 1103.09 156.928 l 1
 869.697 156.928 l 1
 444.425 867.12 l 1
 444.425 117.152 l 1
 582.7 117.152 l 1
 582.7 0 l 1
 159 0 l 1,0,-1
EndSplineSet
EndChar
StartChar: afii10079
Encoding: 1085 1085 217
Width: 1499
Flags: HW
Fore
1278 942 m 1,0,-1
 1278 121 l 1
 1430 121 l 1
 1430 0 l 1
 793 0 l 1
 793 121 l 1
 924 121 l 1
 924 502 l 1
 575 502 l 1
 575 121 l 1
 705 121 l 1
 705 0 l 1
 70 0 l 1
 70 121 l 1
 221 121 l 1
 221 942 l 1
 70 942 l 1
 70 1063 l 1
 705 1063 l 1
 705 942 l 1
 575 942 l 1
 575 623 l 1
 924 623 l 1
 924 942 l 1
 793 942 l 1
 793 1063 l 1
 1430 1063 l 1
 1430 942 l 1
 1278 942 l 1,0,-1
EndSplineSet
EndChar
StartChar: afii10080
Encoding: 1086 1086 218
Width: 1366
Flags: HW
Fore
684 84 m 0,0,1
 796 84 796 84 841.5 180 c 0
 887 276 887 276 887 532 c 0
 887 788 887 788 842 883.5 c 0
 797 979 797 979 684 979 c 0
 571 979 571 979 525 882.5 c 0
 479 786.002 479 786.002 479 532 c 0
 479 278 479 278 525 181 c 0
 571 83.9995 571 83.9995 684 84 c 0,0,1
684 -29 m 0,12,13
 402.999 -29 402.999 -29 243.5 120.5 c 0
 84 270.001 84 270.001 84 532 c 0
 84 795 84 795 243.5 943.5 c 0
 403 1092 403 1092 684 1092 c 0
 966 1092 966 1092 1125 943.5 c 0
 1284 795 1284 795 1284 532 c 0
 1284 270.005 1284 270.005 1124.5 120.5 c 0
 965.005 -29 965.005 -29 684 -29 c 0,12,13
EndSplineSet
EndChar
StartChar: afii10081
Encoding: 1087 1087 219
Width: 1499
Flags: HW
Fore
70 0 m 1,0,-1
 70 121 l 1
 221 121 l 1
 221 942 l 1
 70 942 l 1
 70 1063 l 1
 1430 1063 l 1
 1430 942 l 1
 1278 942 l 1
 1278 121 l 1
 1430 121 l 1
 1430 0 l 1
 793 0 l 1
 793 121 l 1
 924 121 l 1
 924 942 l 1
 575 942 l 1
 575 121 l 1
 705 121 l 1
 705 0 l 1
 70 0 l 1,0,-1
EndSplineSet
EndChar
StartChar: afii10082
Encoding: 1088 1088 220
Width: 1432
Flags: HW
Fore
553 584 m 1,0,-1
 553 479 l 2
 553 293 553 293 600.5 210 c 0
 648.001 127 648.001 127 754 127 c 0
 863 127 863 127 907.5 215 c 0
 952 303 952 303 952 532 c 0
 952 761 952 761 907.5 848.5 c 0
 862.999 936 862.999 936 754 936 c 0
 648.001 936 648.001 936 600.5 853 c 0
 553 770 553 770 553 584 c 1,0,-1
199 942 m 1,13,-1
 47 942 l 1
 47 1063 l 1
 553 1063 l 1
 553 928 l 1
 598 1011 598 1011 674 1051.5 c 0
 750 1092 750 1092 862 1092 c 0
 1089 1092 1089 1092 1219.5 942.5 c 0
 1350 793 1350 793 1350 532 c 0
 1350 271 1350 271 1219.5 121 c 0
 1089 -29 1089 -29 862 -29 c 0
 750 -29 750 -29 674 11.5 c 0
 598 52 598 52 553 135 c 1
 553 -305 l 1
 717 -305 l 1
 717 -426 l 1
 47 -426 l 1
 47 -305 l 1
 199 -305 l 1
 199 942 l 1,13,-1
EndSplineSet
EndChar
StartChar: afii10083
Encoding: 1089 1089 221
Width: 1247
Flags: HW
Fore
1155 332 m 1,0,1
 1117.01 150.01 1117.01 150.01 999.5 60.5 c 0
 882 -29 882 -29 680 -29 c 0
 396 -29 396 -29 240 118 c 0
 84 265 84 265 84 532 c 0
 84 796 84 796 238 944 c 0
 391.995 1092 391.995 1092 666 1092 c 0
 777 1092 777 1092 890 1071 c 0
 1003 1050 1003 1050 1120 1008 c 1
 1120 713 l 1
 1008 713 l 1
 992 848 992 848 929 913.5 c 0
 866 979 866 979 752 979 c 0
 604 979 604 979 541.5 879 c 0
 479 779 479 779 479 532 c 0
 479 291 479 291 540 187.5 c 0
 601 84 601 84 739 84 c 0
 846 84 846 84 910.5 148 c 0
 975.001 212.001 975.001 212.001 989 332 c 1
 1155 332 l 1,0,1
EndSplineSet
EndChar
StartChar: afii10084
Encoding: 1090 1090 222
Width: 1269
Flags: HW
Fore
66 1063 m 1,0,-1
 66 774 l 1
 187 774 l 1
 187 942 l 1
 443 942 l 1
 443 121 l 1
 292 121 l 1
 292 0 l 1
 927 0 l 1
 927 121 l 1
 797 121 l 1
 797 942 l 1
 1053 942 l 1
 1053 774 l 1
 1174 774 l 1
 1174 1063 l 1
 66 1063 l 1,0,-1
EndSplineSet
EndChar
StartChar: afii10085
Encoding: 1091 1091 223
Width: 1190
Flags: HW
Fore
639 -240 m 1,0,1
 591 -357 591 -357 523 -406 c 0
 455 -455 455 -455 340 -455 c 0
 291 -455 291 -455 231 -444 c 0
 171.003 -433.001 171.003 -433.001 100 -412 c 1
 100 -190 l 1
 213 -191 l 1
 216 -267.999 216 -267.999 249.5 -305 c 0
 283 -342 283 -342 350 -342 c 0
 415 -342 415 -342 455 -306.5 c 0
 494.999 -271.001 494.999 -271.001 535 -172 c 1
 551 -135 l 1
 88 942 l 1
 -27 942 l 1
 -27 1063 l 1
 586 1063 l 1
 586 942 l 1
 459 942 l 1
 729 313 l 1
 981 942 l 1
 840 942 l 1
 840 1063 l 1
 1239 1063 l 1
 1239 942 l 1
 1110 942 l 1
 639 -240 l 1,0,1
EndSplineSet
EndChar
StartChar: afii10086
Encoding: 1092 1092 224
Width: 1674
Flags: HW
Fore
980 84 m 2
 1092.74 84 1092.74 84 1139 181 c 0
 1185 277.452 1185 277.452 1185 532 c 0
 1185 787.032 1185 787.032 1139 882 c 0
 1092.74 979 1092.74 979 980 979 c 2
 966 979 l 1
 966 84 l 1
 980 84 l 2
580 1426 m 5
 1097 1426 l 1
 1097 1305 l 1
 966 1305 l 1
 966 1092 l 1
 980 1092 l 2
 1259.92 1092 1259.92 1092 1420 944 c 0
 1580 794.467 1580 794.467 1580 532 c 0
 1580 269.533 1580 269.533 1420 120 c 0
 1260.46 -29 1260.46 -29 980 -29 c 2
 966 -29 l 1
 966 -254 l 1
 1097 -254 l 1
 1097 -375 l 1
 580 -375 l 1
 580 -254 l 1
 711 -254 l 1
 711 -29 l 1
 684 -29 l 2
 403.535 -29 403.535 -29 244 120 c 0
 84 269.533 84 269.533 84 532 c 0
 84 794.467 84 794.467 244 944 c 0
 404.082 1092 404.082 1092 684 1092 c 2
 711 1092 l 1
 711 1305 l 1
 580 1305 l 1
 580 1426 l 5
711 84 m 1
 711 979 l 1
 684 979 l 2
 571.262 979 571.262 979 525 882 c 0
 479 787.032 479 787.032 479 532 c 0
 479 277.452 479 277.452 525 181 c 0
 571.262 84 571.262 84 684 84 c 2
 711 84 l 1
EndSplineSet
EndChar
StartChar: afii10087
Encoding: 1093 1093 225
Width: 1221
Flags: HW
Fore
719 678 m 1,0,-1
 907 942 l 1
 776 942 l 1
 776 1063 l 1
 1190 1063 l 1
 1190 942 l 1
 1049 942 l 1
 778 563 l 1
 1094 121 l 1
 1235 121 l 1
 1235 0 l 1
 559 0 l 1
 559 121 l 1
 696 121 l 1
 496 401 l 1
 295 121 l 1
 438 121 l 1
 438 0 l 1
 0 0 l 1
 0 121 l 1
 152 121 l 1
 434 518 l 1
 129 942 l 1
 10 942 l 1
 10 1063 l 1
 659 1063 l 1
 659 942 l 1
 530 942 l 1
 719 678 l 1,0,-1
EndSplineSet
EndChar
StartChar: afii10088
Encoding: 1094 1094 226
Width: 1499
Flags: HW
Fore
70 1063 m 1,0,-1
 70 942 l 1
 221 942 l 1
 221 121 l 1
 70 121 l 1
 70 0 l 1
 1119 0 l 1
 1119 -332 l 1
 1465 -332 l 1
 1465 121 l 1
 1278 121 l 1
 1278 942 l 1
 1430 942 l 1
 1430 1063 l 1
 793 1063 l 1
 793 942 l 1
 924 942 l 1
 924 121 l 1
 575 121 l 1
 575 942 l 1
 705 942 l 1
 705 1063 l 1
 70 1063 l 1,0,-1
EndSplineSet
EndChar
StartChar: afii10089
Encoding: 1095 1095 227
Width: 1499
Flags: HW
Fore
727 401 m 2,13,-1
 924 401 l 1
 924 121 l 1
 793 121 l 1
 793 0 l 1
 1430 0 l 1
 1430 121 l 1
 1278 121 l 1
 1278 942 l 1
 1430 942 l 1
 1430 1063 l 1
 793 1063 l 1
 793 942 l 1
 924 942 l 1
 924 522 l 1
 705 522 l 2
 705 522 705 522 658.449 526.284 c 1
 618.239 533.444 618.239 533.444 600 550 c 0
 573.496 574.277 573.496 574.277 575 640 c 1
 575 942 l 1
 705 942 l 1
 705 1063 l 1
 70 1063 l 1
 70 942 l 1
 221 942 l 1
 221 656 l 2
 221 550.852 221 550.852 300.432 493.779 c 0
 322.563 477.877 322.563 477.877 365 456 c 0
 477.038 398.242 477.038 398.242 702.461 400.447 c 0
 727 401 727 401 727 401 c 2,13,-1
EndSplineSet
EndChar
StartChar: afii10090
Encoding: 1096 1096 228
Width: 2049
Flags: HW
Fore
1944 0 m 1,0,-1
 1944 121 l 1
 1793 121 l 1
 1793 942 l 1
 1944 942 l 1
 1944 1063 l 1
 1309 1063 l 1
 1309 942 l 1
 1439 942 l 1
 1439 121 l 1
 1140 121 l 1
 1140 809 l 1
 1205 809 l 1
 1205 930 l 1
 809 930 l 1
 809 809 l 1
 874 809 l 1
 874 121 l 1
 575 121 l 1
 575 942 l 1
 705 942 l 1
 705 1063 l 1
 70 1063 l 1
 70 942 l 1
 221 942 l 1
 221 121 l 1
 70 121 l 1
 70 0 l 1
 1944 0 l 1,0,-1
EndSplineSet
EndChar
StartChar: afii10091
Encoding: 1097 1097 229
Width: 2084
Flags: HW
Fore
70 1063 m 1
 70 942 l 1
 221 942 l 1
 221 121 l 1
 70 121 l 1
 70 0 l 1
 1633 0 l 1
 1633 -332 l 1
 1979 -332 l 1
 1979 121 l 1
 1792 121 l 1
 1792 942 l 1
 1944 942 l 1
 1944 1063 l 1
 1307 1063 l 1
 1307 942 l 1
 1438 942 l 1
 1438 121 l 1
 1140 121 l 1
 1140 809 l 1
 1205 809 l 1
 1205 930 l 1
 809 930 l 1
 809 809 l 1
 874 809 l 1
 874 121 l 1
 575 121 l 1
 575 942 l 1
 705 942 l 1
 705 1063 l 1
 70 1063 l 1
EndSplineSet
EndChar
StartChar: afii10092
Encoding: 1098 1098 230
Width: 1415
Flags: HW
Fore
703 624 m 130,-1,2
 647 624 l 1
 647 942 l 1
 784 942 l 1
 784 1063 l 1
 -21 1063 l 1
 -21 749 l 1
 116 749 l 1
 116 942 l 1
 304 942 l 1
 304 121 l 1
 168 121 l 1
 168 0 l 1
 855 0 l 2
 1036.18 0 1036.18 0 1149.95 53.2932 c 0
 1169.5 62.4513 1169.5 62.4513 1190 74 c 0
 1321 149.287 1321 149.287 1321 286 c 0
 1321 392.649 1321 392.649 1250.01 458.328 c 0
 1239.62 467.94 1239.62 467.94 1228 476 c 2
 1228 476 1135.82 540.736 1135.82 540.736 c 1
 1059.39 589.236 1059.39 589.236 983 603 c 0
 866.8 624 866.8 624 703 624 c 130,-1,2
647 502 m 1,28,-1
 768 502 l 2
 841.851 502 841.851 502 882.389 475.738 c 0
 891.445 469.872 891.445 469.872 920 448 c 0
 989 394 989 394 989 293 c 0
 989 236.219 989 236.219 958.073 206.004 c 1
 958.073 206.004 920 175 920 175 c 1
 872.755 138.812 872.755 138.812 849.001 130.875 c 0
 819.45 121 819.45 121 768 121 c 2
 647 121 l 1
 647 502 l 1,28,-1
EndSplineSet
EndChar
StartChar: afii10093
Encoding: 1099 1099 231
Width: 2040
Flags: HW
Fore
619 616 m 130,-1,2
 563 616 l 1
 563 942 l 1
 700 942 l 1
 700 1063 l 1
 84 1063 l 1
 84 942 l 1
 220 942 l 1
 220 121 l 1
 84 121 l 1
 84 0 l 1
 771 0 l 2
 952.183 0 952.183 0 1065.95 53.2932 c 0
 1085.5 62.4513 1085.5 62.4513 1106 74 c 0
 1237 149.287 1237 149.287 1237 286 c 0
 1237 392.649 1237 392.649 1166.01 458.328 c 0
 1155.62 467.94 1155.62 467.94 1144 476 c 0
 1054.97 537.744 1054.97 537.744 1014.3 557.357 c 0
 958.449 584.288 958.449 584.288 899 595 c 0
 782.8 616 782.8 616 619 616 c 130,-1,2
563 502 m 1,28,-1
 684 502 l 2
 757.851 502 757.851 502 798.389 475.738 c 0
 807.445 469.872 807.445 469.872 836 448 c 0
 905 394 905 394 905 293 c 0
 905 236.219 905 236.219 874.073 206.004 c 1
 874.073 206.004 836 175 836 175 c 1
 788.755 138.812 788.755 138.812 765.001 130.875 c 0
 735.45 121 735.45 121 684 121 c 2
 563 121 l 1
 563 502 l 1,28,-1
1305 1063 m 1,21,-1
 1305 942 l 1
 1456 942 l 1
 1456 121 l 1
 1305 121 l 1
 1305 0 l 1
 1962 0 l 1
 1962 121 l 1
 1811 121 l 1
 1811 942 l 1
 1962 942 l 1
 1962 1063 l 1
 1305 1063 l 1,21,-1
EndSplineSet
EndChar
StartChar: afii10094
Encoding: 1100 1100 232
Width: 1360
Flags: HW
Fore
635 614 m 130,-1,2
 579 614 l 1
 579 942 l 1
 716 942 l 1
 716 1063 l 1
 100 1063 l 1
 100 942 l 1
 236 942 l 1
 236 121 l 1
 100 121 l 1
 100 0 l 1
 787 0 l 2
 968.183 0 968.183 0 1081.95 53.2932 c 0
 1101.5 62.4513 1101.5 62.4513 1122 74 c 0
 1253 149.287 1253 149.287 1253 286 c 0
 1253 392.649 1253 392.649 1182.01 458.328 c 0
 1171.62 467.94 1171.62 467.94 1160 476 c 0
 1068.01 539.801 1068.01 539.801 1017.66 561.786 c 0
 968.07 583.438 968.07 583.438 915 593 c 0
 798.8 614 798.8 614 635 614 c 130,-1,2
579 502 m 1,28,-1
 700 502 l 2
 773.851 502 773.851 502 814.389 475.738 c 0
 823.445 469.872 823.445 469.872 852 448 c 0
 921 394 921 394 921 293 c 0
 921 236.219 921 236.219 890.073 206.004 c 1
 890.073 206.004 852 175 852 175 c 1
 804.755 138.812 804.755 138.812 781.001 130.875 c 0
 751.45 121 751.45 121 700 121 c 2
 579 121 l 1
 579 502 l 1,28,-1
EndSplineSet
EndChar
StartChar: afii10095
Encoding: 1101 1101 233
Width: 1247
Flags: HW
Fore
84 332 m 1
 121.623 149.907 121.623 149.907 240 60 c 0
 357.661 -29 357.661 -29 559 -29 c 0
 843 -29 843 -29 999 118 c 0
 1155 265 1155 265 1155 532 c 0
 1155 795.981 1155 795.981 1001 944 c 0
 847.02 1092 847.02 1092 573 1092 c 0
 461.5 1092 461.5 1092 349 1071 c 0
 235.458 1049.81 235.458 1049.81 119 1008 c 1
 119 713 l 1
 231 713 l 1
 247.573 848.601 247.573 848.601 310 914 c 0
 373.488 979 373.488 979 487 979 c 0
 635.313 979 635.313 979 698 879 c 0
 753.371 789.21 753.371 789.21 759 595 c 1
 355 595 l 1
 354.004 596.966 354.004 596.966 355 476 c 1
 759 476 l 1
 749.166 271.133 749.166 271.133 699 188 c 0
 638.086 84 638.086 84 500 84 c 0
 393.488 84 393.488 84 328 148 c 1
 263.241 214.301 263.241 214.301 250 332 c 1
 84 332 l 1
EndSplineSet
EndChar
StartChar: afii10096
Encoding: 1102 1102 234
Width: 2100
Flags: HW
Fore
108 1063 m 1
 765 1063 l 1
 765 942 l 1
 614 942 l 1
 614 582 l 1
 811.504 582 l 1
 825.489 809.42 825.489 809.42 969.5 943.5 c 0
 1129 1092 1129 1092 1410 1092 c 0
 1692 1092 1692 1092 1851 943.5 c 0
 2010 795 2010 795 2010 532 c 0
 2010 270.005 2010 270.005 1850.5 120.5 c 0
 1691.01 -29 1691.01 -29 1410 -29 c 0
 1129 -29 1129 -29 969.5 120.5 c 0
 831.633 249.724 831.633 249.724 812.934 463 c 1
 614 463 l 1
 614 121 l 1
 765 121 l 1
 765 0 l 1
 108 0 l 1
 108 121 l 1
 259 121 l 1
 259 942 l 1
 108 942 l 1
 108 1063 l 1
1410 84 m 0
 1522 84 1522 84 1567.5 180 c 0
 1613 276 1613 276 1613 532 c 0
 1613 788 1613 788 1568 883.5 c 0
 1523 979 1523 979 1410 979 c 0
 1297 979 1297 979 1251 882.5 c 0
 1205 786.002 1205 786.002 1205 532 c 0
 1205 278 1205 278 1251 181 c 0
 1297 83.9995 1297 83.9995 1410 84 c 0
EndSplineSet
EndChar
StartChar: afii10097
Encoding: 1103 1103 235
Width: 1640
Flags: HW
Fore
670 519 m 1,0,1
 587.5 510 587.5 510 532 477 c 0
 475.543 444.314 475.543 444.314 434 382 c 1
 269 86 l 1
 128 86 l 1
 128 0 l 1
 581 0 l 1
 764 321 l 1
 822.244 411.753 822.244 411.753 834.894 426.132 c 0
 847.574 440.544 847.574 440.544 860 448 c 0
 894.059 469.14 894.059 469.14 907.567 472.297 c 0
 923.409 476 923.409 476 950 476 c 2
 1006 476 l 1
 1006 86 l 1
 829 86 l 1
 829 0 l 1
 1525 0 l 1
 1525 86 l 1
 1349 86 l 1
 1349 977 l 1
 1525 977 l 1
 1525 1063 l 1
 798 1063 l 2
 616.817 1063 616.817 1063 503.054 1009.71 c 0
 483.505 1000.55 483.505 1000.55 463 989 c 0
 332 913.713 332 913.713 332 777 c 0
 332 666.5 332 666.5 425 602 c 0
 504.42 546.919 504.42 546.919 596.352 529.256 c 0
 629.489 522.889 629.489 522.889 670 519 c 1,0,1
1006 561 m 1,28,-1
 885 561 l 2
 811.149 561 811.149 561 770.611 587.262 c 1
 770.611 587.262 733 615 733 615 c 1
 664 669 664 669 664 770 c 0
 664 870.5 664 870.5 733 923 c 0
 780.245 959.188 780.245 959.188 803.999 967.125 c 0
 833.55 977 833.55 977 885 977 c 2
 1006 977 l 1
 1006 561 l 1,28,-1
EndSplineSet
EndChar
StartChar: afii10099
Encoding: 1106 1106 238
Width: 1441
Flags: HW
Fore
936 621 m 2,0,1
 936 756 936 756 901.5 808.5 c 0
 867 861 867 861 782 861 c 0
 675 861 675 861 625 782.5 c 0
 575 704 575 704 575 533 c 1
 575 121 l 1
 705 121 l 1
 705 0 l 1
 70 0 l 1
 70 121 l 1
 221 121 l 1
 221 1188 l 1
 0 1188 l 1
 0 1309 l 1
 221 1309 l 1
 221 1436 l 1
 63 1436 l 1
 63 1556 l 1
 575 1556 l 1
 575 1309 l 1
 967 1309 l 1
 967 1188 l 1
 575 1188 l 1
 575 848 l 1
 639.002 943.001 639.002 943.001 721 985 c 0
 803 1027 803 1027 928 1027 c 0
 1107 1027 1107 1027 1198.5 921.5 c 0
 1290 816 1290 816 1290 611 c 2
 1290 -125 l 2
 1290 -288 1290 -288 1174.5 -371.5 c 0
 1059 -455 1059 -455 834 -455 c 0
 774 -455 774 -455 706 -445 c 0
 637.992 -434.998 637.992 -434.998 565 -416 c 1
 565 -190 l 1
 678 -191 l 1
 680 -270.999 680 -270.999 709.5 -306.5 c 0
 739 -342 739 -342 805 -342 c 0
 878 -342 878 -342 907 -295 c 0
 936 -248 936 -248 936 -125 c 1
 936 621 l 2,0,1
EndSplineSet
EndChar
StartChar: afii10101
Encoding: 1108 1108 240
Width: 1247
Flags: HW
Fore
1155 332 m 1
 1117.01 150.01 1117.01 150.01 999.5 60.5 c 0
 882 -29 882 -29 680 -29 c 0
 396 -29 396 -29 240 118 c 0
 84 265 84 265 84 532 c 0
 84 796 84 796 238 944 c 0
 391.995 1092 391.995 1092 666 1092 c 0
 777 1092 777 1092 890 1071 c 0
 1003 1050 1003 1050 1120 1008 c 1
 1120 713 l 1
 1008 713 l 1
 992 848 992 848 929 913.5 c 0
 866 979 866 979 752 979 c 0
 604 979 604 979 541.5 879 c 0
 485.146 788.833 485.146 788.833 479.682 595 c 1
 884 595 l 1
 884.996 596.966 884.996 596.966 884 476 c 1
 480.364 476 l 1
 488.699 274.543 488.699 274.543 540 187.5 c 0
 601 84 601 84 739 84 c 0
 846 84 846 84 910.5 148 c 0
 975.001 212.001 975.001 212.001 989 332 c 1
 1155 332 l 1
EndSplineSet
EndChar
StartChar: afii10102
Encoding: 1109 1109 241
Width: 1153
Flags: HW
Fore
96 31 m 1,0,-1
 96 328 l 1
 209 328 l 1
 222.999 209.001 222.999 209.001 298 146.5 c 0
 373 83.9995 373 83.9995 502 84 c 0
 610 84 610 84 667.5 121.5 c 0
 725 159 725 159 725 229 c 0
 725 293 725 293 688.5 328 c 0
 651.999 363.001 651.999 363.001 547 389 c 2
 401 426 l 2
 236 467 236 467 162 543.5 c 0
 88.0005 620 88.0005 620 88 750 c 0
 88 923 88 923 208 1007.5 c 0
 328.007 1092 328.007 1092 578 1092 c 0
 671.965 1092 671.965 1092 778.5 1076.5 c 0
 884.954 1061.01 884.954 1061.01 1014 1028 c 1
 1014 760 l 1
 901 760 l 1
 892 869 892 869 823.5 924 c 0
 755 979 755 979 627 979 c 0
 519 979 519 979 463.5 944.5 c 0
 408 910 408 910 408 844 c 0
 408 790 408 790 440 759 c 0
 471.998 728 471.998 728 555 707 c 2
 700 670 l 2
 909 617 909 617 989 539 c 0
 1069 460.995 1069 460.995 1069 322 c 0
 1069 141.997 1069 141.997 940.5 56.5 c 0
 812 -29 812 -29 541 -29 c 0
 442 -29 442 -29 331 -14 c 0
 220.001 0.999844 220.001 0.999844 96 31 c 1,0,-1
EndSplineSet
EndChar
StartChar: afii10103
Encoding: 1110 1110 242
Width: 778
Flags: HW
Fore
188 1364 m 0,0,1
 188 1445 188 1445 244 1500.5 c 0
 300 1556 300 1556 381 1556 c 0
 460 1556 460 1556 515.5 1500.5 c 0
 571 1445 571 1445 571 1364 c 0
 571 1285 571 1285 515.5 1229.5 c 0
 460 1174 460 1174 381 1174 c 0
 299.994 1174 299.994 1174 244 1229 c 0
 188 1284.01 188 1284.01 188 1364 c 0,0,1
575 121 m 1,12,-1
 727 121 l 1
 727 0 l 1
 70 0 l 1
 70 121 l 1
 221 121 l 1
 221 942 l 1
 70 942 l 1
 70 1063 l 1
 575 1063 l 1
 575 121 l 1,12,-1
EndSplineSet
EndChar
StartChar: afii10105
Encoding: 1112 1112 244
Width: 741
Flags: HW
Fore
178 1364 m 0,0,1
 178 1445 178 1445 233.5 1500.5 c 0
 289 1556 289 1556 371 1556 c 0
 448.995 1556 448.995 1556 505 1500 c 0
 561 1444 561 1444 561 1364 c 0
 561 1285 561 1285 505.5 1229.5 c 0
 450 1174 450 1174 371 1174 c 0
 289.994 1174 289.994 1174 234 1229 c 0
 178 1284.01 178 1284.01 178 1364 c 0,0,1
219 942 m 1,12,-1
 68 942 l 1
 68 1063 l 1
 573 1063 l 1
 573 -125 l 2
 573 -288 573 -288 457.5 -371.5 c 0
 342 -455 342 -455 117 -455 c 0
 57 -455 57 -455 -11 -445 c 0
 -79.0075 -434.998 -79.0075 -434.998 -152 -416 c 1
 -152 -190 l 1
 -39 -191 l 1
 -37 -270.999 -37 -270.999 -7.5 -306.5 c 0
 22 -342 22 -342 88 -342 c 0
 161.001 -342 161.001 -342 190 -295 c 0
 219 -248 219 -248 219 -125 c 2
 219 942 l 1,12,-1
EndSplineSet
EndChar
StartChar: afii10106
Encoding: 1113 1113 245
Width: 2039
Flags: HW
Fore
99 1063 m 1,16,-1
 1416 1063 l 1
 1416 942 l 1
 1279 942 l 1
 1279 626 l 1
 1335 626 l 2
 1498.8 626 1498.8 626 1615 605 c 0
 1709.29 588.011 1709.29 588.011 1807.12 519.73 c 2
 1807.12 519.73 1852 488 1852 488 c 2
 1924.56 437.678 1924.56 437.678 1937.07 321.786 c 0
 1939 303.91 1939 303.91 1939 286 c 0
 1939 145.839 1939 145.839 1814 74 c 0
 1711.84 16.4639 1711.84 16.4639 1593.65 4.70036 c 0
 1546.42 0 1546.42 0 1487 0 c 2
 793 0 l 1
 793 121 l 1
 924 121 l 1
 924 942 l 1
 602 942 l 1
 602 304 l 1
 601.694 140.779 601.694 140.779 486.5 57.5 c 0
 371 -26.0005 371 -26.0005 146 -26 c 0
 86 -26 86 -26 18 -16 c 0
 -50.0081 -5.99825 -50.0081 -5.99825 -123 13 c 1
 -123 239 l 1
 -10 238 l 1
 -8.00049 158.001 -8.00049 158.001 21.5 122.5 c 0
 51.0005 86.9995 51.0005 86.9995 117 87 c 0
 190.001 87 190.001 87 219 134 c 0
 249.776 183.878 249.776 183.878 250 304 c 1
 250 942 l 1
 99 942 l 1
 99 1063 l 1,16,-1
1279 502 m 1,28,-1
 1279 121 l 1
 1400 121 l 2
 1473.85 121 1473.85 121 1514.39 147.262 c 0
 1523.45 153.128 1523.45 153.128 1552 175 c 0
 1596.18 208.615 1596.18 208.615 1607.08 227.243 c 0
 1621 251.031 1621 251.031 1621 293 c 0
 1621 394 1621 394 1552 448 c 0
 1504.76 484.188 1504.76 484.188 1481 492.125 c 1
 1481 492.125 1444.44 499.827 1444.44 499.827 c 1
 1425.5 502 1425.5 502 1400 502 c 2
 1279 502 l 1,28,-1
EndSplineSet
EndChar
StartChar: afii10107
Encoding: 1114 1114 246
Width: 2029
Flags: HW
Fore
793 1063 m 1,16,-1
 1416 1063 l 1
 1416 942 l 1
 1279 942 l 1
 1279 626 l 1
 1335 626 l 2
 1498.8 626 1498.8 626 1615 605 c 0
 1709.29 588.011 1709.29 588.011 1807.12 519.73 c 2
 1807.12 519.73 1852 488 1852 488 c 2
 1924.56 437.678 1924.56 437.678 1937.07 321.786 c 0
 1939 303.91 1939 303.91 1939 286 c 0
 1939 145.839 1939 145.839 1814 74 c 0
 1711.84 16.4639 1711.84 16.4639 1593.65 4.70036 c 0
 1546.42 0 1546.42 0 1487 0 c 2
 793 0 l 1
 793 121 l 1
 924 121 l 1
 924 502 l 1
 575 502 l 1
 575 121 l 1
 705 121 l 1
 705 0 l 1
 70 0 l 1
 70 121 l 1
 221 121 l 1
 221 942 l 1
 70 942 l 1
 70 1063 l 1
 705 1063 l 1
 705 942 l 1
 575 942 l 1
 575 623 l 1
 924 623 l 1
 924 942 l 1
 793 942 l 1
 793 1063 l 1,16,-1
1279 502 m 1,28,-1
 1279 121 l 1
 1400 121 l 2
 1473.85 121 1473.85 121 1514.39 147.262 c 0
 1523.45 153.128 1523.45 153.128 1552 175 c 0
 1596.18 208.615 1596.18 208.615 1607.08 227.243 c 0
 1621 251.031 1621 251.031 1621 293 c 0
 1621 394 1621 394 1552 448 c 0
 1504.76 484.188 1504.76 484.188 1481 492.125 c 1
 1481 492.125 1444.44 499.827 1444.44 499.827 c 1
 1425.5 502 1425.5 502 1400 502 c 2
 1279 502 l 1,28,-1
EndSplineSet
EndChar
StartChar: afii10108
Encoding: 1115 1115 247
Width: 1489
Flags: HW
Fore
70 0 m 1,0,-1
 70 121 l 1
 221 121 l 1
 221 1188 l 1
 0 1188 l 1
 0 1309 l 1
 221 1309 l 1
 221 1436 l 1
 63 1436 l 1
 63 1556 l 1
 575 1556 l 1
 575 1309 l 1
 967 1309 l 1
 967 1188 l 1
 575 1188 l 1
 575 848 l 1
 639.002 943.001 639.002 943.001 721 985 c 0
 803 1027 803 1027 928 1027 c 0
 1107 1027 1107 1027 1198.5 921.5 c 0
 1290 816 1290 816 1290 611 c 2
 1290 121 l 1
 1442 121 l 1
 1442 0 l 1
 807 0 l 1
 807 121 l 1
 936 121 l 1
 936 621 l 2
 936 756 936 756 901.5 808.5 c 0
 867 861 867 861 782 861 c 0
 675 861 675 861 625 782.5 c 0
 575 704 575 704 575 533 c 1
 575 121 l 1
 705 121 l 1
 705 0 l 1
 70 0 l 1,0,-1
EndSplineSet
EndChar
StartChar: afii10193
Encoding: 1119 1119 251
Width: 1499
Flags: HW
Fore
70 0 m 1,0,-1
 70 121 l 1
 221 121 l 1
 221 942 l 1
 70 942 l 1
 70 1063 l 1
 705 1063 l 1
 705 942 l 1
 575 942 l 1
 575 135 l 1
 924 135 l 1
 924 942 l 1
 793 942 l 1
 793 1063 l 1
 1430 1063 l 1
 1430 942 l 1
 1278 942 l 1
 1278 121 l 1
 1430 121 l 1
 1430 0 l 1
 909 0 l 1
 909 -332 l 1
 591 -332 l 1
 591 0 l 1
 70 0 l 1,0,-1
EndSplineSet
EndChar
StartChar: uni2010
Encoding: 8208 8208 237
Width: 850
Flags: W
Fore
111 684 m 1,0,-1
 739 684 l 1,1,-1
 739 414 l 1,2,-1
 111 414 l 1,3,-1
 111 684 l 1,0,-1
EndSplineSet
KernsSLIF: 356 -339 0 0 221 -225 0 0 376 -225 0 0 89 -225 0 0 88 -149 0 0 87 -112 0 0 86 -149 0 0 84 -339 0 0
EndChar
StartChar: figuredash
Encoding: 8210 8210 239
Width: 1024
Flags: W
Fore
0 664 m 1,0,-1
 1024 664 l 1,1,-1
 1024 424 l 1,2,-1
 0 424 l 1,3,-1
 0 664 l 1,0,-1
EndSplineSet
EndChar
StartChar: endash
Encoding: 8211 8211 178
Width: 1024
Flags: W
Fore
0 664 m 1,0,-1
 1024 664 l 1,1,-1
 1024 424 l 1,2,-1
 0 424 l 1,3,-1
 0 664 l 1,0,-1
EndSplineSet
EndChar
StartChar: emdash
Encoding: 8212 8212 179
Width: 2048
Flags: W
Fore
0 664 m 1,0,-1
 2048 664 l 1,1,-1
 2048 424 l 1,2,-1
 0 424 l 1,3,-1
 0 664 l 1,0,-1
EndSplineSet
EndChar
StartChar: afii00208
Encoding: 8213 8213 180
Width: 2048
Flags: W
Fore
0 664 m 1,0,-1
 2048 664 l 1,1,-1
 2048 424 l 1,2,-1
 0 424 l 1,3,-1
 0 664 l 1,0,-1
EndSplineSet
EndChar
StartChar: quoteleft
Encoding: 8216 8216 182
Width: 713
Flags: W
Fore
594 1384 m 1,0,1
 498 1317 498 1317 454 1222.5 c 128,-1,2
 410 1128 410 1128 410 989 c 2,3,-1
 410 934 l 1,4,-1
 141 934 l 1,5,6
 149 1141 149 1141 233 1282.5 c 128,-1,7
 317 1424 317 1424 489 1520 c 1,8,-1
 594 1384 l 1,0,1
EndSplineSet
KernsSLIF: 193 -282 0 0 194 -282 0 0 195 -282 0 0 192 -282 0 0 198 -253 0 0 196 -282 0 0 65 -282 0 0
EndChar
StartChar: quoteright
Encoding: 8217 8217 183
Width: 713
Flags: W
Fore
98 1042 m 1,0,1
 194 1109 194 1109 237.5 1203 c 128,-1,2
 281 1297 281 1297 281 1438 c 2,3,-1
 281 1493 l 1,4,-1
 551 1493 l 1,5,6
 543 1284 543 1284 459 1144 c 128,-1,7
 375 1004 375 1004 203 907 c 1,8,-1
 98 1042 l 1,0,1
EndSplineSet
EndChar
StartChar: quotesinglbase
Encoding: 8218 8218 196
Width: 713
Flags: W
Fore
61 -131 m 1,0,1
 157 -64 157 -64 200.5 30 c 128,-1,2
 244 124 244 124 244 264 c 2,3,-1
 244 319 l 1,4,-1
 514 319 l 1,5,6
 506 112 506 112 422 -29 c 128,-1,7
 338 -170 338 -170 166 -266 c 1,8,-1
 61 -131 l 1,0,1
EndSplineSet
EndChar
StartChar: quotedblleft
Encoding: 8220 8220 180
Width: 1178
Flags: W
Fore
1059 1384 m 1,0,1
 963 1317 963 1317 918.5 1222.5 c 128,-1,2
 874 1128 874 1128 874 989 c 2,3,-1
 874 934 l 1,4,-1
 604 934 l 1,5,6
 612 1141 612 1141 696.5 1282 c 128,-1,7
 781 1423 781 1423 954 1520 c 1,8,-1
 1059 1384 l 1,0,1
594 1384 m 1,9,10
 498 1317 498 1317 454 1222.5 c 128,-1,11
 410 1128 410 1128 410 989 c 2,12,-1
 410 934 l 1,13,-1
 141 934 l 1,14,15
 149 1141 149 1141 233 1282.5 c 128,-1,16
 317 1424 317 1424 489 1520 c 1,17,-1
 594 1384 l 1,9,10
EndSplineSet
KernsSLIF: 221 57 0 0 193 -282 0 0 194 -282 0 0 376 57 0 0 195 -282 0 0 192 -282 0 0 198 -253 0 0 196 -282 0 0 89 57 0 0 88 57 0 0 87 57 0 0 86 57 0 0 65 -282 0 0
EndChar
StartChar: quotedblright
Encoding: 8221 8221 181
Width: 1178
Flags: W
Fore
563 1042 m 1,0,1
 659 1109 659 1109 702 1203 c 128,-1,2
 745 1297 745 1297 745 1438 c 2,3,-1
 745 1493 l 1,4,-1
 1016 1493 l 1,5,6
 1008 1284 1008 1284 924 1144 c 128,-1,7
 840 1004 840 1004 668 907 c 1,8,-1
 563 1042 l 1,0,1
98 1042 m 1,9,10
 194 1109 194 1109 237.5 1203 c 128,-1,11
 281 1297 281 1297 281 1438 c 2,12,-1
 281 1493 l 1,13,-1
 551 1493 l 1,14,15
 543 1284 543 1284 459 1144 c 128,-1,16
 375 1004 375 1004 203 907 c 1,17,-1
 98 1042 l 1,9,10
EndSplineSet
EndChar
StartChar: quotedblbase
Encoding: 8222 8222 197
Width: 1178
Flags: W
Fore
524 -131 m 1,0,1
 620 -64 620 -64 664.5 30.5 c 128,-1,2
 709 125 709 125 709 264 c 2,3,-1
 709 319 l 1,4,-1
 979 319 l 1,5,6
 971 112 971 112 887 -29 c 128,-1,7
 803 -170 803 -170 631 -266 c 1,8,-1
 524 -131 l 1,0,1
61 -131 m 1,9,10
 157 -64 157 -64 200.5 30 c 128,-1,11
 244 124 244 124 244 264 c 2,12,-1
 244 319 l 1,13,-1
 514 319 l 1,14,15
 506 112 506 112 422 -29 c 128,-1,16
 338 -170 338 -170 166 -266 c 1,17,-1
 61 -131 l 1,9,10
EndSplineSet
KernsSLIF: 356 -264 0 0 221 -188 0 0 376 -188 0 0 119 -73 0 0 118 -73 0 0 89 -188 0 0 88 18 0 0 87 -225 0 0 86 -301 0 0 84 -264 0 0
EndChar
StartChar: dagger
Encoding: 8224 8224 130
Width: 1071
Flags: W
Fore
422 1493 m 1,0,-1
 649 1493 l 1,1,-1
 608 1055 l 1,2,-1
 1014 1090 l 1,3,-1
 1014 874 l 1,4,-1
 608 909 l 1,5,-1
 649 -197 l 1,6,-1
 422 -197 l 1,7,-1
 463 909 l 1,8,-1
 57 874 l 1,9,-1
 57 1090 l 1,10,-1
 463 1055 l 1,11,-1
 422 1493 l 1,0,-1
EndSplineSet
EndChar
StartChar: daggerdbl
Encoding: 8225 8225 194
Width: 1071
Flags: W
Fore
422 1493 m 1,0,-1
 649 1493 l 1,1,-1
 608 1055 l 1,2,-1
 1014 1090 l 1,3,-1
 1014 874 l 1,4,-1
 608 909 l 1,5,-1
 649 647 l 1,6,-1
 608 387 l 1,7,-1
 1014 422 l 1,8,-1
 1014 207 l 1,9,-1
 608 242 l 1,10,-1
 649 -197 l 1,11,-1
 422 -197 l 1,12,-1
 463 242 l 1,13,-1
 57 207 l 1,14,-1
 57 422 l 1,15,-1
 463 387 l 1,16,-1
 422 647 l 1,17,-1
 463 909 l 1,18,-1
 57 874 l 1,19,-1
 57 1090 l 1,20,-1
 463 1055 l 1,21,-1
 422 1493 l 1,0,-1
EndSplineSet
EndChar
StartChar: bullet
Encoding: 8226 8226 135
Width: 1309
Flags: W
Fore
295 762 m 0,0,1
 295 836 295 836 321.5 901 c 128,-1,2
 348 966 348 966 399 1016 c 0,3,4
 452 1067 452 1067 517 1093.5 c 128,-1,5
 582 1120 582 1120 655 1120 c 0,6,7
 728 1120 728 1120 793.5 1093 c 128,-1,8
 859 1066 859 1066 909 1016 c 0,9,10
 961 964 961 964 987.5 899.5 c 128,-1,11
 1014 835 1014 835 1014 762 c 0,12,13
 1014 688 1014 688 987 622.5 c 128,-1,14
 960 557 960 557 909 506 c 0,15,16
 858 455 858 455 792.5 428 c 128,-1,17
 727 401 727 401 653 401 c 0,18,19
 580 401 580 401 515 428 c 128,-1,20
 450 455 450 455 399 506 c 0,21,22
 349 557 349 557 322 622.5 c 128,-1,23
 295 688 295 688 295 762 c 0,0,1
EndSplineSet
EndChar
StartChar: ellipsis
Encoding: 8230 8230 171
Width: 2048
Flags: W
Fore
1501 162 m 0,0,1
 1501 240 1501 240 1557 296 c 128,-1,2
 1613 352 1613 352 1692 352 c 0,3,4
 1770 352 1770 352 1826 296 c 128,-1,5
 1882 240 1882 240 1882 162 c 0,6,7
 1882 83 1882 83 1826 27 c 128,-1,8
 1770 -29 1770 -29 1692 -29 c 0,9,10
 1613 -29 1613 -29 1557 27 c 128,-1,11
 1501 83 1501 83 1501 162 c 0,0,1
834 162 m 0,12,13
 834 240 834 240 890 296 c 128,-1,14
 946 352 946 352 1024 352 c 0,15,16
 1102 352 1102 352 1158 296 c 128,-1,17
 1214 240 1214 240 1214 162 c 0,18,19
 1214 83 1214 83 1158 27 c 128,-1,20
 1102 -29 1102 -29 1024 -29 c 0,21,22
 946 -29 946 -29 890 27 c 128,-1,23
 834 83 834 83 834 162 c 0,12,13
166 162 m 0,24,25
 166 240 166 240 222 296 c 128,-1,26
 278 352 278 352 356 352 c 0,27,28
 435 352 435 352 491 296 c 128,-1,29
 547 240 547 240 547 162 c 0,30,31
 547 83 547 83 491 27 c 128,-1,32
 435 -29 435 -29 356 -29 c 0,33,34
 278 -29 278 -29 222 27 c 128,-1,35
 166 83 166 83 166 162 c 0,24,25
EndSplineSet
Ligature: 0 1 'liga' period period period
EndChar
StartChar: perthousand
Encoding: 8240 8240 198
Width: 2836
Flags: W
Fore
2394 784 m 0,0,1
 2585 784 2585 784 2686 679.5 c 128,-1,2
 2787 575 2787 575 2787 379 c 0,3,4
 2787 182 2787 182 2685.5 76.5 c 128,-1,5
 2584 -29 2584 -29 2394 -29 c 0,6,7
 2204 -29 2204 -29 2102.5 76.5 c 128,-1,8
 2001 182 2001 182 2001 379 c 0,9,10
 2001 575 2001 575 2102.5 679.5 c 128,-1,11
 2204 784 2204 784 2394 784 c 0,0,1
2394 684 m 0,12,13
 2330 684 2330 684 2302.5 615.5 c 128,-1,14
 2275 547 2275 547 2275 379 c 0,15,16
 2275 210 2275 210 2302.5 141 c 128,-1,17
 2330 72 2330 72 2394 72 c 0,18,19
 2459 72 2459 72 2487 142 c 128,-1,20
 2515 212 2515 212 2515 379 c 0,21,22
 2515 545 2515 545 2487 614.5 c 128,-1,23
 2459 684 2459 684 2394 684 c 0,12,13
442 1419 m 0,24,25
 378 1419 378 1419 350 1349.5 c 128,-1,26
 322 1280 322 1280 322 1114 c 0,27,28
 322 947 322 947 350 877 c 128,-1,29
 378 807 378 807 442 807 c 0,30,31
 507 807 507 807 535 877 c 128,-1,32
 563 947 563 947 563 1114 c 0,33,34
 563 1280 563 1280 535 1349.5 c 128,-1,35
 507 1419 507 1419 442 1419 c 0,24,25
442 1520 m 0,36,37
 633 1520 633 1520 734.5 1415.5 c 128,-1,38
 836 1311 836 1311 836 1114 c 0,39,40
 836 917 836 917 734.5 812 c 128,-1,41
 633 707 633 707 442 707 c 0,42,43
 252 707 252 707 150.5 812 c 128,-1,44
 49 917 49 917 49 1114 c 0,45,46
 49 1311 49 1311 150.5 1415.5 c 128,-1,47
 252 1520 252 1520 442 1520 c 0,36,37
1354 1520 m 1,48,-1
 1526 1520 l 1,49,-1
 592 -29 l 1,50,-1
 420 -29 l 1,51,-1
 1354 1520 l 1,48,-1
1503 784 m 0,52,53
 1694 784 1694 784 1795 679.5 c 128,-1,54
 1896 575 1896 575 1896 379 c 0,55,56
 1896 182 1896 182 1795 76.5 c 128,-1,57
 1694 -29 1694 -29 1503 -29 c 0,58,59
 1313 -29 1313 -29 1211.5 76.5 c 128,-1,60
 1110 182 1110 182 1110 379 c 0,61,62
 1110 575 1110 575 1211.5 679.5 c 128,-1,63
 1313 784 1313 784 1503 784 c 0,52,53
1503 684 m 0,64,65
 1438 684 1438 684 1410 614.5 c 128,-1,66
 1382 545 1382 545 1382 379 c 0,67,68
 1382 212 1382 212 1410.5 142 c 128,-1,69
 1439 72 1439 72 1503 72 c 0,70,71
 1568 72 1568 72 1596 142 c 128,-1,72
 1624 212 1624 212 1624 379 c 0,73,74
 1624 545 1624 545 1596 614.5 c 128,-1,75
 1568 684 1568 684 1503 684 c 0,64,65
EndSplineSet
EndChar
StartChar: guilsinglleft
Encoding: 8249 8249 190
Width: 819
Flags: W
Fore
627 1069 m 1,0,-1
 627 922 l 1,1,-1
 387 600 l 1,2,-1
 627 279 l 1,3,-1
 627 131 l 1,4,-1
 158 516 l 1,5,-1
 158 684 l 1,6,-1
 627 1069 l 1,0,-1
EndSplineSet
KernsSLIF: 356 -149 0 0 84 -149 0 0 74 -73 0 0
EndChar
StartChar: guilsinglright
Encoding: 8250 8250 191
Width: 819
Flags: W
Fore
193 1069 m 1,0,-1
 662 684 l 1,1,-1
 662 516 l 1,2,-1
 193 131 l 1,3,-1
 193 279 l 1,4,-1
 432 600 l 1,5,-1
 193 922 l 1,6,-1
 193 1069 l 1,0,-1
EndSplineSet
KernsSLIF: 356 -149 0 0 84 -149 0 0 74 -73 0 0
EndChar
StartChar: Euro
Encoding: 8364 8364 258
Width: 1425
Flags: W
Fore
1329 426 m 1,0,1
 1291 203 1291 203 1162 87 c 128,-1,2
 1033 -29 1033 -29 823 -29 c 0,3,4
 569 -29 569 -29 401.5 117 c 128,-1,5
 234 263 234 263 182 530 c 1,6,-1
 -8 530 l 1,7,-1
 45 649 l 1,8,-1
 166 649 l 1,9,10
 166 656 166 656 165 671 c 0,11,12
 162 724 162 724 162 745 c 0,13,14
 162 770 162 770 165 826 c 0,15,16
 166 836 166 836 166 842 c 1,17,-1
 -8 842 l 1,18,-1
 45 961 l 1,19,-1
 182 961 l 1,20,21
 234 1228 234 1228 401.5 1374 c 128,-1,22
 569 1520 569 1520 823 1520 c 0,23,24
 931 1520 931 1520 1046 1489 c 128,-1,25
 1161 1458 1161 1458 1300 1391 c 1,26,-1
 1300 1024 l 1,27,-1
 1182 1024 l 1,28,29
 1142 1220 1142 1220 1069.5 1311.5 c 128,-1,30
 997 1403 997 1403 881 1403 c 0,31,32
 751 1403 751 1403 677 1294 c 128,-1,33
 603 1185 603 1185 580 961 c 1,34,-1
 1051 961 l 1,35,-1
 997 842 l 1,36,-1
 574 842 l 1,37,38
 571 798 571 798 570 773.5 c 128,-1,39
 569 749 569 749 569 729 c 0,40,41
 569 726 569 726 570.5 699 c 128,-1,42
 572 672 572 672 573 649 c 1,43,-1
 911 649 l 1,44,-1
 858 530 l 1,45,-1
 582 530 l 1,46,47
 602 308 602 308 676.5 198 c 128,-1,48
 751 88 751 88 883 88 c 0,49,50
 995 88 995 88 1067.5 174.5 c 128,-1,51
 1140 261 1140 261 1167 426 c 1,52,-1
 1329 426 l 1,0,1
EndSplineSet
EndChar
StartChar: trademark
Encoding: 8482 8482 140
Width: 2048
Flags: W
Fore
238 1493 m 1,0,-1
 803 1493 l 1,1,-1
 803 1313 l 1,2,-1
 727 1313 l 1,3,-1
 727 1411 l 1,4,-1
 596 1411 l 1,5,-1
 596 995 l 1,6,-1
 682 995 l 1,7,-1
 682 915 l 1,8,-1
 358 915 l 1,9,-1
 358 995 l 1,10,-1
 444 995 l 1,11,-1
 444 1411 l 1,12,-1
 313 1411 l 1,13,-1
 313 1313 l 1,14,-1
 238 1313 l 1,15,-1
 238 1493 l 1,0,-1
1143 1493 m 1,16,-1
 1309 1200 l 1,17,-1
 1475 1493 l 1,18,-1
 1720 1493 l 1,19,-1
 1720 1411 l 1,20,-1
 1634 1411 l 1,21,-1
 1634 995 l 1,22,-1
 1720 995 l 1,23,-1
 1720 915 l 1,24,-1
 1397 915 l 1,25,-1
 1397 995 l 1,26,-1
 1483 995 l 1,27,-1
 1483 1354 l 1,28,-1
 1321 1069 l 1,29,-1
 1208 1069 l 1,30,-1
 1047 1354 l 1,31,-1
 1047 995 l 1,32,-1
 1133 995 l 1,33,-1
 1133 915 l 1,34,-1
 877 915 l 1,35,-1
 877 995 l 1,36,-1
 961 995 l 1,37,-1
 961 1411 l 1,38,-1
 877 1411 l 1,39,-1
 877 1493 l 1,40,-1
 1143 1493 l 1,16,-1
EndSplineSet
Ligature: 0 1 'liga' T M
EndChar
StartChar: partialdiff
Encoding: 8706 8706 152
Width: 1094
Flags: W
Fore
762 662 m 1,0,1
 781 761 781 761 791 850.5 c 128,-1,2
 801 940 801 940 801 1006 c 0,3,4
 801 1106 801 1106 775 1163.5 c 128,-1,5
 749 1221 749 1221 705 1221 c 0,6,7
 661 1221 661 1221 559 1148 c 128,-1,8
 457 1075 457 1075 399 1075 c 0,9,10
 357 1075 357 1075 328 1105 c 128,-1,11
 299 1135 299 1135 299 1178 c 0,12,13
 299 1242 299 1242 385.5 1296 c 128,-1,14
 472 1350 472 1350 596 1350 c 0,15,16
 788 1350 788 1350 905 1188.5 c 128,-1,17
 1022 1027 1022 1027 1022 756 c 0,18,19
 1022 417 1022 417 865.5 196 c 128,-1,20
 709 -25 709 -25 469 -25 c 0,21,22
 298 -25 298 -25 187 89.5 c 128,-1,23
 76 204 76 204 76 381 c 0,24,25
 76 579 76 579 192 710.5 c 128,-1,26
 308 842 308 842 479 842 c 0,27,28
 581 842 581 842 649 798.5 c 128,-1,29
 717 755 717 755 762 662 c 1,0,1
700 518 m 0,30,31
 700 634 700 634 661.5 696 c 128,-1,32
 623 758 623 758 551 758 c 0,33,34
 450 758 450 758 383.5 624 c 128,-1,35
 317 490 317 490 317 283 c 0,36,37
 317 166 317 166 355.5 105.5 c 128,-1,38
 394 45 394 45 467 45 c 0,39,40
 568 45 568 45 634 178.5 c 128,-1,41
 700 312 700 312 700 518 c 0,30,31
EndSplineSet
EndChar
StartChar: Delta
Encoding: 8710 8710 168
Width: 1542
Flags: W
Fore
256 184 m 1,0,-1
 1016 184 l 1,1,-1
 637 1110 l 1,2,-1
 256 184 l 1,0,-1
41 0 m 1,3,-1
 653 1493 l 1,4,-1
 891 1493 l 1,5,-1
 1503 0 l 1,6,-1
 41 0 l 1,3,-1
EndSplineSet
EndChar
StartChar: product
Encoding: 8719 8719 154
Width: 1724
Flags: W
Fore
47 1473 m 1,0,-1
 1671 1473 l 1,1,-1
 1671 1389 l 1,2,-1
 1481 1389 l 1,3,-1
 1481 -309 l 1,4,-1
 1671 -309 l 1,5,-1
 1671 -393 l 1,6,-1
 973 -393 l 1,7,-1
 973 -309 l 1,8,-1
 1151 -309 l 1,9,-1
 1151 1389 l 1,10,-1
 569 1389 l 1,11,-1
 569 -309 l 1,12,-1
 745 -309 l 1,13,-1
 745 -393 l 1,14,-1
 47 -393 l 1,15,-1
 47 -309 l 1,16,-1
 238 -309 l 1,17,-1
 238 1389 l 1,18,-1
 47 1389 l 1,19,-1
 47 1473 l 1,0,-1
EndSplineSet
EndChar
StartChar: summation
Encoding: 8721 8721 153
Width: 1542
Flags: W
Fore
25 1473 m 1,0,-1
 1260 1473 l 1,1,-1
 1399 1044 l 1,2,-1
 1311 1044 l 1,3,-1
 1219 1294 l 2,4,5
 1200 1346 1200 1346 1158.5 1367.5 c 128,-1,6
 1117 1389 1117 1389 991 1389 c 2,7,-1
 434 1389 l 1,8,-1
 1100 606 l 1,9,-1
 1100 565 l 1,10,-1
 365 -115 l 1,11,-1
 1251 -115 l 2,12,13
 1299 -115 1299 -115 1316 -102 c 128,-1,14
 1333 -89 1333 -89 1343 -51 c 1,15,-1
 1415 178 l 1,16,-1
 1503 178 l 1,17,-1
 1329 -393 l 1,18,-1
 20 -393 l 1,19,-1
 20 -322 l 1,20,-1
 842 434 l 1,21,-1
 25 1407 l 1,22,-1
 25 1473 l 1,0,-1
EndSplineSet
EndChar
StartChar: minus
Encoding: 8722 8722 238
Width: 1716
Flags: W
Fore
217 756 m 1,0,-1
 1499 756 l 1,1,-1
 1499 526 l 1,2,-1
 217 526 l 1,3,-1
 217 756 l 1,0,-1
EndSplineSet
EndChar
StartChar: fraction
Encoding: 8725 8725 188
Width: 342
Flags: W
Fore
553 1520 m 1,0,-1
 723 1520 l 1,1,-1
 -211 -29 l 1,2,-1
 -381 -29 l 1,3,-1
 553 1520 l 1,0,-1
EndSplineSet
EndChar
StartChar: periodcentered
Encoding: 8729 8729 257
Width: 713
Flags: W
Fore
166 711 m 0,0,1
 166 789 166 789 222 845 c 128,-1,2
 278 901 278 901 356 901 c 0,3,4
 435 901 435 901 491 845 c 128,-1,5
 547 789 547 789 547 711 c 0,6,7
 547 633 547 633 491 577.5 c 128,-1,8
 435 522 435 522 356 522 c 0,9,10
 278 522 278 522 222 577.5 c 128,-1,11
 166 633 166 633 166 711 c 0,0,1
EndSplineSet
EndChar
StartChar: radical
Encoding: 8730 8730 165
Width: 1346
Flags: W
Fore
1141 1694 m 1,0,-1
 1348 1694 l 1,1,-1
 1348 1565 l 1,2,-1
 1245 1565 l 1,3,-1
 653 -41 l 1,4,-1
 553 -41 l 1,5,-1
 242 817 l 1,6,-1
 102 766 l 1,7,-1
 72 879 l 1,8,-1
 403 995 l 1,9,-1
 639 334 l 1,10,-1
 1141 1694 l 1,0,-1
EndSplineSet
EndChar
StartChar: infinity
Encoding: 8734 8734 146
Width: 1706
Flags: W
Fore
942 561 m 1,0,1
 987 486 987 486 1048.5 448 c 128,-1,2
 1110 410 1110 410 1188 410 c 0,3,4
 1282 410 1282 410 1340.5 465.5 c 128,-1,5
 1399 521 1399 521 1399 610 c 0,6,7
 1399 696 1399 696 1345 752.5 c 128,-1,8
 1291 809 1291 809 1210 809 c 0,9,10
 1136 809 1136 809 1074 752 c 128,-1,11
 1012 695 1012 695 942 561 c 1,0,1
766 659 m 1,12,13
 720 735 720 735 659 772 c 128,-1,14
 598 809 598 809 520 809 c 0,15,16
 427 809 427 809 368 752.5 c 128,-1,17
 309 696 309 696 309 608 c 0,18,19
 309 523 309 523 363 466.5 c 128,-1,20
 417 410 417 410 498 410 c 0,21,22
 573 410 573 410 636 468 c 128,-1,23
 699 526 699 526 766 659 c 1,12,13
858 457 m 1,24,25
 789 324 789 324 711 261.5 c 128,-1,26
 633 199 633 199 537 199 c 0,27,28
 398 199 398 199 301.5 316.5 c 128,-1,29
 205 434 205 434 205 610 c 0,30,31
 205 794 205 794 290.5 907 c 128,-1,32
 376 1020 376 1020 514 1020 c 0,33,34
 607 1020 607 1020 683.5 961.5 c 128,-1,35
 760 903 760 903 848 762 c 1,36,37
 916 894 916 894 996 958 c 128,-1,38
 1076 1022 1076 1022 1171 1022 c 0,39,40
 1310 1022 1310 1022 1406.5 904 c 128,-1,41
 1503 786 1503 786 1503 610 c 0,42,43
 1503 427 1503 427 1417 314 c 128,-1,44
 1331 201 1331 201 1194 201 c 0,45,46
 1101 201 1101 201 1025.5 257.5 c 128,-1,47
 950 314 950 314 858 457 c 1,24,25
EndSplineSet
EndChar
StartChar: integral
Encoding: 8747 8747 156
Width: 1186
Flags: W
Fore
342 -252 m 0,0,1
 444 -252 444 -252 463 387 c 0,2,3
 466 523 466 523 469 598 c 0,4,5
 485 1106 485 1106 592 1330 c 128,-1,6
 699 1554 699 1554 920 1554 c 0,7,8
 1018 1554 1018 1554 1077.5 1505 c 128,-1,9
 1137 1456 1137 1456 1137 1376 c 0,10,11
 1137 1316 1137 1316 1099 1279.5 c 128,-1,12
 1061 1243 1061 1243 999 1243 c 0,13,14
 953 1243 953 1243 922 1267 c 128,-1,15
 891 1291 891 1291 881 1335 c 0,16,17
 876 1355 876 1355 874 1389 c 0,18,19
 871 1435 871 1435 844 1436 c 0,20,21
 745 1436 745 1436 725 803 c 0,22,23
 721 687 721 687 719 625 c 0,24,25
 708 329 708 329 688 180.5 c 128,-1,26
 668 32 668 32 629 -70 c 0,27,28
 573 -218 573 -218 480.5 -295.5 c 128,-1,29
 388 -373 388 -373 266 -373 c 0,30,31
 170 -373 170 -373 109.5 -324 c 128,-1,32
 49 -275 49 -275 49 -197 c 0,33,34
 49 -135 49 -135 88 -98 c 128,-1,35
 127 -61 127 -61 193 -61 c 0,36,37
 243 -61 243 -61 278 -92.5 c 128,-1,38
 313 -124 313 -124 313 -164 c 0,39,40
 313 -222 313 -222 319 -237 c 128,-1,41
 325 -252 325 -252 342 -252 c 0,0,1
EndSplineSet
EndChar
StartChar: approxequal
Encoding: 8776 8776 167
Width: 1716
Flags: W
Fore
1499 623 m 1,0,-1
 1499 416 l 1,1,2
 1406 331 1406 331 1312.5 289.5 c 128,-1,3
 1219 248 1219 248 1118 248 c 0,4,5
 1023 248 1023 248 871 306 c 0,6,7
 855 312 855 312 845 316 c 0,8,9
 839 318 839 318 826 323 c 0,10,11
 654 389 654 389 557 389 c 0,12,13
 480 389 480 389 396.5 353.5 c 128,-1,14
 313 318 313 318 217 244 c 1,15,-1
 217 451 l 1,16,17
 313 537 313 537 405.5 577.5 c 128,-1,18
 498 618 498 618 598 618 c 0,19,20
 693 618 693 618 844 561 c 0,21,22
 862 554 862 554 870 551 c 2,23,-1
 885 545 l 2,24,25
 1058 477 1058 477 1159 477 c 0,26,27
 1236 477 1236 477 1319.5 513 c 128,-1,28
 1403 549 1403 549 1499 623 c 1,0,-1
1499 1040 m 1,29,-1
 1499 834 l 1,30,31
 1406 748 1406 748 1312.5 707 c 128,-1,32
 1219 666 1219 666 1118 666 c 0,33,34
 1023 666 1023 666 872 723 c 0,35,36
 855 730 855 730 846 733 c 0,37,38
 839 736 839 736 826 741 c 0,39,40
 654 807 654 807 557 807 c 0,41,42
 480 807 480 807 396.5 771 c 128,-1,43
 313 735 313 735 217 662 c 1,44,-1
 217 868 l 1,45,46
 313 954 313 954 405.5 995 c 128,-1,47
 498 1036 498 1036 598 1036 c 0,48,49
 693 1036 693 1036 844 979 c 0,50,51
 862 972 862 972 870 969 c 2,52,-1
 885 963 l 2,53,54
 1058 895 1058 895 1159 895 c 0,55,56
 1236 895 1236 895 1319.5 931 c 128,-1,57
 1403 967 1403 967 1499 1040 c 1,29,-1
EndSplineSet
EndChar
StartChar: notequal
Encoding: 8800 8800 143
Width: 1716
Flags: W
Fore
217 983 m 1,0,-1
 1012 983 l 1,1,-1
 1262 1292 l 1,2,-1
 1407 1167 l 1,3,-1
 1257 983 l 1,4,-1
 1499 983 l 1,5,-1
 1499 756 l 1,6,-1
 1073 756 l 1,7,-1
 889 528 l 1,8,-1
 1499 528 l 1,9,-1
 1499 301 l 1,10,-1
 705 301 l 1,11,-1
 455 -10 l 1,12,-1
 309 117 l 1,13,-1
 459 301 l 1,14,-1
 217 301 l 1,15,-1
 217 528 l 1,16,-1
 643 528 l 1,17,-1
 827 756 l 1,18,-1
 217 756 l 1,19,-1
 217 983 l 1,0,-1
EndSplineSet
Ligature: 0 1 'liga' equal uni0338
EndChar
StartChar: lessequal
Encoding: 8804 8804 148
Width: 1716
Flags: W
Fore
1499 227 m 1,0,-1
 1499 0 l 1,1,-1
 217 0 l 1,2,-1
 217 227 l 1,3,-1
 1499 227 l 1,0,-1
1499 950 m 1,4,-1
 596 739 l 1,5,-1
 1499 528 l 1,6,-1
 1499 291 l 1,7,-1
 217 627 l 1,8,-1
 217 852 l 1,9,-1
 1499 1188 l 1,10,-1
 1499 950 l 1,4,-1
EndSplineSet
EndChar
StartChar: greaterequal
Encoding: 8805 8805 149
Width: 1716
Flags: W
Fore
217 950 m 1,0,-1
 217 1188 l 1,1,-1
 1499 852 l 1,2,-1
 1499 627 l 1,3,-1
 217 291 l 1,4,-1
 217 528 l 1,5,-1
 1120 739 l 1,6,-1
 217 950 l 1,0,-1
217 227 m 1,7,-1
 1499 227 l 1,8,-1
 1499 0 l 1,9,-1
 217 0 l 1,10,-1
 217 227 l 1,7,-1
EndSplineSet
EndChar
StartChar: lozenge
Encoding: 9674 9674 185
Width: 1012
Flags: W
Fore
506 1409 m 1,0,-1
 121 592 l 1,1,-1
 506 -233 l 1,2,-1
 891 592 l 1,3,-1
 506 1409 l 1,0,-1
506 1653 m 1,4,-1
 1006 592 l 1,5,-1
 506 -477 l 1,6,-1
 6 592 l 1,7,-1
 506 1653 l 1,4,-1
EndSplineSet
EndChar
StartChar: fi
Encoding: 64257 64257 192
Width: 1489
Flags: W
Fore
1210 1268 m 1,0,-1
 1098 1268 l 1,1,2
 1087 1354 1087 1354 1027 1399 c 128,-1,3
 967 1444 967 1444 862 1444 c 0,4,5
 714 1444 714 1444 644.5 1373 c 128,-1,6
 575 1302 575 1302 575 1149 c 2,7,-1
 575 1063 l 1,8,-1
 1290 1063 l 1,9,-1
 1290 121 l 1,10,-1
 1442 121 l 1,11,-1
 1442 0 l 1,12,-1
 807 0 l 1,13,-1
 807 121 l 1,14,-1
 936 121 l 1,15,-1
 936 942 l 1,16,-1
 575 942 l 1,17,-1
 575 121 l 1,18,-1
 705 121 l 1,19,-1
 705 0 l 1,20,-1
 70 0 l 1,21,-1
 70 121 l 1,22,-1
 221 121 l 1,23,-1
 221 942 l 1,24,-1
 63 942 l 1,25,-1
 63 1063 l 1,26,-1
 221 1063 l 1,27,-1
 221 1139 l 2,28,29
 221 1345 221 1345 362 1450.5 c 128,-1,30
 503 1556 503 1556 780 1556 c 0,31,32
 877 1556 877 1556 984.5 1544 c 128,-1,33
 1092 1532 1092 1532 1210 1507 c 1,34,-1
 1210 1268 l 1,0,-1
EndSplineSet
Ligature: 0 0 'liga' f i
EndChar
